<?xml version="1.0" encoding="utf-8"?>
<!-- Generator: Adobe Illustrator 23.0.4, SVG Export Plug-In . SVG Version: 6.00 Build 0)  -->
<svg version="1.1" id="Ebene_1" xmlns="http://www.w3.org/2000/svg" xmlns:xlink="http://www.w3.org/1999/xlink" x="0px" y="0px"
	 viewBox="0 0 20.6 25" style="enable-background:new 0 0 20.6 25;" xml:space="preserve">
<style type="text/css">
	.st0{fill:#FFFFFF;}
</style>
<title>profile</title>
<desc>Created with Sketch.</desc>
<g id="profile" transform="translate(0.000000, 0.000000)">
	<g id="person">
		<g id="Oval">
			<path class="st0" d="M9.9,11.9C6.6,11.9,4,9.2,4,5.9C4,2.7,6.6,0,9.9,0s5.9,2.7,5.9,5.9C15.8,9.2,13.2,11.9,9.9,11.9z M9.9,1.5
				c-2.5,0-4.5,2-4.5,4.5c0,2.5,2,4.5,4.5,4.5s4.5-2,4.5-4.5C14.4,3.5,12.4,1.5,9.9,1.5z"/>
		</g>
		<g id="Combined-Shape">
			<path class="st0" d="M19,24.9H0.8c-0.4,0-0.7-0.3-0.7-0.7c0-3.6,1.8-6.9,4.8-8.6c1.6-0.9,3.3-1.3,5.1-1.2
				c1.8-0.1,3.5,0.3,5.1,1.2c2.9,1.7,4.8,5,4.8,8.6C19.8,24.6,19.4,24.9,19,24.9z M1.5,23.5h16.7c-0.2-2.8-1.7-5.3-4-6.6
				c-1.3-0.8-2.8-1.1-4.3-1c0,0-0.1,0-0.1,0c-1.5-0.1-3,0.2-4.3,1C3.3,18.2,1.8,20.7,1.5,23.5z"/>
		</g>
	</g>
</g>
</svg>
