<?xml version="1.0" encoding="utf-8"?>
<!-- Generator: Adobe Illustrator 23.0.4, SVG Export Plug-In . SVG Version: 6.00 Build 0)  -->
<svg version="1.1" id="Ebene_1" xmlns="http://www.w3.org/2000/svg" xmlns:xlink="http://www.w3.org/1999/xlink" x="0px" y="0px"
	 viewBox="0 0 20.6 25" style="enable-background:new 0 0 20.6 25;" xml:space="preserve">
<style type="text/css">
	.st0{fill:#FFFFFF;}
</style>
<title>search</title>
<desc>Created with Sketch.</desc>
<path class="st0" d="M15.9,18.8c2.8-1.8,4.6-5,4.6-8.6C20.5,4.6,15.9,0,10.3,0C4.6,0,0,4.6,0,10.2c0,5.7,4.6,10.2,10.2,10.2
	c1.5,0,3-0.4,4.3-1c0,0.1,0.1,0.2,0.1,0.2l4.5,5c0.1,0.2,0.4,0.2,0.6,0.2c0.2,0,0.4-0.1,0.5-0.2c0.3-0.3,0.3-0.8,0.1-1.1L15.9,18.8z
	 M1.5,10.2c0-4.8,3.9-8.8,8.8-8.8c4.8,0,8.8,3.9,8.8,8.8c0,4.8-3.9,8.8-8.8,8.8C5.4,19,1.5,15,1.5,10.2z"/>
</svg>
