<?xml version="1.0" encoding="utf-8"?>
<!-- Generator: Adobe Illustrator 12.0.0, SVG Export Plug-In  -->
<!DOCTYPE svg PUBLIC "-//W3C//DTD SVG 1.1//EN" "http://www.w3.org/Graphics/SVG/1.1/DTD/svg11.dtd" [
	<!ENTITY ns_flows "http://ns.adobe.com/Flows/1.0/">
	<!ENTITY ns_svg "http://www.w3.org/2000/svg">
	<!ENTITY ns_xlink "http://www.w3.org/1999/xlink">
]>
<svg  version="1.1" xmlns="&ns_svg;" xmlns:xlink="&ns_xlink;" xmlns:a="http://ns.adobe.com/AdobeSVGViewerExtensions/3.0/"
	 width="250.090892568" height="399.854624745" viewBox="-0.169 -0.038 344 550" enable-background="new -0.169 -0.038 344 550" xml:space="preserve">
<defs>
</defs>
<polyline fill-rule="evenodd" clip-rule="evenodd" fill="none" points="0,574.034 0,0 349.46,0.369 349.46,574.034 "/>
<path fill="#FFFFFF" d="M325.738,0c9.509,0,17.198,7.607,17.198,17.015V532.42c0,9.4-7.689,17.015-17.198,17.015H17.753
	c-9.5,0-17.191-7.614-17.191-17.015V17.015C0.562,7.607,8.253,0,17.753,0H325.738"/>
<path fill="#FFF200" d="M7.246,76.404h329.229V531.39c0,3.784-0.646,6.123-3.198,8.661c-2.77,2.753-5.2,3-9.586,3l-306.615,0.03
	c-2.416,0-4.269-0.77-6.269-2.461c-2.477-2.123-3.561-4.769-3.561-7.569V76.404"/>
<rect x="7.246" y="53.513" fill="#ED1C24" width="329.229" height="23.375"/>
<rect x="7.246" y="30.091" fill="#FFFFFF" width="329.229" height="23.376"/>
<path fill="#009A4E" d="M16.553,6.315h310.4c4.971,0,9.555,4.792,9.555,9.469v14.922H7.246l0.03-13.123v-1.092
	C7.276,11.2,11.353,6.838,16.553,6.315"/>
<path d="M325.738,0c9.509,0,17.198,7.607,17.198,17.015V532.42c0,9.4-7.689,17.015-17.198,17.015H17.753
	c-9.5,0-17.191-7.614-17.191-17.015V17.015C0.562,7.607,8.253,0,17.753,0H325.738 M325.738,6.792H17.753
	c-5.708,0-10.322,4.584-10.322,10.223V532.42c0,5.646,4.615,10.199,10.322,10.199h307.985c5.709,0,10.323-4.553,10.323-10.199
	V17.015C336.061,11.377,331.447,6.792,325.738,6.792z"/>
<path d="M165.692,105.28c0,0-0.208,1.984-0.661,3.146c-0.446,1.076-1.608,1.8-1.531,2.522c0.077,0.708,0.831,1.562,2,2.153
	c1.146,0.6,1.607,1.062,2.784,1.362c1.092,0.27,2.477,1.069,2.869,0.154c0.393-0.931-0.199-2.062-0.861-3.146
	c-1.154-1.892-1.738-2.354-3.438-4.954C166.492,105.957,166.208,105.356,165.692,105.28"/>
<path d="M157.069,309.693c0.115-0.339,2.838,1.385,4.253,2.216c2.977,1.784,4.315,2.845,6.946,4.814
	c2.085,1.585,3.092,2.4,5.185,4.2c2.568,2.215,3.953,4.107,4.646,3.677c1-1.2-1.638-4.708-3.97-6.614
	c-2.268-1.878-4.614-3.4-6.422-4.585c-2.331-1.555-2.539-1.908-6.023-4.247c-3.746-2.507-6.976-5.66-6.976-5.66l-3.639-2.861
	l-5.699-4.808l-6.338-5.838l-4.784-5.331c0,0-3.723-4.553-4.315-5.431c-0.6-0.869-2.354-3.685-3.799-6.068
	c-1.293-2.139-3.8-5.461-4.031-5.746c-1.354-1.639-4.446-0.977-8.039-3.092c-4.361-2.577-5.415-4.931-5.415-4.931
	s-0.162-0.345-0.331-0.53c-0.162-0.193-0.492-0.431-0.492-0.431l-2.285-1.592l-1.308-0.862c0,0-0.992-0.823-2.238-1.354
	c-1.254-0.554-4.046-2.177-4.046-2.177l-4.992-3.184c0,0-1.954-1.569-2.6-2.092c-0.661-0.5-1.892-1.215-1.892-1.215
	s-0.785-0.393-1.023-0.408c-0.238-0.016-1.276-0.108-1.276-0.108s-0.962-0.254-1.939,0.893c-0.977,1.154-0.738,0.538,0.854,7.03
	c0.63,2.553,0.569,11.561,1.246,14.306c0.861,3.523,3.338,8.077,3.592,8.615c0.247,0.531,0.423,2.5,0.423,2.5
	s-0.107,1.593,0.062,2.601c0.754,4.653,7.561,1.591,9.062,7.976c1.477,6.3-0.885,12.584-0.885,12.584s-1.462,3.124-3.531,3.615
	c-2.061,0.478-5.261-4.091-7.576-7.791c-2.284-3.639-4.153-8.408-4.753-9.923c-0.6-1.516-0.916-1.847-1.608-2.946
	c-1.023-1.639-1.846-1.338-2.992-3.923c-1.154-2.584-0.131-3.623-0.646-5.876c-0.3-1.246-0.569-1.385-0.961-3.17
	c-0.377-1.776-0.885-7.43-0.885-7.43l-0.723-5.261c0,0-0.254-2.4-0.584-3.908c-1.146-5.261-1.546-10.353-1.546-10.353l-0.215-2.092
	l-0.077-2.161c0,0-0.069-1.039,0.185-2.108c0.254-1.068,0.77-1.953,0.77-1.953s1.062-1.777,1.246-2.223
	c0.177-0.423,2.346-2.946,2.346-2.946s1.138-0.946,2.992-2.077c1.862-1.131,3.531-1.054,3.531-1.054s0.492-0.046,3.785,0.362
	c3.292,0.407,10.061,2.207,11.769,2.646c1.684,0.455,3.7,1.162,5.007,1.892c3.761,2.046,4.9,1.178,1.908-1.168
	c-2.016-1.577-2.584-2.285-4.208-3.761c-1.37-1.262-2.446-2.101-3.469-3.262c-1.023-1.185-3.938-5.484-3.938-5.484l-1.823-2.692
	c0,0-0.977-1.107-1.139-1.185c-0.153-0.092-0.646-0.469-0.646-0.469s-1.207,0.061-2.454-0.177c-1.261-0.254-1.846,1.516-1.846,1.516
	s-2.708,5.053-5.461,8.146c-4.461,5.022-7.661,8.438-9.299,11.114c-2.3,3.708-1.792,7.77-2.977,9.646
	c-0.692,1.1-1.069,1.262-1.446,2.223c-1.154,2.916,3.038,4.515,2.077,7.745c-1.531,5.124-13.53,10.192-15.123,9.346
	c-1.654-0.869-0.3-7.799,0.254-10.038c0.569-2.253,2.253-5.576,2.408-5.745c0.146-0.162,0.554-0.947,0.676-1.608
	c0.131-0.661,0.177-2.161,0.254-2.992c0.077-0.839,0.423-2.161,0.423-2.161s0.046-0.285,1.107-2.584
	c1.069-2.315,4.977-7.7,7.777-12.838c1.846-3.354,2.615-5.384,4.461-8.746c1.7-3.084,4.615-7.792,4.615-7.792s1.23-2.4,1.807-3.292
	c0.585-0.916,1.815-2.646,2.969-4.354c1.162-1.7,1.446-2.977,2.961-4.377c1.254-1.169,2.108-1.792,3.746-2.315
	c2.438-0.808,4.108-0.376,6.6,0.316c2.584,0.707,4.361,1.892,6.054,3.292c1.684,1.416,2.938,2.977,2.938,2.977l0.823,1.215
	l0.507,0.3l1.57,1.008l3.592,2.376c0,0,8.523,5.8,9,6.115c0.454,0.3,1.984,1.554,2.284,1.654c0.316,0.092,2.585-2.37,7.039-5.438
	c5.153-3.577,6.976-3.308,8.685-4.238c1.684-0.931,2.376-1.7,3.7-3.023c2-2,2.015-3.069,4.284-5.861
	c2.285-2.784,4.423-4.346,4.423-4.346s0.315-0.315,4.385-4.915c4.061-4.584,5.861-8.054,5.861-8.054l2.231-4.469
	c0,0,3.23-6.945,4.269-9.692c1.046-2.753,1.046-3.669,1.046-3.669s0.153-0.723-0.631-2.123c-0.808-1.393-1.639-0.762-3.185-0.446
	c-2.961,0.631-4.761-0.139-7.753-0.661c-2.738-0.455-4.169-1.277-6.915-1.731c-2.784-0.469-4.407-0.93-7.2-0.661
	c-0.423,0.046-1.276,0.223-1.685,0.361c-1.577,0.523-2.015,0.646-3.184,1.323c-1.354,0.631-2.246,0.831-3.746,0.869
	c-1.039,0.031-1.669,0.062-2.63-0.315c-0.662-0.254-1.039-0.446-1.562-0.915c-0.315-0.285-0.484-0.47-0.723-0.839
	c-0.03-0.292-0.123-0.277,0.162-0.753c0.277-0.485,0.623-0.57,0.623-0.57l1.277-0.315c0,0,1.8-0.469,1.969-0.516
	c0.162-0.046,1.877-0.6,2.63-0.838c0.762-0.238,1.593-0.677,1.593-0.677s0.461-0.738,0.284-1.161
	c-0.223-0.478-1.246-0.523-1.246-0.523s-1.431,0.523-1.592,0.569c-0.154,0.031-2.439,0.753-2.439,0.753s-1.792,0.393-3.184,0.723
	c-1.4,0.315-3.4,0.477-3.4,0.477l-0.6-0.162c0,0-0.677-0.454-0.784-0.93c-0.1-0.423-0.162-0.739-0.239-1.223
	c-0.3-1.77-0.661-2.839-0.238-4.584c0.162-0.731,0.331-1.139,0.646-1.815c0.269-0.562,0.446-0.885,0.792-1.416l1.101-1.8
	l2.077-3.069c0.715-0.723,1.185-1.084,2.084-1.592c1.323-0.738,2.092-0.946,3.746-1.131c1.623-0.177,1.846-0.161,4.146-0.677
	c2.315-0.523,3.954-1.438,3.954-1.438s5.531-2.031,8.899-3.685c3.53-1.73,5.069-3.577,8.723-5.007
	c1.546-0.6,2.446-0.885,4.038-1.292c0.2-0.131,0.3-0.254,0.362-0.493c0.154-0.577-0.738-0.846-1.354-0.785
	c-0.554,0.046-1.815,0.631-2.1,0c-0.216-0.484,1.153-0.769,1.153-0.769s0.646-0.3,0.662-0.661c0.016-0.554-0.93-0.193-1.354-0.239
	c-2.146-0.239-2.315-0.631-3.8-0.992c-1.746-0.438-2.691-0.977-4.507-1.054c-1.6-0.062-3.1,0.277-4.107,0.515
	c-0.992,0.254-1.023-0.723-0.631-0.915c2.808-1.308,2.869-1.416,4.854-1.508c1.084-0.046,2.6,0.185,2.769,0.269
	c0.162,0.092,2.331-0.015,2.885-0.584c0.569-0.554-1.777-0.523-2.885-0.962c-1.022-0.407-2.584-0.522-2.553-1.2
	c0.054-0.677,0.808-0.3,1.346-0.438c0.676-0.162,1.069-0.146,1.761-0.238c1.247-0.169,1.354-0.285,3.2-0.438
	c1.823-0.177,4.454,0.6,4.454,0.6s2.761,1.224,4.115,1.87c1.354,0.63,2.992,0.961,2.992,0.961s1.922,0.269,3.385-0.646
	c1.484-0.908,0.646-1.508,0.13-2.346c-0.508-0.785-1.153-1.923-0.208-4.077c0.839-1.877,1.277-4.069,1.516-4.269
	c0.301-0.238,1.462,1.446,2.215,2.139c2.7,2.523,6.27,3.769,9.639,9.045c0.262,0.423,1.508-0.254,5.415,0.346
	s7.323,4.784,8.185,5.785c0.893,1.007,2.046,0.953,2.046,0.953l1.877,0.254l6.814,0.115c0,0,3.093-0.554,4.877,0.124
	c1.246,0.469,5.4,3.246,3.508,4.299c-1.323,0.739-2.569-0.884-3.769-0.961c-1.416-0.092-2.031,0.177-3.293,0.492
	c-2.646,0.662-8.322,2.377-6.261,3.069c0.153,0.061,0.446,0.107,0.446,0.107l1.015,0.177c0,0,2.493,0.569,4,1.161
	c2.276,0.9,3.354,1.893,5.446,3.123c1.199,0.692,1.723,1.385,3.03,1.777c1.2,0.347,1.969,0,3.2,0.208
	c1.615,0.285,2.522,0.616,4,1.323c2.199,1.054,2.999,2.331,4.969,3.746c0.984,0.715,1.814,0.823,2.553,1.785
	c0.17,0.215,0.309,0.331,0.386,0.584c0.262,0.877-1.447,0.361-2.354,0.216c-1-0.169-1.415-0.662-2.338-1.085
	c-1.369-0.646-2.016-1.354-3.508-1.623c-1.077-0.208-1.723-0.046-2.83,0.015c-1.077,0.046-1.646,0.208-2.724,0.223
	c-1.83,0.031-2.861-0.13-4.661-0.508c-2.016-0.422-3.016-1.207-5.015-1.623c-2.262-0.469-6.261-2.407-5.877-0.469
	c0.2,0.931,2.323,1.715,2.323,1.715s1.461,0.785,2.846,1.4c1.385,0.6,2.153,1.516,2.153,1.516l0.954,0.708
	c0,0,0.984,1.354,2.277,2.884c1.261,1.508,3.507,1.461,3.507,1.461s1.354,0,4.276,0.6c2.908,0.6,5.908,2.399,5.908,2.399
	s2.261,1.554,3.584,3.116c1.308,1.562,0.554,2.346,0.385,2.507c-0.153,0.169-0.093,0.092-0.277,0.169
	c-0.153,0.077-1.784-1.969-1.784-1.969l-1.169-0.992c0,0-1.139-0.8-2.615-1.277c-1.477-0.469-1.97-0.154-1.97-0.154
	s-3.138,0.877-5.876,0.8c-2.708-0.077-4.123-1.162-4.123-1.162l-1.723-1.154c0,0-2.585-2.423-2.678-1.276
	c-0.062,0.777,1.139,1.638,1.139,1.638s0.831,0.838,1.385,1.37c1.046,1.03,1.478,1.546,2.677,2.614
	c1.2,1.078,1.938,1.078,1.938,1.078s0.646,0.153,0.892,0.2c0.247,0.046,0.678,0.162,0.678,0.162s0.4,0.154,2.276,0.916
	c1.861,0.753,3.877,2.392,3.877,2.392s0.185,0.154,0.462,0.208c0.276,0.031,0.83,0.308,0.984,0.354
	c0.169,0.038,0.646,0.038,1.723,0.192c1.093,0.162,0.677,0.854,0.677,0.854l-0.185,0.261l-0.893,0.6c0,0-1.153,0.331-1.938,0.369
	c-0.8,0.046-1.938-0.399-1.938-0.399l-2.416-0.908c0,0-2.445-0.646-2.969-0.731c-0.523-0.077-2.707-0.515-3.076-0.592
	c-0.354-0.084-1.446-0.477-1.738-0.646c-0.293-0.161-0.831-0.269-2.154-0.915c-1.308-0.646-1.831-1.392-3.461-1.908
	c-1.646-0.523-2.646-0.63-3.877,0.224c-2.123,1.461,3.199,1.7,5.846,3.022c3.908,1.923,6.107,3.338,7.03,5.416
	c0.938,2.084,1.877,2.838,1.877,2.838s2.754,1.385,3.984,2.838c0.677,0.784,0.77,1.431,1.446,2.215
	c1.507,1.769,4.431,1.669,5.016,3.169c0.554,1.399-2.37,0.769-3.893,0.63c-2.738-0.269-3.4-2.777-5.954-3.784
	c-1.445-0.577-2.368-0.577-3.846-1.084c-2.692-0.885-3.953-2.046-6.646-2.884c-1.631-0.5-4.585-2.646-4.215-0.993
	c0.061,0.4,0.307,0.708,0.414,0.947c0.139,0.238,0.816,1.115,0.816,1.115s0.907,1.2,1.322,1.516
	c0.385,0.331,2.123,1.638,4.615,2.992c2.462,1.354,4.615,3.954,4.615,3.954s0.739,1.062,1.093,1.801
	c0.369,0.831,0.107,1.084,0.692,2.238c0.538,1.146,0.8,1.369,1.538,2.077c1.815,1.746,3.723,1.399,6.03,2.346
	c0.631,0.269,0.677,0.361,1.354,1.084c0.677,0.715-0.124,1.022-0.124,1.022s-2.568,0.662-4.23,0.523
	c-2.153-0.169-3.123-0.831-5.215-1.877c-2.123-1.038-3.23-2.907-3.445-3.022c-0.185-0.124-0.708-0.677-1.108-0.962
	c-0.399-0.284-1.431-0.5-2.354-0.754c-0.938-0.253-1.462-0.3-2.399-0.554c-1.277-0.362-2.601-0.923-3.201-1.115
	c-0.6-0.208-1.969-0.454-2.969,0.138c-2,1.185,3.107,1.984,4.692,3.685c0.815,0.854,1.153,1.454,1.923,2.354
	c0.585,0.692,0.831,1.177,1.555,1.715c0.491,0.361,1.399,0.753,1.399,0.753s1.23,0.57,3.03,1.562s3.907,3.799,3.907,3.799
	l1.277,1.954l0.754,1.115l0.2,0.516l0.276,0.63c0,0,0.924,1.2,1.6,1.592c0.678,0.408,0.554,0.762,0.554,0.762
	s-0.076,0.247-0.554,0.516c-0.461,0.285-0.723,0.046-1.399-0.154c-0.677-0.192-1.123-0.838-1.707-1.308
	c-0.616-0.492-1.262-1.684-2.354-2.361c-0.969-0.584-2.23-0.792-2.723-0.946c-0.477-0.176-1.677-0.93-2.154-1.138
	c-0.461-0.185-1.707-0.754-1.707-0.754s-2.399-1.338-3.724-1.699c-1.322-0.37-0.477,0.438-0.477,0.438s1.186,1.846,2.323,2.584
	c1.478,0.977,3.554,1.839,2.877,2.63c-0.462,0.516-1.077,0.331-1.754,0.254c-1.107-0.13-2.446-1.454-2.446-1.454
	s-0.553-0.361-3.03-1.146c-2.462-0.808-1.554,0.546-0.985,1.277c0.555,0.708,1.309,1.115,1.309,1.115l1.677,0.754l0.769,0.238
	c0,0,0.678,0.123,2.908,0.646c2.23,0.508,3.462,1.593,3.462,1.593s1.199,1.115,2.86,2.346c1.692,1.246,3.354,1.562,4.277,1.685
	c0.923,0.115,0.892,0.761,0.892,0.761s0.123,0.593,0.063,0.785c-0.031,0.2-0.231,0.362-0.432,0.362
	c-0.185,0-0.276,0.077-0.522,0.208c-0.246,0.123-1.2,0.277-1.2,0.277s-2.492-0.077-4.461-0.562
	c-1.938-0.477-3.662-1.831-3.847-1.907c-0.153-0.077-1.969-1.084-3.23-1.484c-1.215-0.408-3.169-0.231-3.385-0.154
	c-0.199,0.077-0.877,0.185-2.03,0.523c-1.169,0.308,0.292,0.753,0.292,0.753l0.831,0.077l1.984,0.154c0,0,2.062,0.238,3.8,0.884
	c1.738,0.631,2.877,1.908,4.031,3.077c1.153,1.146,2.431,1.9,2.431,1.9l0.923,0.6l0.477,0.361l0.123,0.315
	c0,0-0.046,0.162-0.123,0.361c-0.077,0.208-0.369,0.361-0.369,0.361s-0.431-0.077-0.615-0.077c-0.216,0-1.523-0.692-2.492-1.115
	c-1-0.438-1.508-0.854-2.585-1.116c-0.923-0.223-2.153-0.323-2.431-0.238c-0.276,0.077-2.308,0.362-3.877,0.469
	c-1.568,0.123-2.923,0.146-4.769-0.077c-2.63-0.315-6.122-2.393-6.569-1.815c-0.907,1.215,1.862,1.561,3.216,2.338
	c1.846,1.069,5.046,2.031,5.046,2.031s2.338,0.515,3.707,1.161c3,1.393,3.908,3.454,6.323,5.623c1.323,1.215,2.4,1.738,4.184,2
	c1.539,0.224,1.508,0.039,3.938-0.438c2.446-0.484,3.924-2.8,4.631-1.953c0.139,0.162,0.077,0.315,0.046,0.554
	c-0.046,0.238-0.245,0.677-0.245,0.677s-0.277,0.392-0.708,0.838c-0.446,0.438-2.123,1.354-3,1.715
	c-0.877,0.362-3.03,0.962-5.738,0.877c-2.708-0.077-6.522-2.154-6.522-2.154l-2.738-1.154c0,0-1.262-0.592-2.123-0.915
	c-2.277-0.862-3.723-0.785-6.062-1.4c-1.446-0.392-2.399-0.8-3.707-1.069c-1.323-0.284-0.569,0.239-0.446,0.423
	c0.615,0.838,1.445,1.107,2.492,1.592c1.385,0.677,2.354,0.539,3.769,1.139c1.585,0.639,2.97,1.539,3.847,2.108
	c0.861,0.554,1.508,1.185,2.354,2.062l2.907,2.492c0,0,0.677,0.554,0.754,0.785c0.076,0.239,0.399,0.838,0.246,1.8
	c-0.17,0.962-0.954,0.285-0.954,0.285l-0.769-0.492l-0.77-0.708l-1.216-1.007c0,0-1.045-0.947-2.846-1.862
	c-1.784-0.931-3.938-1.162-3.938-1.162s-1.908-0.284-1.846,0.316c0.092,0.592,0.521,0.646,2.029,1.038
	c1.523,0.393,2.523,1.162,2.523,1.162s1.555,1.154,2.677,2.43c1.107,1.278,1.431,2.516,1.431,2.516s0.569,1.046,2,2.43
	c1.431,1.4,2.185,0.915,2.107,1.593c-0.077,0.677-0.708,0.8-0.708,0.8s-0.369-0.032-0.522-0.032c-0.154,0-0.523-0.207-0.923-0.361
	c-0.4-0.154-1.908-1.2-1.908-1.2s-2.368-1.922-2.63-2.107c-0.293-0.208-2.523-1.877-2.523-1.877s-1.323-0.846-2.262-1.323
	c-0.969-0.469-2.246-0.961-2.969-1.2c-0.707-0.231-2.031-0.308-2.031-0.308s-1.584-0.238-2.553-0.6
	c-1.523-0.585-3.293-2.208-3.492-2.285c-0.216-0.084-1.631-0.569-1.908-0.523c-0.276,0.031-0.923,2.708-1.076,4.254
	c-0.646,6.477,1.076,10.776,3.753,16.715c3.861,8.63,14.614,19.36,14.614,19.36s2.708,1.531,3.847,2.446
	c3.215,2.516,8.538,6.077,13.261,10.784c4.03,4.038,9.385,11.199,9.385,11.199s3.106,4.323,4.553,7.384
	c1.754,3.754,3.17,9.478,3.17,9.478s0.123,0.984,0.215,1.2c0.123,0.199,0.399,0.461,0.585,0.461l1.876,0.062
	c0.185,0,2.323-0.153,3.739-0.508c1.4-0.354,4.723-1.877,6.938-3.03c2.184-1.17,4.815-3.385,4.815-3.385s0.507-0.431,3.062-3.292
	c2.585-2.861,4.246-7.153,4.876-8.776c0.616-1.607,1.124-4.707,1.493-10c0.399-5.314-0.323-10.915-0.323-10.915
	s-0.969-7.815-1.555-10.477c-0.584-2.645-1.999-6.984-1.999-6.984s-0.984-3.86-1.292-6.298c-0.324-2.439-0.369-6.408-0.369-6.408
	s0-2.43,0.783-6.922c0.816-4.469,3.555-8.977,3.555-8.977s0.769-1.516,3.724-5.054c3.03-3.623,3.998-4.192,6.983-6.354
	c2.37-1.7,5.43-4.438,6.432-3.792c1.107,0.692-1.079,2.077-1.817,2.8c-1.861,1.846-5.337,5.107-8.153,10.022
	c-2.461,4.254-3.384,7.069-3.998,9.846c-0.617,2.77-0.354,5.815-0.277,6.854c0.093,1.039,0.661,0.662,0.661,0.662
	s5.984-4.808,9.23-8.446c3.523-3.938,6.661-10.946,7.891-11.007c0.831-0.054,1.216,1.823,1.016,2.692
	c-0.768,3.638-1.029,4.092-2.216,6.507c-1.353,2.769-2.613,4-4.491,6.554c-1.97,2.677-2.938,3.7-4.522,7.245
	c-2.291,5.1-0.954,9.039-0.954,9.039s0.277,2.392,1.353,2.361c1.802-0.062,5.754-5.054,8.339-9.139
	c1.909-2.992,2.6-6.453,3.847-8.269c1.138-1.607,2.139,2.616,1.646,5.108c-0.57,2.961-2.031,5.623-5.246,9.815
	c-3.138,4.091-3.046,7.984-3.046,7.984s-0.323,1.777-0.585,5.654c-0.245,3.86,0.862,9.723,0.862,9.723s0.983,4.899,1.185,8.614
	c0.185,3.738,0.061,12.223-3.432,18.83c-1.384,2.646-4.354,6.308-4.354,6.308s-2.292,2.354-4.169,3.722
	c-1.878,1.37-6.385,3.509-6.385,3.509s-3.122,1.076-3.553,1.169c-0.462,0.123-0.738,0.507-0.738,0.507s0.276,0.601,0.399,0.847
	c0.107,0.247,0.984,2.399,0.984,2.399s0.938,3.046,1.292,5.462c0.354,2.415-0.062,2.969-0.399,4.815
	c-0.339,1.77-1.107,0.953-1.308,4.43c-0.169,3.078,1.216,4.615,0.969,8.062c-0.106,1.508-1.815-1.907-2.646-3.353
	c-1.754-3.14-1.339-7.97-1.369-9.169c-0.047-1.2-0.14-2.524-0.585-4.031c-0.538-1.97-1.354-3.492-2.261-4.692
	c-0.924-1.185-1.893-1.861-2.216-1.738c-0.323,0.108-0.354,0.738-0.354,1.046c-0.016,0.339,0.63,1.477,0.769,1.724
	c0.169,0.23,1.323,2.338,1.323,2.338s0.507,1.631,0.707,4.801c0.201,3.138-0.769,7.045-0.769,7.045s-1.262,4.385-2.584,6.97
	c-1.479,2.845-4.754,6.722-4.754,6.722s-2.354,2.154-4.124,5.692c-1.737,3.538-0.245,5.077-0.892,5.538
	c-0.677,0.446-2.062-2.046-2.431-3.723c-0.354-1.569-0.185-2.308,0.462-4.062c0.6-1.692,2.016-4.139,2.016-4.139l2.107-3.584
	c0,0,2.554-4.861,3.354-8.4c0.8-3.507-0.123-7.414-0.123-7.414s-0.107-1.292-0.984-1.231c-0.893,0.046-1.507,0.816-1.877,1.754
	c-0.724,1.938,0.308,1.585-0.801,4.815c-0.86,2.538-1.107,2.2-1.569,3.707c-0.554,1.8-0.846,3.646-0.814,4.77
	c0.046,1.107-0.569,0.646-0.569,0.646s-1.077-2.001-1.077-4.492c0-1.354,0.062-2.123,0.216-3.478
	c0.246-2.169,1.138-5.491,1.138-5.491s0.954-3.277,0.754-6.262c-0.229-3.015-1.276-3.568-1.276-3.568s-0.276-0.4-1.446-0.339
	c-1.153,0.093-1.092,2.169-1.092,2.169s-0.354,2.97-0.815,4.815c-1.277,5.092-2.984,7.769-6,12.061
	c-2.738,3.877-6.445,7.293-8.308,8.893c-1.846,1.631-7.538,5.769-7.538,5.769l-6.676,4.445c0,0-2.646,2.585-3.847,5.662
	c-1.23,3.062-1.169,5.461-0.462,8.276c0.709,2.831,1.724,4.123,2.262,4.922c0.523,0.771,1.555,2.154,1.893,3.786
	c0.215,0.999,0.062,1.599,0.123,2.614c0.063,0.893,0.185,1.385,0.154,2.293c-0.031,1.415,0.23,2.414-0.585,3.568
	c-0.585,0.877-2.185,1.646-2.185,1.646s-1.814,0.799-2.893,1.461c-11.354,6.846-15.383,11.292-21.783,18.922
	c-2.031,2.446-0.538,2.293-2.707,5.185c-1.316,1.724-4.354,1.724-5.454,3.784c-1.53,2.815,3.446,5.585-2.3,8.062
	c-7.407,3.2-20.153,0.907-20.407-0.092c-0.692-2.739,2.492-5.907,3.623-7.169c5.184-5.662,9.815-5.801,11.515-10.492
	c0.369-1,0.223-1.861,4.353-4.923c2.9-2.139,14.484-10.861,19.546-16.676c1.738-2,3.23-3.322,3.984-5.477
	c0.77-2.186-0.754-3.554-0.754-3.554l-2.077-3.385l-3.984-7.123c0,0-1.676-3.784-2.584-5.969c-0.938-2.185-2.677-8.062-2.677-8.062
	s-1.276-5.291-1.493-8.738c-0.384-6.184,0.462-9.783,2.094-15.783c2.107-7.784,6.891-11.046,8.799-18.769
	c0.555-2.245,0.677-6.092-0.462-5.907c-1.077,0.2-1.169,3.23-1.999,5.262c-3.077,7.661-7.139,11.015-9.369,18.952
	c-1.492,5.369-2.107,8.555-2.093,14.123c0.017,3.184-0.107,2.6,0.708,8.123c0.323,2.03,0.815,3.122,1.416,5.106
	c0.43,1.416,1.584,4.062,1.584,4.062s1.585,3.492,2.139,5.938c0.168,0.847,0.385,1.322,0.322,2.169
	c-0.107,1.461,0.154,1.77-0.553,3.092c-0.877,1.647-0.34,2.616-3.139,3.23c-2.492,0.523-7.584-1.138-7.584-1.138
	s-20.93-6.338-34.291-4.508c-2.646,0.354-4.069,1.323-6.73,1.277c-2.423-0.031-3.654-1.924-6.077-1.2
	c-0.492,0.139-0.646,0.492-1.092,0.785c-3.538,2.461-0.831,6.553-10.153,4.43c-5.723-1.308-12.653-4.814-11.454-7.015
	c1.607-2.923,3.761-3.4,8.285-5.262c4.838-1.969,12.099-1.415,13.53-1.507c1.746-0.139,4.254-1.354,7.376-1.431
	c5.4-0.093,6.361,0.554,6.361,0.554l9.168,0.814l17.546,0.217c0,0,3.138-0.231,4.384-0.478c1.262-0.247,2.254-2.723,2.945-3.908
	c0.678-1.168-0.03-2.892-0.03-2.892l-0.522-0.815l-1.67-2.692l-3.084-5.2l-3.423-6.83c0,0-2.238-4.753-3.43-7.876
	c-1.185-3.108-1.877-4.862-2.662-8.076c-0.823-3.309-1.331-5.985-1.438-8.646C156.254,315.785,156,312.816,157.069,309.693"/>
<path fill="#FFFFFF" d="M270.971,303.355c3.691-4.738,4.047-9.139,4.261-15.338c0.169-4.507-1.537-11.453-1.537-11.453l-0.232-0.508
	c0,0-0.646-0.839-1.044,0.269c0.061,0.978,0.185,1.762,0.185,1.762l0.214,8.946c0,0-0.277,4.507-1.814,9.153
	c-2.585,7.846-9.446,11.338-10.445,14.169C258.848,315.046,266.556,309.062,270.971,303.355"/>
<path fill="#FFFFFF" d="M232.266,317.832c0,0-1.508,0.431-1.539,1.922c-0.03,1.493,0.369,2.785,0.323,4.585
	c-0.03,2.293-2.138,4.938-0.784,5.8c2.323,1.477,4.322-8.923,3.615-10.461C233.173,318.138,232.481,317.815,232.266,317.832"/>
<path fill="#FFFFFF" d="M206.206,389.935c0,0-0.432-0.23-1.277,0.093c-0.83,0.322-0.77,1.185-0.77,1.185s-0.169,0.923,0.508,1.016
	c0.678,0.123,1.785-1.539,1.785-1.724S206.206,389.935,206.206,389.935"/>
<path fill="#FFFFFF" d="M181.684,407.365c0,0-0.247,0.247-0.031,0.415c0.23,0.201,0.554-0.046,0.554-0.046s4.23-3.307,6.738-5.63
	c2.646-2.492,6.462-6.784,6.462-6.784s0.261-0.323-0.031-0.6c-0.309-0.277-1.031,0.153-1.631,0.43
	c-0.523,0.277-0.831,0.569-1.23,0.893c-0.369,0.339-1.631,1.631-1.631,1.631l-3.262,3.169l-2.062,1.938l-1.999,1.907l-0.831,0.955
	c0,0-0.216,0.369-0.276,0.461c-0.063,0.107-0.277,0.384-0.277,0.384s-0.309,0.293-0.309,0.385c0,0.077-0.092,0.154-0.092,0.247
	C181.745,407.242,181.684,407.365,181.684,407.365"/>
<path fill="#FFFFFF" d="M174.369,412.166c0,0-0.454-0.369-1.169-0.016c-0.723,0.385-1.492,1.368-1.555,1.477
	c-0.068,0.139-0.461,0.662-0.191,1.123c0.269,0.462,1.184-0.216,1.322-0.246c0.131,0,1.324-0.953,1.324-0.953
	S174.792,413.119,174.369,412.166"/>
<path fill="#FFFFFF" d="M160.362,426.349c0,0-0.6-1.107-1.385-0.646c-0.785,0.462-1.215,0.616-1.938,1.615
	c-0.123,0.169-0.9,1.17-1.039,1.431c-0.138,0.247-0.915,1.724,0.662,1.831c2.708,0.153,0.93-1.584,1.861-2.262
	c0.754-0.522,2.169-0.384,2.185-0.938C160.723,426.827,160.362,426.349,160.362,426.349"/>
<path fill="#FFFFFF" d="M112.364,369.674c0,0-1.623,0.401-1.746,0.955c-0.131,0.584,0.946,1.138,1.115,1.168
	c0.192,0.031,0.554,0.462,1.638-0.277c1.069-0.722,1.023-1.338,1.023-1.338S115.025,369.444,112.364,369.674"/>
<path fill="#FFFFFF" d="M138.763,368.813c0,0-0.016-0.6-1.162-0.522c-1.169,0.062-1.415,0.276-1.446,0.461
	c-0.038,0.169,0.062,0.462,1.1,0.554C138.309,369.368,138.732,369.305,138.763,368.813"/>
<path fill="#FFFFFF" d="M163.723,369.536c-2.1-0.016-1.438,0.047-2.73,0.108c-2.346,0.123-3.623,0.03-5.938-0.124
	c-3.247-0.215-8.269-1.015-8.269-1.015s-0.631-0.153-0.885,0.262c-0.231,0.384,0.615,1.276,1.369,1.508
	c4.115,1.277,4.338,1.062,7.138,1.107c1.562,0.016,2.431-0.139,3.985-0.231c1.969-0.152,2.884,0.154,5.03-0.415
	C163.984,370.597,164.523,369.552,163.723,369.536"/>
<path fill="#FFFFFF" d="M177.784,365.367c0,0-0.423-0.491-1.293-0.061c-0.86,0.415-1.384,1.353-1.384,1.353
	s-0.407,0.646,0.462,0.555c0.846-0.123,1.607-0.492,1.807-0.615C177.599,366.474,178.23,365.89,177.784,365.367"/>
<path fill="#FFFFFF" d="M165.546,196.598c0,0,5.938-5.561,10.191-12.914c2.522-4.385,3.622-14.592,1.454-12.054
	c-0.978,1.162-2.162,6.454-4.039,10.376c-2.677,5.584-8.392,13.492-8.392,13.492S163.531,198.129,165.546,196.598"/>
<path fill="#FFFFFF" d="M141.809,210.729c0,0-0.631,0.492-0.346,1.277c0.3,0.8,1.508,0.2,1.508,0.2s2.746-1.038,5.623-1.146
	c2.884-0.123,6.884,0.738,6.884,0.738s1.907,0.523,2.223,0.646c0.315,0.131,1.354,0.631,1.531,0.692
	c0.154,0.069,1.146,0.554,1.7,0.054c0.554-0.508-3.469-4.161-7.576-4.715c-6.839-0.931-11.33,2.015-11.33,2.015L141.809,210.729"/>
<path fill="#FFFFFF" d="M113.641,234.812c0.484,0.416,2.769-3.938,4.676-6.692c1.4-2.015,3.955-5.384,3.955-5.384
	s1.153-1.546-0.8-0.684c-0.792,0.354-2.961,2.007-4.492,5.046C115.687,229.682,113.133,234.404,113.641,234.812"/>
<path fill="#FFFFFF" d="M97.842,215.897c0,0-0.493,1.685,1.477,3.792c1.984,2.116,2.492,3.861,3.754,2.6
	c0.346-0.346-1.231-3.192-2.031-3.984c-0.823-0.785-1.408-1.431-1.408-1.431l-0.515-0.423l-0.662-0.369l-0.377-0.153
	C98.08,215.929,97.98,215.836,97.842,215.897"/>
<path fill="#FFFFFF" d="M91.441,199.744c0,0-2.138,0.4-2.661,1.438c-0.531,1.039,2.461,0.408,2.461,0.408s1.984,0.107,2.031-0.646
	C93.318,200.175,93.019,200.098,91.441,199.744"/>
<path fill="#FFFFFF" d="M57.466,256.049c-1.092-0.315-1.276,1.832-1.423,2.523c-0.123,0.692,0.493,2.077,0.746,2.077
	c0.246-0.016,1.115-1.369,1.161-2.03C57.997,257.942,58.428,256.35,57.466,256.049"/>
<path fill="#FFFFFF" d="M92.75,297.986c0,0-1.954-1.547-2.254-0.931c-0.292,0.615,1.608,3.33,1.608,3.33s0.584,0.893,1.484,0.492
	c0.884-0.43,0.569-1.415,0.569-1.415S93.557,298.201,92.75,297.986"/>
<path fill="#FFFFFF" d="M78.02,252.634c0,0-0.5-0.13-0.677,0.469c-0.185,0.6-0.169,1.577-0.3,2.761
	c-0.107,0.924,0.239,3.385,0.239,3.385s0.192,1.954,0.584,3.116c0.423,1.276,1.546,3.092,1.546,3.092s0.423,0.931,0.946,0.885
	c0.515-0.054,0.392-0.662,0.392-0.662s-1.638-6.491-1.684-7.153c-0.193-2.161-0.193-4.792-0.193-4.792l-0.015-0.393
	C78.858,253.342,78.842,252.649,78.02,252.634"/>
<path fill="#FFFFFF" d="M80.573,232.828c0,0-0.9-0.169-1.73,1.561c-0.838,1.754-0.661,2.462-0.585,2.539
	c0.062,0.077,0.723,0.062,1.785-1.561c1.054-1.608,0.815-2.224,0.815-2.224S80.796,232.828,80.573,232.828"/>
<path fill="#FFFFFF" d="M105.326,250.773c0,0,1.084,1.622-0.992,1.246c-2.084-0.377-6.461-3.831-8.246-4.761
	c-1.762-0.931-4.662-1.224-3.446-2.315c0.223-0.185,0.284-0.363,0.63-0.377c0.362-0.016,1.562,0.453,1.638,0.507
	c0.062,0.03,3.146,1.307,3.261,1.338c0.108,0.046,1.839,0.785,3.069,1.507c1.231,0.73,3.23,2.13,3.23,2.13L105.326,250.773"/>
<path fill="#FFFFFF" d="M163.023,300.448c0.569,1.784-6.569-3.77-10.392-6.716c-10.13-7.8-22.53-23.791-20.984-25.206
	c1.277-1.162,6.361,6.161,13.815,14.229C153.431,291.355,162.692,299.386,163.023,300.448"/>
<path fill="#FFFFFF" d="M192.821,292.801c-2.215,2.361-2.999,5.385-1.723,7.646c1.246,2.199,1.631-3.216,3.016-4.808
	c1.2-1.393,1.938-1.169,3.907-2.569C201.375,290.709,195.622,289.794,192.821,292.801"/>
<path fill="#FFFFFF" d="M180.145,242.327c-1.523-0.246-1.477,2.069-1.262,3.708c1.016,7.337,4.309,12.991,8.707,18.314
	c2.678,3.246,10.016,9.03,10.861,8.1c0.309-0.331-6.984-5.969-11.63-13.214c-3.292-5.138-5.046-9.484-5.461-13.723
	C181.315,244.973,181.437,242.535,180.145,242.327"/>
<path fill="#FFFFFF" d="M151.731,133.57c-3.308,1.792-9.046,3.37-9.046,3.37s-0.262,0.569,0.477,0.508
	c4.916-0.393,6.792-1.008,9.408-2.162c2.615-1.13,4.515-4.269,4.515-4.269s1.062-1.954-0.907-0.346
	C155.562,131.163,153.546,132.578,151.731,133.57"/>
<path fill="#FFFFFF" d="M191.637,120.964c0,0-1.123-0.247-1.877,0.223c-0.754,0.477-0.539,0.854-0.539,0.854s1.17,0.892,2,1.039
	c0.831,0.123,2.615,0.9,2.555,0.3c-0.078-0.615-1.077-1.715-1.432-2.015C192.022,121.048,191.637,120.964,191.637,120.964"/>
<path fill="#FFFFFF" d="M172.854,155.424c0.191,0.392,3.545-0.523,4.838-1.247c1.008-0.569,1.407-2.477,1.407-2.477
	s0.277-1.846-0.153-1.131C177.03,153.701,172.668,155.023,172.854,155.424"/>
<path fill="#FFFFFF" d="M172.746,146.816c1.354-2.6-3.716,2.7-6.3,4.069c-1.577,0.831-4.146,1.938-4.146,1.938
	s-0.677,0.846,0.269,0.769c0.946-0.062,3.354,0.754,5.308-0.754c0.462-0.369,2.492-3.323,2.492-3.323
	S172.099,148.046,172.746,146.816"/>
<path fill="#FFFFFF" d="M171.961,157.877c0.107,0.423,5.791,0.284,7.215-0.146c1.123-0.308,1.738-2.292,1.738-2.292
	s0.677-1.738,0.092-1.154C178.43,156.916,171.862,157.454,171.961,157.877"/>
<path fill="#FFFFFF" d="M80.665,209.944c0,0-0.861-0.315-1.93,1.292c-1.062,1.6-5.846,8.869-5,9.938
	c1.007,1.261,5.153-6.492,6.416-7.938c1.276-1.469,0.753-2.946,0.753-2.946S80.889,209.959,80.665,209.944"/>
<path fill="#FFFFFF" d="M184.883,341c-0.523,2.415,0.092,7.354,0.924,8.322c2.03,2.446,0.784-3.83,1.076-6.031
	c0.246-2.045,0.492-2.753,1.508-4.938C190.206,334.415,185.946,335.861,184.883,341"/>
<path fill="#FFFFFF" d="M167.422,130.956c0,0-1.576,0.046-2.807,0.723c-1.246,0.677-1.554,1.639-1.554,1.639
	s-0.254,0.692-0.084,1.069c0.361,0.823,2.069-0.423,3.261-0.016c0.961,0.346,1.423,0.631,2.161,1.515
	c0.646,0.77,1.777,1.877,2.485,1.246c0.73-0.615,0.462-2.192,0.462-2.192s-0.839-2.569-1.938-3.292
	C168.299,130.91,167.422,130.956,167.422,130.956"/>
<path fill="#FFFFFF" d="M141.224,149.024c0,0-0.885,0.138-0.677,1.215c0.208,1.054,0.785,0.892,0.785,0.892s1.831-0.785,1.723-1.884
	C142.924,148.139,141.224,149.024,141.224,149.024"/>
<path fill="#FFFFFF" d="M128.432,143.286c0,0-0.961,0.039-1.638,1.23c-0.661,1.185-1.054,2.416-1.054,2.416
	s-0.315,1.554,0.238,2.046c0.562,0.484,1.177-1.007,1.984-1.592c0.484-0.346,0.785-0.5,1.285-0.854c0.685-0.47,1.8,0.13,1.723-1.254
	C130.871,143.885,129.394,143.224,128.432,143.286"/>
<path fill="#FFFFFF" d="M169.768,128.402c0,0-2.176-0.315-2.092,0.523c0.077,0.784,1.178,0.315,1.885,0.631
	c0.692,0.315,1.154,0.438,1.707,0.946c0.408,0.361,0.361,1.069,0.862,1.084c0.692,0.016,0.554-0.269,0.554-0.269
	s-0.631-1.877-1.453-2.407C170.415,128.371,169.768,128.402,169.768,128.402"/>
<path fill="#FFFFFF" d="M194.052,137.178c-0.308,1.185-0.493,1.592-0.493,1.592s-0.614,2.408,1.816,1.523
	c2.431-0.893,1.169-0.516,2.922-1.369c1.724-0.846,1.693-0.377,2.955-0.315c0.43,0.015,0.707,0.03,1.354-0.092
	c0.553-0.124,0.322-0.77-0.908-1.101c-1.322-0.346-2.938-0.269-4.814-0.285C195.776,137.117,194.375,135.994,194.052,137.178"/>
<path fill="#FFFFFF" d="M195.129,128.279c0,0-1.108-0.254-1.877,0.223c-0.754,0.469-0.523,0.846-0.523,0.846s1.154,0.916,2,1.039
	c0.831,0.146,2.615,0.915,2.554,0.3c-0.093-0.6-1.077-1.715-1.431-2.015C195.499,128.371,195.129,128.279,195.129,128.279"/>
<path fill="#FFFFFF" d="M199.407,144.994c0,0-1.186-0.239-2.001,0.215c-0.8,0.446-0.585,0.808-0.585,0.808s1.262,0.847,2.154,0.977
	c0.893,0.123,2.8,0.846,2.723,0.269c-0.076-0.569-1.154-1.623-1.508-1.907C199.836,145.07,199.407,144.994,199.407,144.994"/>
<path fill="#FFFFFF" d="M199.776,151.054c0,0-1.263-0.284-2.124,0.239c-0.861,0.515-0.601,0.931-0.601,0.931
	s1.309,0.992,2.263,1.131c0.938,0.146,2.969,0.977,2.876,0.315c-0.076-0.661-1.215-1.861-1.615-2.184
	C200.206,151.146,199.776,151.054,199.776,151.054"/>
<path fill="#FFFFFF" d="M200.344,156.962c0,0-1.369-0.315-2.293,0.269c-0.938,0.584-0.646,1.054-0.646,1.054
	s1.415,1.107,2.431,1.277c1.031,0.162,3.23,1.107,3.139,0.361c-0.093-0.738-1.324-2.108-1.754-2.469
	C200.821,157.069,200.344,156.962,200.344,156.962"/>
<path fill="#FFFFFF" d="M200.221,164.269c0,0-1.369-0.292-2.293,0.285c-0.938,0.569-0.676,1.038-0.676,1.038
	s1.445,1.107,2.461,1.277c1.016,0.162,3.215,1.108,3.123,0.369c-0.107-0.746-1.323-2.115-1.738-2.477
	C200.667,164.385,200.221,164.269,200.221,164.269"/>
<path fill="#FFFFFF" d="M199.221,178.515c0,0-1.385-0.3-2.308,0.285c-0.923,0.577-0.646,1.039-0.646,1.039s1.415,1.115,2.431,1.277
	c1.031,0.154,3.231,1.115,3.139,0.361c-0.093-0.738-1.322-2.1-1.754-2.477C199.667,178.623,199.221,178.515,199.221,178.515"/>
<path fill="#FFFFFF" d="M200.145,171.392c0,0-1.57-0.361-2.678,0.315c-1.062,0.661-0.738,1.2-0.738,1.2s1.646,1.292,2.83,1.477
	c1.17,0.192,3.724,1.277,3.631,0.431c-0.123-0.869-1.539-2.446-2.03-2.869C200.667,171.515,200.145,171.392,200.145,171.392"/>
<path fill="#FFFFFF" d="M198.544,184.961c0,0-1.139-0.27-1.907,0.215c-0.77,0.477-0.523,0.854-0.523,0.854s1.169,0.931,2,1.054
	c0.846,0.139,2.646,0.915,2.584,0.3c-0.092-0.616-1.092-1.731-1.445-2.031C198.914,185.038,198.544,184.961,198.544,184.961"/>
<path fill="#FFFFFF" d="M197.467,191.129c0,0-0.923-0.2-1.569,0.193c-0.614,0.392-0.431,0.707-0.431,0.707s0.969,0.754,1.662,0.869
	c0.691,0.108,2.215,0.77,2.153,0.247c-0.062-0.5-0.923-1.431-1.2-1.685C197.79,191.206,197.467,191.129,197.467,191.129"/>
<path fill="#FFFFFF" d="M196.145,196.76c0,0-0.831-0.192-1.416,0.169c-0.554,0.346-0.4,0.646-0.4,0.646s0.877,0.677,1.508,0.77
	c0.631,0.115,1.984,0.692,1.924,0.238c-0.047-0.454-0.801-1.308-1.063-1.531C196.436,196.822,196.145,196.76,196.145,196.76"/>
<path fill="#FFFFFF" d="M194.821,201.375c0,0-0.861-0.193-1.414,0.153c-0.586,0.362-0.416,0.646-0.416,0.646
	s0.877,0.692,1.508,0.785c0.631,0.1,1.984,0.692,1.923,0.224c-0.046-0.454-0.8-1.292-1.077-1.516
	C195.098,201.437,194.821,201.375,194.821,201.375"/>
<path fill="#FFFFFF" d="M193.207,206.729c0,0-0.677-0.162-1.154,0.123c-0.462,0.3-0.308,0.523-0.308,0.523s0.707,0.555,1.215,0.647
	c0.508,0.076,1.615,0.554,1.555,0.168c-0.047-0.361-0.662-1.038-0.862-1.23C193.437,206.775,193.207,206.729,193.207,206.729"/>
<path fill="#FFFFFF" d="M191.284,211.736c0,0-0.585-0.139-0.985,0.107c-0.399,0.254-0.276,0.461-0.276,0.461
	s0.615,0.469,1.046,0.531c0.431,0.085,1.384,0.493,1.338,0.162c-0.03-0.315-0.569-0.9-0.738-1.054
	C191.467,211.782,191.284,211.736,191.284,211.736"/>
<path fill="#FFFFFF" d="M189.299,216.498c0,0-0.601-0.131-1,0.123c-0.386,0.238-0.247,0.438-0.247,0.438s0.585,0.477,1.031,0.554
	c0.446,0.062,1.384,0.469,1.338,0.162c-0.03-0.339-0.569-0.916-0.738-1.077C189.499,216.543,189.299,216.498,189.299,216.498"/>
<path fill="#FFFFFF" d="M60.52,240.72c0,0-0.992,1.922-0.5,2.977c0.485,1.062,1.823-1.685,1.823-1.685s1.384-2.739,0.823-3.238
	C62.097,238.266,61.767,239.681,60.52,240.72"/>
<path d="M200.543,487.684v-3.737c0-8.493,4.293-10.154,16.831-10.215c11.538,0.061,15.614,1.507,15.614,8.83v28.26h4.261v6.369
	h-28.183c-5.938,0-9.814-4.077-9.814-9.092v-5.724c0-4.938,2.522-9.245,11.353-9.292h11.015v-8.6c0-4.492-0.308-5.03-4.814-5.03
	h-0.047c-5.399,0-5.753,0.708-5.753,5.03v3.2H200.543 M213.621,497.823c-2.215,0-3.523,1.784-3.523,3.999v5.461
	c0,2.201,0.939,3.954,3.523,3.985h3.969c2.185,0,3.97-0.677,3.97-3.985l0.03-9.46h-3.754
	C217.744,497.823,213.621,497.823,213.621,497.823z"/>
<path d="M173.738,484.377V474.5h-15.722v5.877h4.192v30.429h-4.192v6.385h19.692v-6.385h-3.97V494.5
	c0-1.522,9.269-13.229,9.269-11.877v16.199h10.893v-18.229c0-4.169-2.724-6.86-7.693-6.86
	C180.299,473.732,176.307,481.162,173.738,484.377"/>
<polyline points="299.063,510.776 299.063,474.5 283.017,474.5 283.017,480.377 287.51,480.377 287.51,510.776 283.017,510.776 
	283.017,517.191 303.278,517.191 303.278,510.776 299.063,510.776 "/>
<path d="M133.286,484.377V474.5h-15.722v5.877h4.192v30.429h-4.192v6.385h19.676v-6.385h-3.954V494.5
	c0-1.522,9.261-13.229,9.261-11.877v16.199h10.884v-18.229c0-4.169-2.708-6.86-7.684-6.86
	C139.854,473.732,135.855,481.162,133.286,484.377"/>
<path fill-rule="evenodd" clip-rule="evenodd" d="M111.548,503.207h-11.03v3.2c0,4.339-0.723,4.523-6.1,4.584h-0.077
	c-6.162,0.031-5.815-0.584-5.746-4.584v-7.585h22.952v-16.476c0-5.97-4.507-8.477-16.399-8.522h-1.707
	c-12.838,0.061-16.253,2.984-16.253,10.369v24.121c0,8.122,4.799,9.492,16.491,9.815h1.276c12.762-0.293,16.592-1.17,16.592-8.754
	V503.207 M88.719,482.961c0-2.245,0.677-3.354,3.246-3.385h4.838c2,0,3.115,0.893,3.115,2.492v12.354h-11.2V482.961z"/>
<line fill="none" stroke="#000000" stroke-width="0.74" stroke-miterlimit="10" x1="293.249" y1="465.732" x2="293.249" y2="458.009"/>
<path d="M257.25,484.377V474.5h-15.738v5.877h4.185v30.429h-4.185v6.385h19.691v-6.385h-3.953V494.5
	c0-1.522,9.246-13.229,9.246-11.877v16.199h10.907v-18.229c0-4.169-2.74-6.86-7.725-6.86
	C263.803,473.732,259.802,481.162,257.25,484.377"/>
<polyline points="63.435,496.438 63.435,490.746 57.305,490.746 57.305,510.822 67.927,510.822 67.927,517.191 36.783,517.191 
	36.783,510.822 45.067,510.822 45.067,465.732 38.56,465.732 38.56,457.978 281.139,457.978 281.139,465.732 57.305,465.732 
	57.305,483.838 63.435,483.838 63.435,478.485 70.489,478.485 70.489,496.438 63.435,496.438 "/>
<rect x="287.339" y="457.701" fill-rule="evenodd" clip-rule="evenodd" width="11.568" height="7.631"/>
</svg>
