<?xml version="1.0" encoding="UTF-8" standalone="no"?>
<!-- Created with Inkscape (http://www.inkscape.org/) -->

<svg
   xmlns:dc="http://purl.org/dc/elements/1.1/"
   xmlns:cc="http://creativecommons.org/ns#"
   xmlns:rdf="http://www.w3.org/1999/02/22-rdf-syntax-ns#"
   xmlns:svg="http://www.w3.org/2000/svg"
   xmlns="http://www.w3.org/2000/svg"
   xmlns:sodipodi="http://sodipodi.sourceforge.net/DTD/sodipodi-0.dtd"
   xmlns:inkscape="http://www.inkscape.org/namespaces/inkscape"
   width="85.508881"
   height="32.68869"
   viewBox="0 0 22.624225 8.6488825"
   version="1.1"
   id="svg4734"
   inkscape:version="0.92.0 r15299"
   sodipodi:docname="ford.svg">
  <defs
     id="defs4728">
    <clipPath
       id="clipPath733"
       clipPathUnits="userSpaceOnUse">
      <path
         inkscape:connector-curvature="0"
         id="path731"
         d="m 681.086,683.28 h 63.672 v 24.247 h -63.672 z" />
    </clipPath>
  </defs>
  <sodipodi:namedview
     id="base"
     pagecolor="#ffffff"
     bordercolor="#666666"
     borderopacity="1.0"
     inkscape:pageopacity="0.0"
     inkscape:pageshadow="2"
     inkscape:zoom="10.490138"
     inkscape:cx="42.75444"
     inkscape:cy="16.344345"
     inkscape:document-units="mm"
     inkscape:current-layer="layer1"
     showgrid="false"
     fit-margin-top="0"
     fit-margin-left="0"
     fit-margin-right="0"
     fit-margin-bottom="0"
     units="px"
     inkscape:window-width="1280"
     inkscape:window-height="744"
     inkscape:window-x="-4"
     inkscape:window-y="-4"
     inkscape:window-maximized="1" />
  <metadata
     id="metadata4731">
    <rdf:RDF>
      <cc:Work
         rdf:about="">
        <dc:format>image/svg+xml</dc:format>
        <dc:type
           rdf:resource="http://purl.org/dc/dcmitype/StillImage" />
        <dc:title></dc:title>
      </cc:Work>
    </rdf:RDF>
  </metadata>
  <g
     inkscape:label="Layer 1"
     inkscape:groupmode="layer"
     id="layer1"
     transform="translate(-127.15947,-152.69208)">
    <path
       inkscape:connector-curvature="0"
       id="path737"
       style="fill:#003478;fill-opacity:1;fill-rule:nonzero;stroke:none;stroke-width:0.07763386"
       d="m 138.4715,152.82437 c -6.20543,0 -11.17974,1.86003 -11.17974,4.19207 0,2.31784 5.0153,4.19223 11.17974,4.19223 6.16459,0 11.1799,-1.88068 11.1799,-4.19223 0,-2.31155 -5.01531,-4.19207 -11.1799,-4.19207" />
    <path
       inkscape:connector-curvature="0"
       id="path741"
       style="fill:#ffffff;fill-opacity:1;fill-rule:nonzero;stroke:none;stroke-width:0.07763386"
       d="m 142.87512,157.90446 c 0.003,0.0192 0.0282,0.0376 0.0526,0.0463 0.009,0.003 0.0134,0.009 0.004,0.0294 -0.0696,0.14921 -0.13361,0.23523 -0.22087,0.36488 -0.0803,0.11979 -0.17072,0.21326 -0.28018,0.30316 -0.16513,0.13664 -0.39446,0.28538 -0.58404,0.18539 -0.0842,-0.0437 -0.12064,-0.16156 -0.11901,-0.25697 0.004,-0.2683 0.12336,-0.54375 0.34376,-0.81446 0.26869,-0.33079 0.56572,-0.50236 0.76066,-0.40858 0.20169,0.0962 0.13733,0.32971 0.047,0.513 -0.007,0.0142 -0.007,0.0262 -0.004,0.0378 m 2.16435,-2.09052 c 0.0145,-0.0256 -7.7e-4,-0.0443 -0.0331,-0.0443 -0.16846,0 -0.38949,3.8e-4 -0.56502,3.8e-4 -0.0418,0 -0.0634,0.005 -0.0831,0.044 -0.0648,0.12413 -0.85436,1.30743 -1.00132,1.53722 -0.0248,0.035 -0.055,0.0301 -0.0585,-0.01 -0.0149,-0.13648 -0.13276,-0.29338 -0.31846,-0.36845 -0.14152,-0.0574 -0.27987,-0.0678 -0.42372,-0.0487 -0.25969,0.0349 -0.49104,0.17188 -0.69444,0.32638 -0.30657,0.23305 -0.57107,0.53513 -0.91251,0.75832 -0.18639,0.1215 -0.44165,0.22747 -0.61245,0.0693 -0.15457,-0.14331 -0.1371,-0.46161 0.0994,-0.70779 0.0249,-0.0258 0.0548,-0.004 0.0501,0.0189 -0.0223,0.11133 0.005,0.22204 0.0896,0.29967 0.10317,0.0925 0.25083,0.10294 0.37722,0.0412 0.14913,-0.0739 0.23678,-0.21659 0.26232,-0.37854 0.0395,-0.25122 -0.15387,-0.47279 -0.39585,-0.49057 -0.19657,-0.0138 -0.38507,0.0546 -0.56875,0.2062 -0.0921,0.0764 -0.1444,0.13283 -0.22405,0.2461 -0.0194,0.0279 -0.0492,0.0307 -0.0483,-0.0105 0.009,-0.32164 -0.1239,-0.5026 -0.3898,-0.5085 -0.20642,-0.005 -0.42691,0.10705 -0.59879,0.24408 -0.18841,0.15131 -0.35315,0.35183 -0.52977,0.54025 -0.022,0.0232 -0.0411,0.0221 -0.0473,-0.0229 -0.005,-0.21311 -0.0589,-0.41953 -0.15752,-0.56611 -0.0349,-0.051 -0.10837,-0.0762 -0.17009,-0.0418 -0.0285,0.0156 -0.12763,0.0612 -0.19983,0.11932 -0.0358,0.0295 -0.0498,0.0722 -0.0339,0.12693 0.0952,0.31838 0.0743,0.68038 -0.0549,0.98611 -0.11862,0.28002 -0.34912,0.53256 -0.62006,0.61804 -0.17848,0.0566 -0.36402,0.0289 -0.47884,-0.12934 -0.15768,-0.21838 -0.094,-0.59817 0.14106,-0.91352 0.20743,-0.27769 0.50749,-0.45408 0.80677,-0.56766 0.0352,-0.0136 0.0425,-0.0362 0.0325,-0.0661 -0.0162,-0.0492 -0.0422,-0.11622 -0.0527,-0.1468 -0.0275,-0.0731 -0.10434,-0.0849 -0.1982,-0.0747 -0.21746,0.0253 -0.41364,0.0998 -0.60741,0.20356 -0.50742,0.27172 -0.76182,0.79761 -0.8733,1.07895 -0.0537,0.13516 -0.0996,0.21947 -0.15892,0.29423 -0.08,0.10054 -0.18042,0.19207 -0.36403,0.35332 -0.0166,0.0148 -0.029,0.0456 -0.015,0.0743 0.0187,0.0388 0.1142,0.17367 0.14114,0.1857 0.0299,0.0147 0.0646,-0.006 0.0785,-0.0158 0.12848,-0.0871 0.2822,-0.22514 0.35742,-0.31877 0.0264,-0.0321 0.0535,-0.0186 0.0675,0.0301 0.0702,0.25045 0.25402,0.45494 0.5082,0.54049 0.46526,0.1569 0.94783,-0.0702 1.31209,-0.46557 0.2315,-0.2513 0.31503,-0.41294 0.40377,-0.52279 0.15038,-0.18632 0.44702,-0.60313 0.80033,-0.87074 0.12957,-0.0987 0.28289,-0.17398 0.35999,-0.12398 0.0619,0.0401 0.0819,0.1333 -0.0174,0.31387 -0.36023,0.6578 -0.89023,1.43064 -0.98743,1.61805 -0.0178,0.0325 -0.002,0.0581 0.0318,0.0581 0.1885,-9.3e-4 0.37536,-4.7e-4 0.54647,-4.7e-4 0.0285,-0.001 0.0412,-0.0144 0.0555,-0.0345 0.27645,-0.43273 0.5366,-0.84458 0.81546,-1.2704 0.0156,-0.0251 0.03,-0.006 0.0306,0.005 0.006,0.0988 0.03,0.23391 0.0887,0.32265 0.10542,0.16404 0.25479,0.23453 0.42046,0.23561 0.13182,0.002 0.19851,-0.0185 0.34066,-0.0716 0.11567,-0.0429 0.20852,-0.0992 0.27979,-0.15015 0.0416,-0.029 0.0489,0.0195 0.0479,0.0269 -0.064,0.34353 0.015,0.75057 0.35642,0.91934 0.40859,0.20146 0.85746,-0.0817 1.11575,-0.33732 0.0253,-0.0246 0.0524,-0.022 0.055,0.0311 0.006,0.0976 0.0496,0.21341 0.13034,0.29446 0.21645,0.21722 0.65322,0.13113 1.09154,-0.20813 0.28142,-0.21722 0.57588,-0.52411 0.84186,-0.84908 0.01,-0.0126 0.0172,-0.0328 -0.002,-0.0533 -0.0405,-0.0424 -0.0991,-0.0909 -0.13927,-0.12825 -0.0183,-0.0156 -0.0452,-0.0111 -0.0606,5.4e-4 -0.27265,0.2593 -0.51806,0.55501 -0.87276,0.79955 -0.11964,0.0835 -0.31031,0.15085 -0.39594,0.0349 -0.0334,-0.045 -0.0296,-0.10721 0.003,-0.18889 0.10341,-0.2579 1.74079,-2.7508 1.82579,-2.89783" />
    <path
       inkscape:connector-curvature="0"
       id="path745"
       style="fill:#ffffff;fill-opacity:1;fill-rule:nonzero;stroke:none;stroke-width:0.07763386"
       d="m 137.33579,156.11467 c 0.007,0.037 0.0214,0.0442 0.0382,0.0411 0.0834,-0.0167 0.17467,-0.0853 0.22871,-0.16482 0.0492,-0.0721 0.0723,-0.17615 0.0234,-0.21784 -0.0436,-0.0375 -0.11459,-0.0269 -0.16722,0.0196 -0.10481,0.0926 -0.13664,0.22398 -0.12313,0.32203 m -4.17321,3.20892 c -0.61051,0.004 -1.14836,-0.37303 -1.21008,-1.02617 -0.0343,-0.36193 0.068,-0.68449 0.27281,-0.95023 0.18174,-0.23679 0.48925,-0.43351 0.74955,-0.48157 0.0847,-0.0155 0.19851,-0.006 0.24556,0.0504 0.0738,0.0859 0.0526,0.18026 -0.0212,0.21791 -0.19859,0.10139 -0.43755,0.27498 -0.55579,0.512 -0.0959,0.19346 -0.11528,0.4266 0.0312,0.64871 0.24517,0.37016 0.92858,0.38033 1.56401,-0.21 0.15737,-0.14448 0.2982,-0.28329 0.44135,-0.44772 0.27987,-0.32 0.37296,-0.43661 0.74498,-0.95264 0.004,-0.006 0.006,-0.0138 0.004,-0.0176 -0.003,-0.007 -0.008,-0.008 -0.0191,-0.009 -0.24835,0.007 -0.46488,0.0809 -0.67534,0.23818 -0.0606,0.0442 -0.14782,0.038 -0.18601,-0.0202 -0.0425,-0.0658 -0.012,-0.15146 0.0579,-0.19983 0.33856,-0.23546 0.70841,-0.27816 1.0861,-0.3419 -3.1e-4,0 0.0262,0.001 0.0478,-0.0274 0.15504,-0.19898 0.27211,-0.37847 0.43739,-0.5797 0.16653,-0.20417 0.38165,-0.39166 0.546,-0.53249 0.22941,-0.19726 0.37653,-0.26364 0.52605,-0.345 0.0394,-0.0206 -0.005,-0.0452 -0.017,-0.0452 -0.8348,-0.1569 -1.70251,-0.35992 -2.53157,-0.053 -0.57418,0.21427 -0.82579,0.66959 -0.70476,0.97384 0.0861,0.21582 0.36993,0.25091 0.63567,0.12087 0.22071,-0.10814 0.42497,-0.28243 0.56976,-0.50679 0.081,-0.1246 0.25168,-0.0347 0.15946,0.18166 -0.24261,0.57022 -0.70608,1.02252 -1.27064,1.04162 -0.48047,0.0156 -0.79047,-0.33787 -0.78946,-0.77394 0.002,-0.8601 0.95948,-1.42667 1.96577,-1.51137 1.21186,-0.10015 2.35968,0.22265 3.56293,0.3686 0.9219,0.11164 1.80576,0.11397 2.7324,-0.0989 0.10954,-0.0238 0.1864,0.0461 0.17926,0.15674 -0.009,0.15993 -0.13291,0.31395 -0.43809,0.4804 -0.3471,0.19036 -0.7102,0.24812 -1.08944,0.25122 -0.91701,0.008 -1.77121,-0.34981 -2.65515,-0.54188 10e-4,0.0387 0.0112,0.0848 -0.0212,0.10923 -0.48963,0.36115 -0.93222,0.72789 -1.22863,1.243 -0.01,0.0119 -0.005,0.0232 0.0127,0.022 0.25736,-0.0137 0.48879,-0.0203 0.72906,-0.0395 0.042,-0.004 0.0436,-0.014 0.0399,-0.0446 -0.0213,-0.17755 0.0306,-0.38002 0.18678,-0.51929 0.15985,-0.14332 0.35999,-0.15962 0.49267,-0.0564 0.15084,0.11754 0.13749,0.32894 0.055,0.48747 -0.084,0.16085 -0.22273,0.24687 -0.35587,0.28864 0,0 -0.028,0.006 -0.0238,0.0314 0.005,0.0406 0.18664,0.14114 0.20216,0.16792 0.015,0.0255 0.007,0.065 -0.0203,0.0953 -0.0192,0.022 -0.0493,0.0426 -0.0878,0.0419 -0.0311,-6.2e-4 -0.05,-0.0114 -0.0898,-0.0329 -0.0814,-0.0441 -0.18313,-0.1166 -0.25099,-0.20208 -0.0231,-0.0289 -0.0349,-0.0295 -0.0926,-0.0263 -0.26,0.015 -0.6654,0.0542 -0.94007,0.0885 -0.0666,0.008 -0.0764,0.0207 -0.0901,0.0438 -0.43793,0.72215 -0.90552,1.5009 -1.41891,2.02229 -0.55066,0.55904 -1.00839,0.70623 -1.4943,0.71004" />
    <path
       inkscape:connector-curvature="0"
       id="path749"
       style="fill:#ffffff;fill-opacity:1;fill-rule:nonzero;stroke:none;stroke-width:0.07763386"
       d="m 138.47126,153.50988 c -5.70881,0 -10.33625,1.57752 -10.33625,3.50789 0,1.93052 4.62744,3.50819 10.33625,3.50819 5.70873,0 10.33586,-1.57767 10.33586,-3.50819 0,-1.93037 -4.62713,-3.50789 -10.33586,-3.50789 m 0,7.33399 c -5.91663,0 -10.71293,-1.71299 -10.71293,-3.8261 0,-2.11343 4.7963,-3.82611 10.71293,-3.82611 5.91609,0 10.71208,1.71268 10.71208,3.82611 0,2.11311 -4.79599,3.8261 -10.71208,3.8261" />
  </g>
</svg>
