<?xml version="1.0" encoding="utf-8"?>
<!DOCTYPE svg PUBLIC "-//W3C//DTD SVG 1.1//EN" "http://www.w3.org/Graphics/SVG/1.1/DTD/svg11.dtd">
<svg version="1.1" id="VARG" xmlns="http://www.w3.org/2000/svg" xmlns:xlink="http://www.w3.org/1999/xlink" x="0px" y="0px"
 width="255px" height="241px" viewBox="0 0 255 241" enable-background="new 0 0 255 241" xml:space="preserve">
<g>
<polygon points="35.182,112.139 37.127,104.775 4.932,104.775 2.986,112.139 14.71,112.139 6.843,141.922 15.507,141.922 
23.375,112.139 "/>
<path d="M45.442,125.904h5.39l4.879,16.018h8.755l-5.026-16.503c5.575-0.808,10.74-6.373,10.74-11.916
c0-5.474-3.877-8.726-11.056-8.726H42.346l-9.813,37.145h8.679L45.442,125.904z M49.279,111.381h7.053
c2.462,0,4.12,0.968,4.12,3.417c0,1.683-1.224,4.717-5.118,4.717H47.13L49.279,111.381z"/>
<polygon points="78.462,141.922 88.275,104.775 79.611,104.775 69.798,141.922 "/>
<path d="M113.323,127.247c-1.013,3.432-2.824,7.309-8.578,7.309s-6.522-3.261-5.352-7.309l5.936-22.472H96.49l-5.936,22.472
c-1.731,5.775-0.772,14.981,13.423,14.981c14.194,0,16.505-8.48,18.035-14.981l5.937-22.472h-8.69L113.323,127.247z"/>
<polygon points="151.168,141.922 165.54,116.557 158.839,141.922 167.528,141.922 177.341,104.775 163.75,104.775 151.047,127.031 
150.429,104.775 136.837,104.775 127.024,141.922 135.285,141.922 142.715,113.792 143.486,141.922 "/>
<path d="M188.38,126.825h10.683c9.25,0,13.986-6.831,13.986-11.625c0-9.096-4.742-10.365-12.354-10.425h-15.121l-9.813,37.147h8.63
L188.38,126.825z M192.416,111.543h8.115c2.658,0,3.828,1.862,3.652,3.845c-0.202,2.255-2.147,4.667-5.626,4.667h-8.39
L192.416,111.543z"/>
<polygon points="243.173,141.922 252.986,104.775 244.321,104.775 241.451,115.643 225.942,115.643 228.813,104.775 
220.151,104.775 210.338,141.922 219,141.922 224.011,122.953 239.519,122.953 234.507,141.922 "/>
<path d="M126.803,223.559c-0.191,0.767,0,1.918,2.11,1.535c5.859-1.146,10.449-5.505,13.265-9.205
c5.689-7.471,1.957-5.99,9.37-12.663c1.918-1.726,0.192-2.878-1.726-2.494c-10.08,0.753-14.143,3.274-16.906,5.9
C127.933,211.368,127.544,215.038,126.803,223.559z"/>
<path d="M128.721,227.204c-0.958,0.003-1.534,1.151,0,1.918c5.52,2.76,7.217,8.27,12.958,8.959
c7.391,0.888,14.727-3.563,20.61-4.74c1.918-0.383,2.11-2.686,0-2.877c-4.495-0.6-12.435-4.994-18.756-5.752
C134.706,223.653,133.736,227.187,128.721,227.204z"/>
<path d="M157.238,218.395c0.044,0.789,0.571,1.831,2.471,0.835c4.896-2.646,7.907-7.632,9.578-11.837
c3.977-10.007,0.066-6.597,5.514-15.779c1.317-2.22-0.674-2.804-2.39-1.866c-10.517,4.163-13.18,8.198-14.999,11.846
c-1.395,2.799-1.817,5.286-1.715,7.866C155.805,212.178,156.494,215,157.238,218.395z"/>
<path d="M160.154,221.303c-0.915,0.286-1.122,1.555,0.572,1.831c6.333,1.03,6.006,4.225,13.476,4.785
c4.531,0.34,10.598-3.905,14.979-7.214c2.146-1.622,3.888-3.02,4.846-3.542c1.718-0.937,1.214-3.192-0.856-2.747
c-3.354,0.575-13.123-0.625-18.212-0.146C164.054,215.294,168.686,217.901,160.154,221.303z"/>
<path d="M186.322,203.25c0.293,0.735,1.121,1.557,2.609,0.013c3.634-3.871,4.967-9.22,5.306-13.625
c0.909-11.833-2.108-6.319,0.289-17.345c0.548-2.522-1.525-2.447-2.857-1.015c-7.326,6.149-9.352,10.438-10.149,14.056
c-0.277,1.257-0.405,2.432-0.556,3.577c-0.294,2.231,0.489,4.883,1.629,7.451C183.719,198.9,185.196,201.359,186.322,203.25z"/>
<path d="M190.009,205.088c-0.757,0.59-0.561,1.898,1.121,1.556c4.885-0.994,10.346,2.517,15.708-0.276
c6.555-3.415,9.955-11.564,14-15.911c1.332-1.432,0.193-3.321-1.682-2.334c-4.91,2.583-13.261,3.438-17.892,5.907
C191.958,198.994,195.417,200.869,190.009,205.088z"/>
<path d="M207.57,178.391c0.51,0.605,1.554,1.123,2.479-0.811c2.632-5.699,2.498-13.185,1.598-18.166
c-0.299-1.658-2.747-6.118-3.567-13.756c-0.275-2.566-2.986-2.608-3.799-0.829c-5.36,8.715-5.759,15.308-5.272,19.857
C199.699,171.163,201.774,173.383,207.57,178.391z"/>
<path d="M211.84,180.505c-0.563,0.777,0.453,2.641,2.129,2.275c6.714-1.469,12.321-1.536,16.727-4.764
c3.414-2.5,5.967-7.67,6.781-11.133c0.252-1.071,1.064-2.151,2.454-5.192c0.812-1.779-0.94-3.283-2.332-1.686
c-1.066,1.125-10.791,4.737-15,7.511c-3.845,2.535-5.491,4.151-6.786,6.09C214.653,175.347,213.771,177.347,211.84,180.505z"/>
<path d="M224.907,98.126c0.791,0.028,1.877-0.399,1.063-2.383c-2.26-5.303-7.176-8.885-11.328-10.849
c-7.832-3.706-6.748-0.926-14.772-6.74c-2.089-1.515-2.854,0.411-2.08,2.207c2.511,8.597,4.503,12.449,11.832,16.898
c1.925,1.167,4.667,1.518,7.477,1.507C219.877,98.757,222.722,98.396,224.907,98.126z"/>
<path d="M228.073,95.491c0.321,0.903,1.438,1.26,1.876-0.399c1.486-5.632,5.822-8.272,6.059-13.381
c0.299-6.44-6.939-15.741-8.917-20.33c-0.774-1.796-2.989-1.513-2.814,0.599c0.56,6.744-2.027,8.89-1.864,17.302
c0.104,5.403,1.103,7.649,2.398,9.834C225.813,90.801,226.992,92.451,228.073,95.491z"/>
<path d="M212.91,71.131c0.764-0.201,1.682-0.922,0.331-2.588c-3.595-4.313-8.696-6.567-12.829-7.592
c-6.68-1.655-7.434,0.795-17.036-2.7c-2.425-0.882-2.615,1.216-1.357,2.713c6.202,9.547,11.45,11.471,15.578,12.564
C203.602,75.119,206.858,73.797,212.91,71.131z"/>
<path d="M215.375,67.122c1.007,0.874,2.812,0.594,2.641-1.114c-0.531-5.297,5.125-10.199,0.116-18.675
c-3.667-6.206-8.775-9.503-11.213-12.403c-1.259-1.498-3.282-0.594-2.523,1.383c2.344,6.111,0.166,9.091,2.735,17.578
c2.237,7.389,5.196,10.001,7.042,11.846C214.664,66.229,215.076,66.665,215.375,67.122z"/>
<path d="M194.594,45.881c0.669-0.422,1.326-1.386-0.465-2.567c-4.682-2.998-10.505-3.29-14.981-2.648
c-9.038,1.295-6.055,3.133-16.491,2.82c-2.58-0.077-2.126,1.948-0.475,2.996c8.233,6.771,12.988,7.495,16.916,7.407
C185.63,53.746,188.444,51.291,194.594,45.881z"/>
<path d="M195.15,42.113c0.693,0.664,2.48,0.037,1.9-1.578c-0.323-0.901-0.357-2.346-0.329-3.682
c0.022-1.056,0.083-2.044,0.07-2.643c-0.282-4.828-1.492-9.72-4.223-12.33c-3.823-3.652-11.772-5.92-15.912-8.546
c-1.651-1.049-3.381,0.483-1.988,2.079c3.472,4.333,4.451,9.001,7.607,14.725c2.155,3.908,4.949,7.423,6.584,8.141
C190.915,39.181,193.215,40.529,195.15,42.113z"/>
<path d="M167.806,31.137c0.508-0.606,0.622-1.696-1.419-2.686c-4.499-1.192-9.992-1.128-14.565-0.292
c-11.197,2.05-7.785,4.308-16.515,5.665c-4.932,0.765-2.433,2.784-1.042,3.356c9.169,3.766,16.338,4.188,20.859,3.411
C160.83,39.61,164.793,36.175,167.806,31.137z"/>
<path d="M168.577,26.759c0.863,0.419,2.523-0.903,1.873-2.491c-2.666-6.503-3.446-12.009-7.98-16.021
c-3.282-2.903-7.446-3.587-11.354-3.812c-1.612-0.093-2.766-0.222-5.538-0.945c-1.893-0.493-3.072,1.494-1.258,2.588
c1.214,0.804,3.196,3.647,3.445,4.224c0.861,2.001,5.047,6.971,6.781,8.748c2.882,2.956,4.696,4.189,6.733,5.07
C163.172,24.938,165.259,25.452,168.577,26.759z"/>
<path d="M123.351,223.559c-0.191-2.193-0.429-5.051-0.998-7.771c-0.575-2.75-1.487-5.359-3.03-7
c-0.792-0.841-1.583-1.72-2.542-2.578c-2.76-2.47-6.909-4.767-16.448-5.479c-1.918-0.384-3.644,0.768-1.726,2.494
c7.195,6.475,3.871,5.207,9.07,12.262c2.784,3.778,7.493,8.417,13.565,9.605C123.351,225.477,123.542,224.326,123.351,223.559z"/>
<path d="M121.442,227.164c-5.81-0.064-4.155-2.83-13.308-2.573c-6.999,0.195-14.909,5.436-20.26,5.834
c-2.112,0.156-1.917,2.494,0,2.876c6.711,1.342,11.501,4.998,19.9,4.803c6.167-0.145,8.318-6.347,13.668-9.022
C122.978,228.315,122.402,227.175,121.442,227.164z"/>
<path d="M93.048,217.794c0.951-4.346,2.294-10.853,0.424-14.699c-0.505-1.038-0.999-2.114-1.659-3.219
c-1.899-3.18-5.176-6.608-14.069-10.129c-1.716-0.938-3.708-0.354-2.391,1.866c5.714,9.631,1.952,6.582,5.411,15.514
c1.557,4.022,4.35,8.832,8.869,11.631C92.17,220.332,92.656,219.588,93.048,217.794z"/>
<path d="M89.264,220.977c-3.303-1.592-4.576-2.875-5.881-3.917c-1.585-1.265-3.215-2.173-8.591-2.847
c-7.593-0.95-8.599,1.263-17.016,0.314c-2.746-0.31-3.673,1.403-1.132,2.934c1.684,1.014,4.111,2.972,6.835,4.923
c3.74,2.678,8.039,5.343,11.737,5.532c4.907,0.25,7.335-2.8,13.399-4.588C91.767,222.399,91.159,221.891,89.264,220.977z"/>
<path d="M63.832,203.25c0.73-1.652,1.94-3.449,3.035-5.408c1.487-2.663,2.761-5.625,2.325-8.932
c-0.15-1.146-0.28-2.324-0.557-3.583c-0.782-3.545-2.747-7.735-9.721-13.69c-2.09-1.783-3.908-2.466-3.151,1.293
c2.23,11.076-0.635,5.887,0.146,16.588c0.323,4.427,1.647,9.838,5.314,13.744C62.691,204.786,63.48,204.044,63.832,203.25z"/>
<path d="M60.146,205.088c-6.964-5.874-0.497-4.867-10.458-10.614c-4.342-2.505-15.062-4.41-18.69-6.351
c-1.825-1.078-3.014,0.902-1.681,2.334c1.629,1.751,3.491,4.798,5.667,7.822c2.93,4.072,6.428,8.101,10.697,8.867
c2.612,0.468,10.584-0.948,13.345-0.502C60.719,206.918,60.924,205.647,60.146,205.088z"/>
<path d="M43.339,177.733c5.423-4.759,7.673-7.699,7.942-14.91c0.165-4.422-0.74-10.403-5.408-17.994
c-0.813-1.779-3.524-1.737-3.799,0.829c-0.673,6.26-3.363,11.564-3.873,15.791c-0.583,4.839-0.392,11.164,1.902,16.131
C41.229,179.932,42.393,178.565,43.339,177.733z"/>
<path d="M38.314,180.505c-2.225-3.637-2.965-5.389-3.982-6.876c-1.082-1.583-2.479-2.866-6.312-5.801
c-5.224-3.999-12.811-5.516-15.466-7.823c-1.6-1.389-3.391,0.041-2.332,1.686c1.638,2.543,3.815,11.343,7.98,15.281
c4.391,4.151,10.45,4.159,17.982,5.808C38.021,183.182,38.989,181.438,38.314,180.505z"/>
<path d="M25.247,98.126c2.185,0.27,5.029,0.631,7.809,0.641c2.81,0.01,5.552-0.34,7.476-1.507c0.987-0.6,2.012-1.19,3.051-1.95
c2.99-2.186,6.1-5.767,8.781-14.948c0.775-1.796-0.009-3.748-2.08-2.207c-7.347,5.467-7.049,3.207-13.936,6.344
c-4.267,1.944-9.749,5.577-12.164,11.245C23.37,97.727,24.456,98.154,25.247,98.126z"/>
<path d="M22.081,95.491c1.944-5.893,5.8-7.338,5.648-15.778c-0.2-11.078-2.486-9.534-1.853-17.734
c0.251-2.104-2.04-2.395-2.814-0.599c-2.317,5.376-8.522,11.981-8.933,19.292c-0.343,6.11,4.593,8.606,6.075,14.419
C20.628,96.754,21.78,96.402,22.081,95.491z"/>
<path d="M37.244,71.131c7.397,3.258,9.961,3.887,15.82,2.26c4.047-1.123,9.121-3.265,15.071-12.426
c1.258-1.498,1.08-3.564-1.356-2.713c-8.395,2.937-11.338,1.326-16.308,2.531c-4.228,1.024-9.748,3.191-13.557,7.761
C35.563,70.209,36.48,70.931,37.244,71.131z"/>
<path d="M34.779,67.122c0.655-1.004,1.393-1.752,2.178-2.549c1.86-1.882,3.997-4.027,5.988-10.43
c2.594-8.339,0.858-12.78,2.813-17.83c0.846-1.943-1.264-2.881-2.523-1.383c-1.396,1.66-2.944,2.913-4.543,4.298
c-2.78,2.409-5.709,5.218-8.24,11.273c-2.016,4.825,1.902,10.481,1.686,15.507C32.064,67.722,33.772,67.996,34.779,67.122z"/>
<path d="M55.56,45.881c7.575,6.662,9.801,7.757,14.683,7.98c4.093,0.186,8.919-0.136,17.728-7.38
c1.652-1.047,2.105-3.073-0.475-2.996c-1.566,0.047-3.883,0.027-6.152-0.285c-5.865-0.808-4.222-1.979-11.49-2.66
c-4.297-0.403-9.539,0.026-13.83,2.773C54.234,44.495,54.891,45.459,55.56,45.881z"/>
<path d="M55.003,42.113c2.838-2.322,4.565-3.003,6.061-3.818c1.912-1.042,3.446-2.302,6.435-7.487
c2.397-4.157,4.87-11.505,7.986-15.394c1.393-1.596-0.336-3.128-1.988-2.079c-4.14,2.626-12.088,4.894-15.912,8.546
c-1.525,1.458-3.779,4.742-4.223,12.33c-0.013,0.599,0.048,1.587,0.07,2.643c0.028,1.335-0.005,2.78-0.329,3.682
C52.523,42.15,54.31,42.776,55.003,42.113z"/>
<path d="M82.348,31.137c3.447,5.763,7.906,9.155,14.63,9.697c4.461,0.36,10.7-0.396,18.911-3.654
c2.785-0.726,2.317-2.913-1.176-3.385c-8.344-1.127-5.133-3.937-16.928-5.719c-4.471-0.676-9.697-0.77-14.019,0.375
C81.726,29.44,81.839,30.531,82.348,31.137z"/>
<path d="M81.577,26.759c2.21-0.872,3.922-1.301,5.579-1.904c2.771-1.008,5.388-2.504,9.922-7.368
c4.026-4.318,6.622-10.055,8.757-11.409c1.789-1.135,0.636-3.081-1.258-2.588c-2.771,0.723-3.926,0.852-5.538,0.945
c-3.9,0.224-8.057,0.905-11.335,3.795c-4.422,3.898-5.332,9.529-8,16.039C79.054,25.856,80.714,27.179,81.577,26.759z"/>
</g>
</svg>
