<?xml version="1.0" encoding="utf-8"?>
<!-- Generator: Adobe Illustrator 23.0.1, SVG Export Plug-In . SVG Version: 6.00 Build 0)  -->
<svg version="1.1" id="Livello_1" xmlns="http://www.w3.org/2000/svg" xmlns:xlink="http://www.w3.org/1999/xlink" x="0px" y="0px"
	 viewBox="0 0 9454.1 6726.5" style="enable-background:new 0 0 9454.1 6726.5;" xml:space="preserve">
<style type="text/css">
	.st0{fill-rule:evenodd;clip-rule:evenodd;fill:#6E6E6E;}
</style>
<g>
	<path class="st0" d="M5984.3,6592.1h-0.8c-18.6,0.5-84,2.2-148.2,0c-163.4,0-339.8-124-339.8-324.4c0-198.8,172.8-317.6,339-317.5
		c2-0.4,83.1-3.8,149.8-0.1c167,0,339.9,118.8,339.9,317.6C6324.2,6468.1,6147.8,6592.1,5984.3,6592.1 M6143.7,5824.9
		c-232.4-5.2-468.5-0.1-470.5,0c-283.9,0-514.7,198-514.7,441.4c0,247,230.9,448,514.9,448c1.9,0.1,238,4.8,470.5,0
		c284.4,0,515.8-201,515.8-448C6659.6,6025.3,6432.9,5831.4,6143.7,5824.9 M9164.6,6703c0,0,278.4-0.1,289.4-0.1
		c0-11.3-0.1-423.8-0.1-423.8c0-247.5-220.4-441.6-501.6-441.6l-732.2-0.1c-12,0-39.8,3.1-39.8,32.3l0.1,800.4
		c0,21.5,15.5,32.8,30.7,32.8c0,0,295,0.1,306,0.1c0-11.4-0.1-669.6-0.1-669.6c0-29.4,22.1-44.9,43.8-44.9l337.3-0.2
		c93.3,0,231.3,85.6,231.3,269.1l-0.1,411.8C9129.3,6669.5,9130.2,6703,9164.6,6703 M3056.2,6009.1c0,0,440.4,0.1,451.7,0.1v-137.9
		c0-19.3-13.9-33.9-32.4-33.9H2216.6c-20.5,0-32.8,17-32.8,33.4c0,0,0,127.7,0,138.3c11.1,0,300.9,0.1,300.9,0.1
		c112.9,0,188.7,97.4,188.7,188.3v472.6c0,15.6,13.7,32.9,33.2,32.9c0,0,294.2,0.1,305.3,0.1v-649.6
		C3012,6029,3031.8,6009.1,3056.2,6009.1 M1664.6,6670.1c0,19.4,17.5,33,33.2,33h17.2c0,0-1.3,1.1-2.4,2.1
		c8.7-2.1,38.2-2.1,140.7-2.1c0,0,138.8-0.1,149.4-0.1v-832.7c0-17.8-14.8-33-32.4-33h-272.6c-17.9,0-33.1,15.2-33.1,33
		L1664.6,6670.1z M4025.8,6242.6v-172.8c0-47.3,33.3-80.3,81.2-80.3h449.2c68.1,0,125.7,57.6,125.7,125.6
		c0,70.2-57,127.4-127.1,127.4H4025.8z M4682.8,6703.2h335.8c-5.3-208-220.5-294.2-245.3-303.4l-4.3-1.6l0.3-11.8l4.4-1
		c143.9-32.3,244.3-143.1,244.3-269.3c0-134.1-130.4-278.9-341.2-278.9l-812.2,0.2c-98.4,0-175.6,77.6-175.6,176.7v655.9
		c0,19,13.6,32.7,32.4,32.7c0,0,293.6,0.3,304.8,0.3c0-11.1-0.2-307-0.2-307h287.9C4569.7,6396,4675,6582,4682.8,6703.2
		L4682.8,6703.2z M1151.6,6127.8h328.7c-71.2-181-268.4-305.2-495-309.6l-101-2c-158.3-3.4-230.6-5-369.2,2
		c-162,8.2-263.9,45.4-363.8,132.9C53.8,6036.6,0.1,6149.4,0,6269.2c0,247.6,218.9,441.8,509.1,452c198.9,7.1,220.2,7.3,481.1-0.5
		c241.7-7.3,415-117.5,489.8-309.4h-328.6c-12.4,0-21.9,5.5-28.2,16.5c-59.5,103.1-173.4,167.2-297.1,167.2
		c-67.6,2.8-149.1,0-149.1,0c-167,0-339.9-121.3-339.9-324.3l0.1-1.9c1.1-201.8,173.5-322.3,340.6-322.4c19.1-0.8,86.4-3,148.1,0.1
		c121.8,0,238.8,65,297.8,165.6C1125.8,6115.6,1134.2,6127.8,1151.6,6127.8 M7999.2,6547.5h-795.8c-26.8,0-45.6-17.9-45.6-43.5v-165
		c0,0,678.4,0,689.7,0c0-10.4,0-141.5,0-151.9h-689.7l-0.3-150.6c0-0.7-0.5-16.9,11.7-29.6c9.1-9.4,22.4-14.2,39.7-14.2h790.2
		v-121.4c0-10.4-2.9-18.5-8.8-24.1c-10.9-10.5-28.9-9.9-30-9.8H6853.5c-3.5,0-33.7,0.9-33.7,34l0.1,655.5
		c0,86.7,66.2,176.2,177.1,176.2l969.3-0.1c8,0,16.3-3.5,22.7-9.5c6.6-6.3,10.3-14.4,10.3-22.7
		C7999.3,6670.7,7999.3,6558.1,7999.2,6547.5 M7751.8,5524.3c-32.4-20.2-71.3-30.1-117.1-30.1c-45.6,0-86.2,10.6-117.2,30.1
		c-30.9,19.3-55.6,45.4-92.2,45.4c-36.5,0-58.5-26-91.4-45.4c-33-19.5-71.4-30.1-117.1-30.1c-45.7,0-84.6,10-117.2,30.1
		c-32.3,19.7-48.6,43.9-48.6,71.8c0,28.2,16.3,52.2,48.6,72c32.6,20,71.4,29.8,117.2,29.8c45.5,0,85.2-9.6,114.6-27.5
		c29.3-18,60.9-47.3,93.9-47.3c33.1,0,63,26.3,92.3,45.1c29.4,18.6,71.6,29.7,117.1,29.7c47,0,86.6-9.8,118.2-29.8
		c31.7-19.8,47.5-43.8,47.5-72C7800.3,5568.1,7784.2,5544,7751.8,5524.3"/>
	<path class="st0" d="M7323.5,4713.6C6841,4299.9,5407.5,3122.7,4727,3122.7c-680.8,0-2113.2,1176.4-2596,1590.4
		c-2.9-97.8-5.6-157.2-5.6-244.3c0,0-11.8-143.8,115.4-287.7c1046.6-948.3,2143.9-1412.3,2177.6-1426.5
		c327.2-138.3,308.8-112.3,308.5-667.3c0,0,14.6-0.9,23.9,0.1c460.8,41.7,1699.7,1244.1,2432.9,2057
		c1.3,1.4,144.7,167.4,144.7,342.4C7328.6,4568.8,7326.2,4649.7,7323.5,4713.6 M7303.8,4035c-77.9-86.4-1912.6-2111.6-2576.8-2111.6
		c-664,0-2498.8,2025.2-2576.6,2111.5l-0.1,0.1c-7.6,8.5-186.7,213.2-186.7,451.9c0,185.8,12.3,372.8,12.5,374.6
		c0.4,8.6,4.7,87.6,48.6,109.1c7.1,3.5,14.8,5.3,22.7,5.3c16.3,0,34.5-7.3,54.2-21.7c19.8-17.5,1888.9-1668.4,2625.4-1668.4
		c736.6,0,2605.8,1650.9,2624.5,1667.6c20.4,15,38.8,22.5,55.3,22.5c8,0,15.5-1.8,22.7-5.2c43.8-21.4,48.1-100.5,48.5-109.4
		c0.1-1.4,12.4-188.4,12.4-374.2C7490.4,4248.2,7311.3,4043.5,7303.8,4035 M7320.9,2787.4c-482-413.2-1914.1-1589.2-2593.8-1589.2
		c-680.1,0-2111.1,1175.3-2593.4,1588.8c-2.9-97.6-5.6-157.1-5.6-244c0,0-11.8-143.7,115.3-287.4
		C3289,1308.2,4385.2,844.7,4418.8,830.5c326.9-138.2,308.5-112.2,308.2-666.6c0,0,14.5-0.9,23.9,0.1
		c460.3,41.7,1698,1242.9,2430.4,2054.9c1.3,1.4,144.6,167.2,144.6,342.1C7326,2642.8,7323.5,2723.6,7320.9,2787.4 M7301.2,2109.5
		C7223.3,2023.2,5390.5,0,4727,0c-663.3,0-2496.3,2023.2-2574,2109.4l-0.1,0.1c-7.6,8.5-186.6,213-186.6,451.5
		c0,185.6,12.4,372.4,12.5,374.2c0.4,8.6,4.7,87.5,48.5,109c7.1,3.5,14.8,5.2,22.7,5.2c16.3,0,34.4-7.3,54.1-21.7
		C2124,3010.2,3991.2,1361,4727,1361c735.9,0,2603.2,1649.2,2621.9,1665.9c20.3,15,38.7,22.4,55.2,22.4c8,0,15.5-1.7,22.7-5.2
		c43.7-21.4,48.1-100.4,48.4-109.3c0.1-1.4,12.4-188.2,12.4-373.8C7487.7,2322.5,7308.8,2118,7301.2,2109.5"/>
</g>
</svg>
