<svg xmlns="http://www.w3.org/2000/svg" height="36.596" viewBox="0 0 250 36.59555" width="250"><g transform="matrix(1.25 0 0 -1.25 -419.74 490.95)"><g fill-rule="evenodd"><path d="m213.96 0.82617l-29.88 34.596h14.64l29.82-34.568-14.58-0.02783zm20.63 0l-29.88 34.596h14.64l29.82-34.568-14.58-0.02783z" transform="matrix(.8 0 0 -.8 335.79 392.76)" fill="#d50000"/><path d="m63.031 9.1426c-4.243-0.0127-19.133 0.3624-19.133 7.1714 0 4.791 6.966 6.171 12.717 6.791 4.071 0.439 7.522 0.418 7.522 0.418s3.235 0.129 7.154-0.093c6.08-0.346 13.82-1.716 13.82-7.118 0-7.1323-20.21-7.1577-20.988-7.1577-0.097 0-0.486-0.0099-1.092-0.0117zm-39.972 0.1992l-19.743 0.0078c0.0004 0-0.925-0.0792-1.4762 0.3516-0.5147 0.4018-0.5195 1.3088-0.5195 1.3088l-0.1465 10.722c0 1.661 1.8848 1.53 1.8848 1.53l20.689-0.016s6.8 0.169 11.438-1.402c3.04-1.029 4.603-3.002 4.603-5.508 0-2.804-2.701-4.74-6.361-5.756-4.598-1.2751-10.369-1.2382-10.369-1.2382zm88.021 0l-19.736 0.0078s-0.926-0.0792-1.477 0.3516c-0.515 0.4018-0.519 1.3088-0.519 1.3088l-0.149 10.722c0 1.661 1.885 1.53 1.885 1.53l20.696-0.016s6.79 0.169 11.43-1.402c3.04-1.029 4.61-3.002 4.61-5.508 0-2.804-2.7-4.74-6.37-5.756-4.59-1.2751-10.37-1.2382-10.37-1.2382zm59.07 0.0156c-0.18 0-22.9 0.0176-22.9 0.0176s-1.7-0.0096-3.96 0.1934c-4.53 0.4058-11.33 1.7876-11.33 6.7456 0 2.307 1.25 3.941 3.41 4.973 4.7 2.126 12.88 1.967 12.88 1.967h20.44c1.79 0 1.97-1.058 1.97-1.772 0-0.713 0.05-3.541 0.05-5.168 0-1.626-1.76-1.488-1.76-1.488h-18.19c-0.8 0-0.8 0.651-0.8 0.651s-0.04 0.838-0.04 1.582c0 0.746 0.76 0.726 0.76 0.726h10.49c0.69 0 0.77 0.557 0.77 0.557v1.26c0 0.648-0.69 0.691-0.69 0.691h-12.04c-1.86 0-8.38 0-8.38-3.979 0-3.978 7.7-4.015 7.7-4.015h21.51c0.87 0 0.75-1.047 0.75-1.047v-1.3106c0-0.5695-0.46-0.584-0.64-0.584zm7.06 0.0098c-1.61 0-2.13 0.2627-2.18 1.7498-0.04 1.176-0.17 8.523-0.17 10.223 0 1.698 0.94 1.914 2.06 1.914h32.96c0.74 0 0.71-0.574 0.71-0.705v-1.637c0-0.623-0.91-0.619-0.91-0.619h-24.93c-0.97 0-0.94-0.602-0.94-0.602s0.01-0.57 0.01-1.207c0-0.635 0.58-0.738 0.86-0.738h23.46c0.69 0 0.68-0.648 0.68-0.648v-1.621c0-0.701-0.85-0.674-0.85-0.674h-23.37c-0.78 0-0.79-0.791-0.79-0.791l0.02-0.883c0-0.766 0.77-0.83 0.77-0.83h24.72c0.73 0 0.83-0.527 0.83-1.047v-1.3106c0-0.631-0.87-0.5742-0.87-0.5742h-32.07zm-113.02 2.7288c2.066 0 12.055 0.18 12.055 4.267 0.011 4.391-9.321 4.137-12.055 4.137-2.735 0-11.355-0.168-11.355-4.137 0-4.392 9.288-4.267 11.355-4.267zm-40.947 0.203s2.776 0.107 4.898 0.912c1.663 0.631 2.786 1.769 2.786 3.109 0 1.128-0.731 2.265-2.053 2.871-2.261 1.035-5.641 1.098-5.641 1.098l-12.738 0.008s-0.7188 0.018-0.7188-0.649c0 0 0.1133-6.597 0.1133-6.683 0-0.087-0.0083-0.658 0.7515-0.658 0.874 0 12.602-0.008 12.602-0.008zm88.022 0s2.78 0.107 4.9 0.912c1.67 0.631 2.79 1.769 2.79 3.109 0 1.128-0.73 2.265-2.06 2.871-2.26 1.035-5.64 1.098-5.64 1.098l-12.735 0.008s-0.716 0.018-0.716-0.649c0 0 0.111-6.597 0.111-6.683 0-0.087-0.008-0.658 0.752-0.658 0.873 0 12.598-0.008 12.598-0.008z" transform="matrix(.8 0 0 -.8 335.79 392.76)"/></g></g></svg>
