<?xml version="1.0" encoding="UTF-8" standalone="no"?>
<!-- Created with Inkscape (http://www.inkscape.org/) -->

<svg
   xmlns:dc="http://purl.org/dc/elements/1.1/"
   xmlns:cc="http://creativecommons.org/ns#"
   xmlns:rdf="http://www.w3.org/1999/02/22-rdf-syntax-ns#"
   xmlns:svg="http://www.w3.org/2000/svg"
   xmlns="http://www.w3.org/2000/svg"
   xmlns:xlink="http://www.w3.org/1999/xlink"
   xmlns:sodipodi="http://sodipodi.sourceforge.net/DTD/sodipodi-0.dtd"
   xmlns:inkscape="http://www.inkscape.org/namespaces/inkscape"
   version="1.1"
   width="300"
   height="300"
   id="svg2"
   xml:space="preserve"
   inkscape:version="0.48.1 "
   sodipodi:docname="Logo_Fiat.svg"><sodipodi:namedview
     pagecolor="#ffffff"
     bordercolor="#666666"
     borderopacity="1"
     objecttolerance="10"
     gridtolerance="10"
     guidetolerance="10"
     inkscape:pageopacity="0"
     inkscape:pageshadow="2"
     inkscape:window-width="1280"
     inkscape:window-height="738"
     id="namedview80"
     showgrid="false"
     inkscape:zoom="1.73"
     inkscape:cx="150"
     inkscape:cy="150"
     inkscape:window-x="-8"
     inkscape:window-y="-8"
     inkscape:window-maximized="1"
     inkscape:current-layer="svg2" /><metadata
     id="metadata8"><rdf:RDF><cc:Work
         rdf:about=""><dc:format>image/svg+xml</dc:format><dc:type
           rdf:resource="http://purl.org/dc/dcmitype/StillImage" /><dc:title /></cc:Work></rdf:RDF></metadata><defs
     id="defs6"><linearGradient
       id="linearGradient4029"><stop
         style="stop-color:#e60a47;stop-opacity:1;"
         offset="0"
         id="stop4031" /><stop
         id="stop4037"
         offset="1"
         style="stop-color:#7c0626;stop-opacity:1;" /></linearGradient><linearGradient
       id="linearGradient3829"><stop
         style="stop-color:#8c8c8c;stop-opacity:1;"
         offset="0"
         id="stop3831" /><stop
         id="stop3837"
         offset="0.5"
         style="stop-color:#464646;stop-opacity:1;" /><stop
         style="stop-color:#ffffff;stop-opacity:1;"
         offset="0.75"
         id="stop3839" /><stop
         style="stop-color:#ffffff;stop-opacity:1;"
         offset="1"
         id="stop3833" /></linearGradient><radialGradient
       cx="0"
       cy="0"
       r="1"
       fx="0"
       fy="0"
       id="radialGradient3954"
       gradientUnits="userSpaceOnUse"
       gradientTransform="matrix(-51,-42,-42,51,201.892,161.326)"
       spreadMethod="pad"><stop
         id="stop3956"
         style="stop-color:#505050;stop-opacity:1"
         offset="0" /><stop
         id="stop3958"
         style="stop-color:#505050;stop-opacity:1"
         offset="0.5" /><stop
         id="stop3960"
         style="stop-color:#ffffff;stop-opacity:1"
         offset="0.69951999" /><stop
         id="stop3962"
         style="stop-color:#ffffff;stop-opacity:1"
         offset="1" /></radialGradient><linearGradient
       id="linearGradient3920"><stop
         id="stop3922"
         style="stop-color:#000000;stop-opacity:1"
         offset="0" /><stop
         id="stop3924"
         style="stop-color:#000000;stop-opacity:0"
         offset="1" /></linearGradient><linearGradient
       id="linearGradient3904"><stop
         id="stop3906"
         style="stop-color:#d3d1d2;stop-opacity:1"
         offset="0" /><stop
         id="stop3914"
         style="stop-color:#c9c7c8;stop-opacity:1"
         offset="0.5" /><stop
         id="stop3908"
         style="stop-color:#8d8b8c;stop-opacity:1"
         offset="1" /></linearGradient><clipPath
       id="clipPath18"><path
         d="M 1660.88,0 0,0 l 0,1261.58 1660.88,0 0,-1261.58"
         id="path20" /></clipPath><radialGradient
       cx="0"
       cy="0"
       r="1"
       fx="0"
       fy="0"
       id="radialGradient22"
       gradientUnits="userSpaceOnUse"
       gradientTransform="matrix(-337.502,-218.055,-218.055,337.502,362.891,276.112)"
       spreadMethod="pad"><stop
         id="stop24"
         style="stop-color:#ed1c24;stop-opacity:1"
         offset="0" /><stop
         id="stop26"
         style="stop-color:#681318;stop-opacity:1"
         offset="1" /></radialGradient><clipPath
       id="clipPath40"><path
         d="m 1094.29,667.164 c 0.1,-1.012 0.22,-1.965 0.33,-2.984 3.27,-32.551 4.77,-23.84 -0.33,2.984 z M 607.449,803.75 c 0,0 25.906,23.891 44.403,41.492 0,0 -24.668,-13.828 -44.403,-41.492 z m -6.894,-317.059 c 14.668,-29.589 29.101,-48.843 29.101,-48.843 0,0 -13.754,20.746 -29.101,48.843 z m 480.495,284.368 -4.82,14.046 43.05,-15.304 -41.65,21.347 42.3,25.102 -46.49,-19.059 7.44,46.485 -15.09,-44.903 -10.94,3.09 c -22.94,34.106 -54.46,51.176 -94.12,70.2 -73.718,35.371 -171.976,25.992 -171.976,25.992 0,0 116,-1.477 204.73,-54.071 18.326,-10.863 33.606,-25.925 46.286,-42.949 l -19.15,-1.055 21.95,-2.8 c 2.07,-2.918 4.07,-5.883 5.99,-8.891 l -25.48,-14.719 27.49,11.539 c 2.83,-4.586 5.52,-9.254 8.05,-13.976 l -10.87,-34.028 12.85,30.286 c 19.04,-36.828 29.07,-75.95 33.69,-100.227 -5.33,50.816 -14.63,87.039 -27.77,114.211 l 0.96,2.254 c 0,0 48.1,-62.867 39.47,-165.977 -8.63,-103.109 -33.3,-139.574 -57.97,-164.722 l -1.23,12.578 c 0,0 -35.76,-106.887 -213.363,-104.367 -177.602,2.519 -191.168,60.351 -191.168,60.351 l -9.867,5.039 c 0,0 -41.93,32.684 -67.832,119.449 -25.903,86.762 -1.235,157.176 -1.235,157.176 0,0 -13.566,-57.84 -3.699,-116.937 5.113,-30.625 23.461,-69.324 39.969,-99.528 -12.117,24.43 -24.403,55.907 -28.867,89.469 -9.872,74.188 -7.403,124.485 4.929,162.203 12.332,37.719 19.735,54.071 19.735,54.071 0,0 -51.797,-60.36 -53.032,-188.614 -1.234,-128.257 107.297,-216.273 155.395,-235.136 48.101,-18.86 199.801,-44.004 291.066,20.117 91.269,64.129 85.099,80.472 114.699,139.578 29.61,59.098 17.27,178.551 -23.43,242.68 z m -21.6,23.519 c -0.1,0.164 -0.19,0.328 -0.29,0.485 l 0.92,-0.118 -0.63,-0.367 z m 4.24,-7.57 c -0.52,0.984 -1.04,1.988 -1.57,2.949 l 2.9,1.219 -1.33,-4.168 z m -434.034,5.426 c 7.395,12.574 45.629,35.207 45.629,35.207 0,0 -20.969,-12.578 -44.398,-40.239 -23.438,-27.66 8.633,2.516 51.801,31.438 43.164,28.918 103.597,26.402 103.597,26.402 0,0 -19.73,15.09 -94.965,-8.804 l 72.766,31.437 c 0,0 -110.996,-23.891 -143.066,-69.156 -32.071,-45.266 1.23,-18.86 8.636,-6.285 z m 371.254,3.976 c 13.61,-14.133 23.41,-26.609 23.41,-26.609 0,0 -4.01,12.711 -23.41,26.609 z M 579.086,611.363 c 13.566,-133.285 70.301,-189.871 70.301,-189.871 0,0 43.164,-42.75 177.597,-49.035 134.43,-6.285 177.606,46.523 181.306,55.324 3.7,8.801 -17.274,-5.027 -23.438,-2.511 -6.168,2.511 19.738,49.039 19.738,49.039 -13.57,-50.297 7.4,7.543 20.96,1.254 13.57,-6.282 -27.132,-22.633 -13.56,-35.208 13.56,-12.574 41.92,76.704 60.43,116.942 18.5,40.234 12.33,81.73 11.1,108.137 -1.23,26.406 -7.4,37.722 -7.4,37.722 l -3.7,-62.875 c 0,0 2.47,-8.797 -17.27,35.215 l -16.03,42.75 c -11.1,-196.16 -55.507,-270.351 -55.507,-270.351 0,0 -16.031,-49.032 -145.531,-50.293 -129.496,-1.25 -148,32.699 -148,32.699 -41.93,55.324 -66.598,173.519 -60.426,251.476 6.164,77.961 0,99.34 55.496,123.231 55.5,23.887 139.364,26.406 139.364,26.406 100.734,2.832 151.375,-17.074 176.394,-35.004 -3.121,3.238 -6.441,6.574 -9.894,9.852 -18.5,17.601 -189.934,54.07 -279.965,18.863 -90.031,-35.207 -96.199,-69.156 -90.031,-172.266 6.168,-103.109 38.234,-188.609 60.433,-221.304 22.199,-32.692 101.133,-42.754 101.133,-42.754 -107.301,2.519 -119.633,59.094 -125.801,69.164 -6.168,10.058 -24.668,30.18 -28.367,13.828 -3.699,-16.344 -36.859,83.609 -30.691,88.641 6.164,5.031 44.257,-50.922 44.257,-50.922 0,0 -13.566,27.668 -27.132,105.625 -13.567,77.957 7.398,116.937 -6.168,119.453 -13.567,2.515 16.871,-115.035 -21.985,-120.262 -11.07,-1.492 -1.883,103.965 3.055,125.34 4.93,21.379 10.301,27.617 10.301,27.617 0,0 -34.535,-22.637 -20.969,-155.922"
         id="path42" /></clipPath><radialGradient
       cx="0"
       cy="0"
       r="1"
       fx="0"
       fy="0"
       id="radialGradient44"
       gradientUnits="userSpaceOnUse"
       gradientTransform="matrix(67.763,0,0,-67.763,199.694,149.613)"
       spreadMethod="pad"><stop
         id="stop46"
         style="stop-color:#231f20;stop-opacity:1"
         offset="0" /><stop
         id="stop48"
         style="stop-color:#5a5758;stop-opacity:1"
         offset="0.787" /><stop
         id="stop50"
         style="stop-color:#ffffff;stop-opacity:1"
         offset="1" /></radialGradient><clipPath
       id="clipPath60"><path
         d="m 945.227,428.563 c 2.253,0.941 4.445,1.937 6.57,2.996 l 2.922,384.324 c -2.703,0.742 -5.489,1.437 -8.34,2.086 l -1.152,-389.406 z m -49.946,396.085 c -0.422,-58.207 -2.008,-261.89 -4.715,-408.027 6.297,0.59 12.282,1.324 17.993,2.215 -2.614,149.793 -3.793,354.957 -4.055,405.168 -3.02,0.242 -6.098,0.453 -9.223,0.644 z m 13.465,-1.023 4.434,-404.02 c 2.105,0.368 4.179,0.762 6.199,1.184 -1.52,148.469 -2.149,350.082 -2.293,402.012 -2.719,0.308 -5.523,0.566 -8.34,0.824 z m 25.77,-398.934 c 2.23,0.696 4.414,1.438 6.539,2.231 l 1.16,391.965 c -2.719,0.558 -5.52,1.062 -8.363,1.543 0.105,-60.285 0.488,-287.075 0.664,-395.739 z m -98.067,401.231 c -1.328,-0.012 -2.597,-0.035 -3.914,-0.047 l 4.512,-411.605 c 2.101,0.023 4.168,0.054 6.215,0.085 -1.59,147.356 -2.254,354.817 -2.414,411.579 -1.477,-0.012 -2.903,0 -4.399,-0.012 z m 8.625,0.016 2.602,-411.5 c 2.144,0.039 4.265,0.093 6.355,0.148 -0.504,147.324 -0.597,354.594 -0.609,411.34 -2.742,0.019 -5.551,0.015 -8.348,0.012 z M 956.266,433.934 c 2.175,1.23 4.293,2.535 6.336,3.925 l 4.582,374.059 c -2.668,0.984 -5.403,1.926 -8.243,2.785 -0.285,-60.379 -1.218,-240.765 -2.675,-380.769 z m 28.886,369.644 3.711,-338.426 c 2.18,3.379 4.246,6.981 6.215,10.813 -1.004,122.539 -1.504,260.89 -1.691,322.082 -2.61,1.957 -5.328,3.824 -8.235,5.531 z M 1010.6,518.25 c 2.58,9.715 4.92,20.324 7.08,31.926 l 0.64,216.652 c -2.39,5.129 -5.11,9.828 -8.16,14.098 0.1,-61.852 0.29,-171.059 0.44,-262.676 z M 882.719,825.285 c -0.27,-57.457 -1.301,-262.805 -2.953,-409.531 2.113,0.144 4.211,0.297 6.265,0.465 l 4.996,408.679 c -2.726,0.145 -5.5,0.274 -8.308,0.387 z m 139.741,-68.664 -0.54,-180.828 c 2.03,13.73 3.9,28.59 5.65,44.734 0.86,7.805 1.53,15.207 2.12,22.426 l 0.58,75.906 c -1.47,14.469 -4.06,26.965 -7.81,37.762 z m -17.88,31.336 c -2.14,2.359 -4.46,4.539 -6.889,6.633 l 1.954,-308.91 c 2.355,5.492 4.555,11.402 6.605,17.758 -0.22,107.746 -0.3,222.187 -0.33,282.882 -0.46,0.532 -0.87,1.114 -1.34,1.637 z M 716.445,429.746 c 2.09,-1.066 4.243,-2.07 6.457,-3 l 2.973,390.688 c -2.82,-0.594 -5.605,-1.2 -8.285,-1.871 l -1.145,-385.817 z m 141.852,-15.035 c 2.183,0.07 4.336,0.148 6.461,0.234 l 1.215,410.844 c -2.727,0.051 -5.567,0.066 -8.368,0.094 0.106,-63.117 0.524,-310.133 0.692,-411.172 z m 10.629,0.422 c 2.183,0.105 4.344,0.215 6.465,0.34 l 3.117,409.98 c -2.742,0.094 -5.555,0.16 -8.371,0.227 l -1.211,-410.547 z m 52.379,407.14 2.535,-400.5 c 2.18,0.512 4.305,1.071 6.394,1.653 -0.468,146.625 -0.554,343.562 -0.57,397.73 -2.715,0.414 -5.539,0.762 -8.359,1.117 z M 652.195,555.258 c 1.938,-11.199 3.996,-21.531 6.223,-31.047 l 3.195,260.93 c -2.937,-3.411 -5.597,-7.09 -7.968,-11.102 -0.313,-57.91 -0.801,-138.891 -1.45,-218.781 z m -11.379,88.222 c 0.848,-9.32 1.879,-19.152 3.106,-29.605 1.258,-10.672 2.547,-20.762 3.887,-30.34 l 1.382,181.84 c -3.574,-8.027 -6.257,-17.238 -8.093,-27.934 l -0.282,-93.961 z m 25.336,146.356 c -0.566,-69.316 -1.609,-181.477 -3.105,-283.414 4.637,-15.977 9.961,-29.262 16.262,-40.274 -1.813,116.977 -2.84,256.911 -3.297,331.793 -3.571,-2.476 -6.848,-5.183 -9.86,-8.105 z m 305.305,20.402 c -0.465,-63.258 -1.848,-233.394 -4.117,-368.953 6.172,4.789 11.723,10.43 16.742,17.031 -1.949,132.102 -2.937,288.493 -3.262,347.559 -2.984,1.563 -6.097,3.023 -9.363,4.363 z m -291.019,-9.394 3.757,-342.477 c 2.016,-2.933 4.114,-5.691 6.321,-8.258 -1.203,123.786 -1.817,279.094 -2.063,355.129 -2.801,-1.371 -5.465,-2.84 -8.015,-4.394 z m 12.328,6.351 2.293,-361.976 c 2.066,-2.059 4.207,-3.996 6.437,-5.801 -0.406,128.258 -0.527,295.016 -0.558,371.055 -2.829,-1.024 -5.547,-2.118 -8.172,-3.278 z m 126.238,18.496 c -0.473,-64.55 -2.098,-268.281 -4.828,-411.496 5.883,-0.043 11.984,-0.027 18.312,0.028 -2.679,147.273 -3.91,354.668 -4.207,411.597 -3.113,-0.035 -6.238,-0.07 -9.277,-0.129 z m -62.613,-3.554 4.441,-404.93 c 2.039,-0.273 4.106,-0.527 6.223,-0.758 -1.551,141.145 -2.235,339.547 -2.43,406.543 -2.812,-0.254 -5.516,-0.558 -8.234,-0.855 z M 705.789,436.172 c 2.094,-1.481 4.258,-2.871 6.5,-4.164 l 1.129,382.406 c -2.828,-0.773 -5.594,-1.59 -8.262,-2.469 0.141,-83.961 0.473,-280.222 0.633,-375.773 z m 100.66,389.211 c -0.308,-64.86 -1.355,-268.067 -3.004,-411.043 2.051,-0.043 4.137,-0.078 6.246,-0.102 l 5.036,411.348 c -2.774,-0.063 -5.567,-0.117 -8.278,-0.203 z m -76.304,-7.098 c -0.368,-74.461 -1.364,-258.851 -2.883,-393.246 2.027,-0.75 4.093,-1.461 6.226,-2.113 l 4.86,396.828 c -2.805,-0.449 -5.516,-0.949 -8.203,-1.469 z m 12.539,2.106 c -0.559,-73.664 -2.141,-262.809 -4.715,-398.746 5.722,-1.54 11.82,-2.786 18.308,-3.786 -2.574,140.133 -3.816,335.786 -4.191,403.813 -3.219,-0.387 -6.324,-0.832 -9.402,-1.281 z m 49.98,-405.735 c 2.109,-0.082 4.258,-0.152 6.43,-0.207 l 3.125,410.785 c -2.817,-0.101 -5.598,-0.207 -8.344,-0.328 l -1.211,-410.25 z m -10.601,0.535 c 2.105,-0.132 4.257,-0.246 6.437,-0.347 l 1.211,409.875 c -2.836,-0.137 -5.582,-0.313 -8.34,-0.481 0.125,-73.836 0.531,-314.586 0.692,-409.047 z m -13.188,408.145 2.578,-407.328 c 2.082,-0.192 4.199,-0.367 6.352,-0.524 -0.5,141.883 -0.61,342.332 -0.629,408.512 -2.836,-0.191 -5.555,-0.433 -8.301,-0.66"
         id="path62" /></clipPath><radialGradient
       cx="0"
       cy="0"
       r="1"
       fx="0"
       fy="0"
       id="radialGradient64"
       gradientUnits="userSpaceOnUse"
       gradientTransform="matrix(-21.51,-25.362,-25.362,21.51,209.613,164.228)"
       spreadMethod="pad"><stop
         id="stop66"
         style="stop-color:#ed1c24;stop-opacity:1"
         offset="0" /><stop
         id="stop68"
         style="stop-color:#961a1f;stop-opacity:1"
         offset="1" /></radialGradient><clipPath
       id="clipPath76"><path
         d="m 757.344,501.234 38.242,0 0,236.043 -38.242,0 0,-236.043 z m -83.078,0 38.242,0 0,106.813 27.691,0 0,30.328 -27.691,0 0,68.574 31.648,0 0,30.328 -69.89,0 0,-236.043 z m 232.086,236.043 0,-30.328 23.746,0 0,-205.715 38.242,0 0,205.715 26.359,0 0,30.328 -88.347,0 z m -22.418,0 -72.524,0 0,-236.043 38.242,0 0,106.813 29.973,0 c 0,0 1.582,-7.551 1.66,-18.469 0.09,-10.922 0,-88.344 0,-88.344 l 33.856,0 0,88.344 c 0,0 0,40.567 -7.805,78.867 -7.805,38.301 -23.402,68.832 -23.402,68.832 z m -7.032,-98.902 -27.25,0 0,68.574 7.578,0 c 0,0 10.848,-14.148 15.391,-36.847 4.539,-22.7 4.281,-31.727 4.281,-31.727"
         id="path78" /></clipPath><radialGradient
       cx="0"
       cy="0"
       r="1"
       fx="0"
       fy="0"
       id="radialGradient80"
       gradientUnits="userSpaceOnUse"
       gradientTransform="matrix(-51,-42,-42,51,201.892,161.326)"
       spreadMethod="pad"><stop
         id="stop82"
         style="stop-color:#505050;stop-opacity:1"
         offset="0" /><stop
         id="stop3930"
         style="stop-color:#505050;stop-opacity:1"
         offset="0.5" /><stop
         id="stop3950"
         style="stop-color:#ffffff;stop-opacity:1"
         offset="0.75" /><stop
         id="stop3928"
         style="stop-color:#ffffff;stop-opacity:1"
         offset="1" /></radialGradient><radialGradient
       cx="834.48248"
       cy="619.25549"
       r="160.21651"
       fx="834.48248"
       fy="619.25549"
       id="radialGradient3912"
       xlink:href="#linearGradient3904"
       gradientUnits="userSpaceOnUse"
       gradientTransform="matrix(1,0,0,0.73663761,0,163.08861)" /><linearGradient
       x1="555.90936"
       y1="356.2735"
       x2="1120.8103"
       y2="623.38885"
       id="linearGradient3926"
       xlink:href="#radialGradient80"
       gradientUnits="userSpaceOnUse" /><linearGradient
       x1="555.90936"
       y1="356.2735"
       x2="1113.2505"
       y2="893.02417"
       id="linearGradient3952"
       xlink:href="#radialGradient3954"
       gradientUnits="userSpaceOnUse" /><radialGradient
       cx="0"
       cy="0"
       r="1"
       fx="0"
       fy="0"
       id="radialGradient64-315"
       gradientUnits="userSpaceOnUse"
       gradientTransform="matrix(-21.51,-25.362,-25.362,21.51,209.613,164.228)"
       spreadMethod="pad"><stop
         id="stop4255"
         style="stop-color:#ff1f28;stop-opacity:1"
         offset="0" /><stop
         id="stop4257"
         style="stop-color:#a71d22;stop-opacity:1"
         offset="1" /></radialGradient><linearGradient
       x1="555.90936"
       y1="356.2735"
       x2="1113.2505"
       y2="893.02417"
       id="linearGradient4360"
       xlink:href="#radialGradient3954"
       gradientUnits="userSpaceOnUse" /><linearGradient
       x1="555.90936"
       y1="356.2735"
       x2="1120.8103"
       y2="623.38885"
       id="linearGradient4362"
       xlink:href="#radialGradient80"
       gradientUnits="userSpaceOnUse" /><linearGradient
       x1="555.90936"
       y1="356.2735"
       x2="1120.8103"
       y2="623.38885"
       id="linearGradient4364"
       xlink:href="#radialGradient80"
       gradientUnits="userSpaceOnUse" /><radialGradient
       cx="0"
       cy="0"
       r="1"
       fx="0"
       fy="0"
       id="radialGradient4366"
       xlink:href="#radialGradient64-315"
       gradientUnits="userSpaceOnUse"
       gradientTransform="matrix(-21.51,-25.362,-25.362,21.51,209.613,164.228)"
       spreadMethod="pad" /><radialGradient
       cx="834.48248"
       cy="619.25549"
       r="160.21651"
       fx="834.48248"
       fy="619.25549"
       id="radialGradient4368"
       xlink:href="#linearGradient3904"
       gradientUnits="userSpaceOnUse"
       gradientTransform="matrix(1,0,0,0.73663761,0,163.08861)" /><radialGradient
       cx="834.48248"
       cy="619.25549"
       r="160.21651"
       fx="834.48248"
       fy="619.25549"
       id="radialGradient4370"
       xlink:href="#linearGradient3904"
       gradientUnits="userSpaceOnUse"
       gradientTransform="matrix(1,0,0,0.73663761,0,163.08861)" /><radialGradient
       cx="834.48248"
       cy="619.25549"
       r="160.21651"
       fx="834.48248"
       fy="619.25549"
       id="radialGradient4372"
       xlink:href="#linearGradient3904"
       gradientUnits="userSpaceOnUse"
       gradientTransform="matrix(1,0,0,0.73663761,0,163.08861)" /><linearGradient
       x1="555.90936"
       y1="356.2735"
       x2="1113.2505"
       y2="893.02417"
       id="linearGradient4414"
       xlink:href="#radialGradient3954"
       gradientUnits="userSpaceOnUse" /><linearGradient
       x1="555.90936"
       y1="356.2735"
       x2="1120.8103"
       y2="623.38885"
       id="linearGradient4416"
       xlink:href="#radialGradient80"
       gradientUnits="userSpaceOnUse" /><linearGradient
       x1="555.90936"
       y1="356.2735"
       x2="1120.8103"
       y2="623.38885"
       id="linearGradient4418"
       xlink:href="#radialGradient80"
       gradientUnits="userSpaceOnUse" /><radialGradient
       cx="0"
       cy="0"
       r="1"
       fx="0"
       fy="0"
       id="radialGradient4420"
       xlink:href="#radialGradient64-315"
       gradientUnits="userSpaceOnUse"
       gradientTransform="matrix(-21.51,-25.362,-25.362,21.51,209.613,164.228)"
       spreadMethod="pad" /><radialGradient
       cx="834.48248"
       cy="619.25549"
       r="160.21651"
       fx="834.48248"
       fy="619.25549"
       id="radialGradient4422"
       xlink:href="#linearGradient3904"
       gradientUnits="userSpaceOnUse"
       gradientTransform="matrix(1,0,0,0.73663761,0,163.08861)" /><radialGradient
       cx="834.48248"
       cy="619.25549"
       r="160.21651"
       fx="834.48248"
       fy="619.25549"
       id="radialGradient4424"
       xlink:href="#linearGradient3904"
       gradientUnits="userSpaceOnUse"
       gradientTransform="matrix(1,0,0,0.73663761,0,163.08861)" /><radialGradient
       cx="834.48248"
       cy="619.25549"
       r="160.21651"
       fx="834.48248"
       fy="619.25549"
       id="radialGradient4426"
       xlink:href="#linearGradient3904"
       gradientUnits="userSpaceOnUse"
       gradientTransform="matrix(1,0,0,0.73663761,0,163.08861)" /><linearGradient
       inkscape:collect="always"
       xlink:href="#radialGradient3954"
       id="linearGradient3076"
       gradientUnits="userSpaceOnUse"
       x1="555.90936"
       y1="356.2735"
       x2="1113.2505"
       y2="893.02417" /><linearGradient
       inkscape:collect="always"
       xlink:href="#radialGradient80"
       id="linearGradient3078"
       gradientUnits="userSpaceOnUse"
       x1="555.90936"
       y1="356.2735"
       x2="1120.8103"
       y2="623.38885" /><linearGradient
       inkscape:collect="always"
       xlink:href="#radialGradient80"
       id="linearGradient3080"
       gradientUnits="userSpaceOnUse"
       x1="555.90936"
       y1="356.2735"
       x2="1120.8103"
       y2="623.38885" /><radialGradient
       inkscape:collect="always"
       xlink:href="#linearGradient3904"
       id="radialGradient3086"
       gradientUnits="userSpaceOnUse"
       gradientTransform="matrix(1,0,0,0.73663761,0,163.08861)"
       cx="834.48248"
       cy="619.25549"
       fx="834.48248"
       fy="619.25549"
       r="160.21651" /><radialGradient
       inkscape:collect="always"
       xlink:href="#linearGradient3904"
       id="radialGradient3088"
       gradientUnits="userSpaceOnUse"
       gradientTransform="matrix(1,0,0,0.73663761,0,163.08861)"
       cx="834.48248"
       cy="619.25549"
       fx="834.48248"
       fy="619.25549"
       r="160.21651" /><linearGradient
       inkscape:collect="always"
       xlink:href="#linearGradient3829"
       id="linearGradient3843"
       x1="547.98193"
       y1="353.55768"
       x2="1114.9698"
       y2="895.55621"
       gradientUnits="userSpaceOnUse" /><linearGradient
       inkscape:collect="always"
       xlink:href="#linearGradient3829"
       id="linearGradient3068"
       gradientUnits="userSpaceOnUse"
       x1="547.98193"
       y1="353.55768"
       x2="1114.9698"
       y2="895.55621" /><linearGradient
       inkscape:collect="always"
       xlink:href="#linearGradient3829"
       id="linearGradient3070"
       gradientUnits="userSpaceOnUse"
       x1="547.98193"
       y1="353.55768"
       x2="1114.9698"
       y2="895.55621" /><radialGradient
       inkscape:collect="always"
       xlink:href="#linearGradient3904"
       id="radialGradient3107"
       gradientUnits="userSpaceOnUse"
       gradientTransform="matrix(1,0,0,0.73663761,0,163.08861)"
       cx="834.48248"
       cy="619.25549"
       fx="834.48248"
       fy="619.25549"
       r="160.21651" /><radialGradient
       inkscape:collect="always"
       xlink:href="#linearGradient3904"
       id="radialGradient3109"
       gradientUnits="userSpaceOnUse"
       gradientTransform="matrix(1,0,0,0.73663761,0,163.08861)"
       cx="834.48248"
       cy="619.25549"
       fx="834.48248"
       fy="619.25549"
       r="160.21651" /><radialGradient
       inkscape:collect="always"
       xlink:href="#linearGradient3904"
       id="radialGradient3111"
       gradientUnits="userSpaceOnUse"
       gradientTransform="matrix(1,0,0,0.73663761,0,163.08861)"
       cx="834.48248"
       cy="619.25549"
       fx="834.48248"
       fy="619.25549"
       r="160.21651" /><linearGradient
       inkscape:collect="always"
       xlink:href="#linearGradient3829"
       id="linearGradient3134"
       gradientUnits="userSpaceOnUse"
       x1="547.98193"
       y1="353.55768"
       x2="1114.9698"
       y2="895.55621" /><linearGradient
       inkscape:collect="always"
       xlink:href="#linearGradient3829"
       id="linearGradient3136"
       gradientUnits="userSpaceOnUse"
       x1="547.98193"
       y1="353.55768"
       x2="1114.9698"
       y2="895.55621" /><linearGradient
       inkscape:collect="always"
       xlink:href="#linearGradient3829"
       id="linearGradient3138"
       gradientUnits="userSpaceOnUse"
       x1="547.98193"
       y1="353.55768"
       x2="1114.9698"
       y2="895.55621" /><radialGradient
       inkscape:collect="always"
       xlink:href="#linearGradient3904"
       id="radialGradient3140"
       gradientUnits="userSpaceOnUse"
       gradientTransform="matrix(1,0,0,0.73663761,0,163.08861)"
       cx="834.48248"
       cy="619.25549"
       fx="834.48248"
       fy="619.25549"
       r="160.21651" /><radialGradient
       inkscape:collect="always"
       xlink:href="#linearGradient3904"
       id="radialGradient3142"
       gradientUnits="userSpaceOnUse"
       gradientTransform="matrix(1,0,0,0.73663761,0,163.08861)"
       cx="834.48248"
       cy="619.25549"
       fx="834.48248"
       fy="619.25549"
       r="160.21651" /><radialGradient
       inkscape:collect="always"
       xlink:href="#linearGradient3904"
       id="radialGradient3144"
       gradientUnits="userSpaceOnUse"
       gradientTransform="matrix(1,0,0,0.73663761,0,163.08861)"
       cx="834.48248"
       cy="619.25549"
       fx="834.48248"
       fy="619.25549"
       r="160.21651" /><radialGradient
       inkscape:collect="always"
       xlink:href="#linearGradient3904"
       id="radialGradient3894"
       cx="55"
       cy="33.845501"
       fx="55"
       fy="33.845501"
       r="55"
       gradientTransform="matrix(1,0,0,0.61537636,0,13.017779)"
       gradientUnits="userSpaceOnUse" /><radialGradient
       inkscape:collect="always"
       xlink:href="#linearGradient3904"
       id="radialGradient3941"
       gradientUnits="userSpaceOnUse"
       gradientTransform="matrix(1,0,0,0.61537636,0,13.017779)"
       cx="55"
       cy="33.845501"
       fx="55"
       fy="33.845501"
       r="55" /><radialGradient
       inkscape:collect="always"
       xlink:href="#linearGradient3904"
       id="radialGradient3943"
       gradientUnits="userSpaceOnUse"
       gradientTransform="matrix(1,0,0,0.61537636,0,13.017779)"
       cx="55"
       cy="33.845501"
       fx="55"
       fy="33.845501"
       r="55" /><radialGradient
       inkscape:collect="always"
       xlink:href="#linearGradient3904"
       id="radialGradient3945"
       gradientUnits="userSpaceOnUse"
       gradientTransform="matrix(1,0,0,0.61537636,0,13.017779)"
       cx="55"
       cy="33.845501"
       fx="55"
       fy="33.845501"
       r="55" /><radialGradient
       inkscape:collect="always"
       xlink:href="#linearGradient3904"
       id="radialGradient3947"
       gradientUnits="userSpaceOnUse"
       gradientTransform="matrix(1,0,0,0.61537636,0,13.017779)"
       cx="55"
       cy="33.845501"
       fx="55"
       fy="33.845501"
       r="55" /><radialGradient
       inkscape:collect="always"
       xlink:href="#linearGradient3904"
       id="radialGradient3949"
       gradientUnits="userSpaceOnUse"
       gradientTransform="matrix(1,0,0,0.61537636,0,13.017779)"
       cx="55"
       cy="33.845501"
       fx="55"
       fy="33.845501"
       r="55" /><radialGradient
       inkscape:collect="always"
       xlink:href="#linearGradient3904"
       id="radialGradient3112"
       gradientUnits="userSpaceOnUse"
       gradientTransform="matrix(1,0,0,0.61537636,0,13.017779)"
       cx="55"
       cy="33.845501"
       fx="55"
       fy="33.845501"
       r="55" /><radialGradient
       inkscape:collect="always"
       xlink:href="#linearGradient3904"
       id="radialGradient3114"
       gradientUnits="userSpaceOnUse"
       gradientTransform="matrix(1,0,0,0.61537636,0,13.017779)"
       cx="55"
       cy="33.845501"
       fx="55"
       fy="33.845501"
       r="55" /><radialGradient
       inkscape:collect="always"
       xlink:href="#linearGradient3904"
       id="radialGradient3116"
       gradientUnits="userSpaceOnUse"
       gradientTransform="matrix(1,0,0,0.61537636,0,13.017779)"
       cx="55"
       cy="33.845501"
       fx="55"
       fy="33.845501"
       r="55" /><radialGradient
       inkscape:collect="always"
       xlink:href="#linearGradient3904"
       id="radialGradient3118"
       gradientUnits="userSpaceOnUse"
       gradientTransform="matrix(1,0,0,0.61537636,0,13.017779)"
       cx="55"
       cy="33.845501"
       fx="55"
       fy="33.845501"
       r="55" /><radialGradient
       inkscape:collect="always"
       xlink:href="#linearGradient3904"
       id="radialGradient3120"
       gradientUnits="userSpaceOnUse"
       gradientTransform="matrix(1,0,0,0.61537636,0,13.017779)"
       cx="55"
       cy="33.845501"
       fx="55"
       fy="33.845501"
       r="55" /><radialGradient
       inkscape:collect="always"
       xlink:href="#linearGradient3904"
       id="radialGradient3122"
       gradientUnits="userSpaceOnUse"
       gradientTransform="matrix(1,0,0,0.61537636,0,13.017779)"
       cx="55"
       cy="33.845501"
       fx="55"
       fy="33.845501"
       r="55" /><radialGradient
       inkscape:collect="always"
       xlink:href="#linearGradient3904"
       id="radialGradient3139"
       gradientUnits="userSpaceOnUse"
       gradientTransform="matrix(1,0,0,0.61537636,0,13.017779)"
       cx="55"
       cy="33.845501"
       fx="55"
       fy="33.845501"
       r="55" /><radialGradient
       inkscape:collect="always"
       xlink:href="#linearGradient3904"
       id="radialGradient3141"
       gradientUnits="userSpaceOnUse"
       gradientTransform="matrix(1,0,0,0.61537636,0,13.017779)"
       cx="55"
       cy="33.845501"
       fx="55"
       fy="33.845501"
       r="55" /><radialGradient
       inkscape:collect="always"
       xlink:href="#linearGradient3904"
       id="radialGradient3143"
       gradientUnits="userSpaceOnUse"
       gradientTransform="matrix(1,0,0,0.61537636,0,13.017779)"
       cx="55"
       cy="33.845501"
       fx="55"
       fy="33.845501"
       r="55" /><radialGradient
       inkscape:collect="always"
       xlink:href="#XMLID_6_"
       id="radialGradient3189"
       gradientUnits="userSpaceOnUse"
       cx="100.7881"
       cy="104.5234"
       r="83.874901"
       gradientTransform="translate(6.1965318,-0.77456647)" /><radialGradient
       id="XMLID_6_"
       cx="100.7881"
       cy="104.5234"
       r="83.874901"
       gradientUnits="userSpaceOnUse"><stop
         offset="0.0056"
         style="stop-color:#C4513D"
         id="stop3434" /><stop
         offset="1"
         style="stop-color:#991F22"
         id="stop3436" /></radialGradient><radialGradient
       id="XMLID_6_-7"
       cx="100.7881"
       cy="104.5234"
       r="83.874901"
       gradientUnits="userSpaceOnUse"><stop
         offset="0.0056"
         style="stop-color:#C4513D"
         id="stop3434-4" /><stop
         offset="1"
         style="stop-color:#991F22"
         id="stop3436-0" /></radialGradient><radialGradient
       inkscape:collect="always"
       xlink:href="#XMLID_6_-7"
       id="radialGradient3425"
       gradientUnits="userSpaceOnUse"
       gradientTransform="translate(6.1965318,-0.77456647)"
       cx="100.7881"
       cy="104.5234"
       r="83.874901" /><clipPath
       id="clipPath60-4"><path
         inkscape:connector-curvature="0"
         d="m 945.227,428.563 c 2.253,0.941 4.445,1.937 6.57,2.996 l 2.922,384.324 c -2.703,0.742 -5.489,1.437 -8.34,2.086 l -1.152,-389.406 z m -49.946,396.085 c -0.422,-58.207 -2.008,-261.89 -4.715,-408.027 6.297,0.59 12.282,1.324 17.993,2.215 -2.614,149.793 -3.793,354.957 -4.055,405.168 -3.02,0.242 -6.098,0.453 -9.223,0.644 z m 13.465,-1.023 4.434,-404.02 c 2.105,0.368 4.179,0.762 6.199,1.184 -1.52,148.469 -2.149,350.082 -2.293,402.012 -2.719,0.308 -5.523,0.566 -8.34,0.824 z m 25.77,-398.934 c 2.23,0.696 4.414,1.438 6.539,2.231 l 1.16,391.965 c -2.719,0.558 -5.52,1.062 -8.363,1.543 0.105,-60.285 0.488,-287.075 0.664,-395.739 z m -98.067,401.231 c -1.328,-0.012 -2.597,-0.035 -3.914,-0.047 l 4.512,-411.605 c 2.101,0.023 4.168,0.054 6.215,0.085 -1.59,147.356 -2.254,354.817 -2.414,411.579 -1.477,-0.012 -2.903,0 -4.399,-0.012 z m 8.625,0.016 2.602,-411.5 c 2.144,0.039 4.265,0.093 6.355,0.148 -0.504,147.324 -0.597,354.594 -0.609,411.34 -2.742,0.019 -5.551,0.015 -8.348,0.012 z M 956.266,433.934 c 2.175,1.23 4.293,2.535 6.336,3.925 l 4.582,374.059 c -2.668,0.984 -5.403,1.926 -8.243,2.785 -0.285,-60.379 -1.218,-240.765 -2.675,-380.769 z m 28.886,369.644 3.711,-338.426 c 2.18,3.379 4.246,6.981 6.215,10.813 -1.004,122.539 -1.504,260.89 -1.691,322.082 -2.61,1.957 -5.328,3.824 -8.235,5.531 z M 1010.6,518.25 c 2.58,9.715 4.92,20.324 7.08,31.926 l 0.64,216.652 c -2.39,5.129 -5.11,9.828 -8.16,14.098 0.1,-61.852 0.29,-171.059 0.44,-262.676 z M 882.719,825.285 c -0.27,-57.457 -1.301,-262.805 -2.953,-409.531 2.113,0.144 4.211,0.297 6.265,0.465 l 4.996,408.679 c -2.726,0.145 -5.5,0.274 -8.308,0.387 z m 139.741,-68.664 -0.54,-180.828 c 2.03,13.73 3.9,28.59 5.65,44.734 0.86,7.805 1.53,15.207 2.12,22.426 l 0.58,75.906 c -1.47,14.469 -4.06,26.965 -7.81,37.762 z m -17.88,31.336 c -2.14,2.359 -4.46,4.539 -6.889,6.633 l 1.954,-308.91 c 2.355,5.492 4.555,11.402 6.605,17.758 -0.22,107.746 -0.3,222.187 -0.33,282.882 -0.46,0.532 -0.87,1.114 -1.34,1.637 z M 716.445,429.746 c 2.09,-1.066 4.243,-2.07 6.457,-3 l 2.973,390.688 c -2.82,-0.594 -5.605,-1.2 -8.285,-1.871 l -1.145,-385.817 z m 141.852,-15.035 c 2.183,0.07 4.336,0.148 6.461,0.234 l 1.215,410.844 c -2.727,0.051 -5.567,0.066 -8.368,0.094 0.106,-63.117 0.524,-310.133 0.692,-411.172 z m 10.629,0.422 c 2.183,0.105 4.344,0.215 6.465,0.34 l 3.117,409.98 c -2.742,0.094 -5.555,0.16 -8.371,0.227 l -1.211,-410.547 z m 52.379,407.14 2.535,-400.5 c 2.18,0.512 4.305,1.071 6.394,1.653 -0.468,146.625 -0.554,343.562 -0.57,397.73 -2.715,0.414 -5.539,0.762 -8.359,1.117 z M 652.195,555.258 c 1.938,-11.199 3.996,-21.531 6.223,-31.047 l 3.195,260.93 c -2.937,-3.411 -5.597,-7.09 -7.968,-11.102 -0.313,-57.91 -0.801,-138.891 -1.45,-218.781 z m -11.379,88.222 c 0.848,-9.32 1.879,-19.152 3.106,-29.605 1.258,-10.672 2.547,-20.762 3.887,-30.34 l 1.382,181.84 c -3.574,-8.027 -6.257,-17.238 -8.093,-27.934 l -0.282,-93.961 z m 25.336,146.356 c -0.566,-69.316 -1.609,-181.477 -3.105,-283.414 4.637,-15.977 9.961,-29.262 16.262,-40.274 -1.813,116.977 -2.84,256.911 -3.297,331.793 -3.571,-2.476 -6.848,-5.183 -9.86,-8.105 z m 305.305,20.402 c -0.465,-63.258 -1.848,-233.394 -4.117,-368.953 6.172,4.789 11.723,10.43 16.742,17.031 -1.949,132.102 -2.937,288.493 -3.262,347.559 -2.984,1.563 -6.097,3.023 -9.363,4.363 z m -291.019,-9.394 3.757,-342.477 c 2.016,-2.933 4.114,-5.691 6.321,-8.258 -1.203,123.786 -1.817,279.094 -2.063,355.129 -2.801,-1.371 -5.465,-2.84 -8.015,-4.394 z m 12.328,6.351 2.293,-361.976 c 2.066,-2.059 4.207,-3.996 6.437,-5.801 -0.406,128.258 -0.527,295.016 -0.558,371.055 -2.829,-1.024 -5.547,-2.118 -8.172,-3.278 z m 126.238,18.496 c -0.473,-64.55 -2.098,-268.281 -4.828,-411.496 5.883,-0.043 11.984,-0.027 18.312,0.028 -2.679,147.273 -3.91,354.668 -4.207,411.597 -3.113,-0.035 -6.238,-0.07 -9.277,-0.129 z m -62.613,-3.554 4.441,-404.93 c 2.039,-0.273 4.106,-0.527 6.223,-0.758 -1.551,141.145 -2.235,339.547 -2.43,406.543 -2.812,-0.254 -5.516,-0.558 -8.234,-0.855 z M 705.789,436.172 c 2.094,-1.481 4.258,-2.871 6.5,-4.164 l 1.129,382.406 c -2.828,-0.773 -5.594,-1.59 -8.262,-2.469 0.141,-83.961 0.473,-280.222 0.633,-375.773 z m 100.66,389.211 c -0.308,-64.86 -1.355,-268.067 -3.004,-411.043 2.051,-0.043 4.137,-0.078 6.246,-0.102 l 5.036,411.348 c -2.774,-0.063 -5.567,-0.117 -8.278,-0.203 z m -76.304,-7.098 c -0.368,-74.461 -1.364,-258.851 -2.883,-393.246 2.027,-0.75 4.093,-1.461 6.226,-2.113 l 4.86,396.828 c -2.805,-0.449 -5.516,-0.949 -8.203,-1.469 z m 12.539,2.106 c -0.559,-73.664 -2.141,-262.809 -4.715,-398.746 5.722,-1.54 11.82,-2.786 18.308,-3.786 -2.574,140.133 -3.816,335.786 -4.191,403.813 -3.219,-0.387 -6.324,-0.832 -9.402,-1.281 z m 49.98,-405.735 c 2.109,-0.082 4.258,-0.152 6.43,-0.207 l 3.125,410.785 c -2.817,-0.101 -5.598,-0.207 -8.344,-0.328 l -1.211,-410.25 z m -10.601,0.535 c 2.105,-0.132 4.257,-0.246 6.437,-0.347 l 1.211,409.875 c -2.836,-0.137 -5.582,-0.313 -8.34,-0.481 0.125,-73.836 0.531,-314.586 0.692,-409.047 z m -13.188,408.145 2.578,-407.328 c 2.082,-0.192 4.199,-0.367 6.352,-0.524 -0.5,141.883 -0.61,342.332 -0.629,408.512 -2.836,-0.191 -5.555,-0.433 -8.301,-0.66"
         id="path62-8" /></clipPath><radialGradient
       inkscape:collect="always"
       xlink:href="#linearGradient3904"
       id="radialGradient3532"
       gradientUnits="userSpaceOnUse"
       gradientTransform="matrix(1,0,0,0.61537636,0,13.017779)"
       cx="55"
       cy="33.845501"
       fx="55"
       fy="33.845501"
       r="55" /><radialGradient
       inkscape:collect="always"
       xlink:href="#linearGradient3904"
       id="radialGradient3534"
       gradientUnits="userSpaceOnUse"
       gradientTransform="matrix(1,0,0,0.61537636,0,13.017779)"
       cx="55"
       cy="33.845501"
       fx="55"
       fy="33.845501"
       r="55" /><radialGradient
       inkscape:collect="always"
       xlink:href="#linearGradient3904"
       id="radialGradient3194"
       gradientUnits="userSpaceOnUse"
       gradientTransform="matrix(1,0,0,0.61537636,0,13.017779)"
       cx="55"
       cy="33.845501"
       fx="55"
       fy="33.845501"
       r="55" /><radialGradient
       inkscape:collect="always"
       xlink:href="#linearGradient3904"
       id="radialGradient3196"
       gradientUnits="userSpaceOnUse"
       gradientTransform="matrix(1,0,0,0.61537636,0,13.017779)"
       cx="55"
       cy="33.845501"
       fx="55"
       fy="33.845501"
       r="55" /><radialGradient
       inkscape:collect="always"
       xlink:href="#linearGradient3904"
       id="radialGradient3198"
       gradientUnits="userSpaceOnUse"
       gradientTransform="matrix(1,0,0,0.61537636,0,13.017779)"
       cx="55"
       cy="33.845501"
       fx="55"
       fy="33.845501"
       r="55" /><radialGradient
       inkscape:collect="always"
       xlink:href="#linearGradient3904"
       id="radialGradient3200"
       gradientUnits="userSpaceOnUse"
       gradientTransform="matrix(1,0,0,0.61537636,0,13.017779)"
       cx="55"
       cy="33.845501"
       fx="55"
       fy="33.845501"
       r="55" /><radialGradient
       inkscape:collect="always"
       xlink:href="#linearGradient3904"
       id="radialGradient3202"
       gradientUnits="userSpaceOnUse"
       gradientTransform="matrix(1,0,0,0.61537636,0,13.017779)"
       cx="55"
       cy="33.845501"
       fx="55"
       fy="33.845501"
       r="55" /><radialGradient
       inkscape:collect="always"
       xlink:href="#linearGradient3904"
       id="radialGradient3204"
       gradientUnits="userSpaceOnUse"
       gradientTransform="matrix(1,0,0,0.61537636,0,13.017779)"
       cx="55"
       cy="33.845501"
       fx="55"
       fy="33.845501"
       r="55" /><radialGradient
       inkscape:collect="always"
       xlink:href="#linearGradient3904"
       id="radialGradient3209"
       gradientUnits="userSpaceOnUse"
       gradientTransform="matrix(1,0,0,0.61537636,0,13.017779)"
       cx="55"
       cy="33.845501"
       fx="55"
       fy="33.845501"
       r="55" /><radialGradient
       inkscape:collect="always"
       xlink:href="#linearGradient3904"
       id="radialGradient3211"
       gradientUnits="userSpaceOnUse"
       gradientTransform="matrix(1,0,0,0.61537636,0,13.017779)"
       cx="55"
       cy="33.845501"
       fx="55"
       fy="33.845501"
       r="55" /><radialGradient
       inkscape:collect="always"
       xlink:href="#linearGradient3904-7"
       id="radialGradient3216-1"
       gradientUnits="userSpaceOnUse"
       gradientTransform="matrix(1,0,0,0.61537636,0,13.017779)"
       cx="55"
       cy="33.845501"
       fx="55"
       fy="33.845501"
       r="55" /><linearGradient
       id="linearGradient3904-7"><stop
         id="stop3906-4"
         style="stop-color:#d3d1d2;stop-opacity:1"
         offset="0" /><stop
         id="stop3914-0"
         style="stop-color:#c9c7c8;stop-opacity:1"
         offset="0.5" /><stop
         id="stop3908-9"
         style="stop-color:#8d8b8c;stop-opacity:1"
         offset="1" /></linearGradient><radialGradient
       inkscape:collect="always"
       xlink:href="#linearGradient3904-7"
       id="radialGradient3214-4"
       gradientUnits="userSpaceOnUse"
       gradientTransform="matrix(1,0,0,0.61537636,0,13.017779)"
       cx="55"
       cy="33.845501"
       fx="55"
       fy="33.845501"
       r="55" /><linearGradient
       id="linearGradient3234"><stop
         id="stop3236"
         style="stop-color:#d3d1d2;stop-opacity:1"
         offset="0" /><stop
         id="stop3238"
         style="stop-color:#c9c7c8;stop-opacity:1"
         offset="0.5" /><stop
         id="stop3240"
         style="stop-color:#8d8b8c;stop-opacity:1"
         offset="1" /></linearGradient><radialGradient
       inkscape:collect="always"
       xlink:href="#linearGradient3904-7"
       id="radialGradient3206-8"
       gradientUnits="userSpaceOnUse"
       gradientTransform="matrix(1,0,0,0.61537636,0,13.017779)"
       cx="55"
       cy="33.845501"
       fx="55"
       fy="33.845501"
       r="55" /><linearGradient
       id="linearGradient3243"><stop
         id="stop3245"
         style="stop-color:#d3d1d2;stop-opacity:1"
         offset="0" /><stop
         id="stop3247"
         style="stop-color:#c9c7c8;stop-opacity:1"
         offset="0.5" /><stop
         id="stop3249"
         style="stop-color:#8d8b8c;stop-opacity:1"
         offset="1" /></linearGradient><radialGradient
       inkscape:collect="always"
       xlink:href="#linearGradient3904-7"
       id="radialGradient3208-8"
       gradientUnits="userSpaceOnUse"
       gradientTransform="matrix(1,0,0,0.61537636,0,13.017779)"
       cx="55"
       cy="33.845501"
       fx="55"
       fy="33.845501"
       r="55" /><linearGradient
       id="linearGradient3252"><stop
         id="stop3254"
         style="stop-color:#d3d1d2;stop-opacity:1"
         offset="0" /><stop
         id="stop3256"
         style="stop-color:#c9c7c8;stop-opacity:1"
         offset="0.5" /><stop
         id="stop3258"
         style="stop-color:#8d8b8c;stop-opacity:1"
         offset="1" /></linearGradient><radialGradient
       inkscape:collect="always"
       xlink:href="#linearGradient3904-7"
       id="radialGradient3210-2"
       gradientUnits="userSpaceOnUse"
       gradientTransform="matrix(1,0,0,0.61537636,0,13.017779)"
       cx="55"
       cy="33.845501"
       fx="55"
       fy="33.845501"
       r="55" /><linearGradient
       id="linearGradient3261"><stop
         id="stop3263"
         style="stop-color:#d3d1d2;stop-opacity:1"
         offset="0" /><stop
         id="stop3265"
         style="stop-color:#c9c7c8;stop-opacity:1"
         offset="0.5" /><stop
         id="stop3267"
         style="stop-color:#8d8b8c;stop-opacity:1"
         offset="1" /></linearGradient><radialGradient
       inkscape:collect="always"
       xlink:href="#linearGradient3904-7"
       id="radialGradient3212-4"
       gradientUnits="userSpaceOnUse"
       gradientTransform="matrix(1,0,0,0.61537636,0,13.017779)"
       cx="55"
       cy="33.845501"
       fx="55"
       fy="33.845501"
       r="55" /><linearGradient
       id="linearGradient3270"><stop
         id="stop3272"
         style="stop-color:#d3d1d2;stop-opacity:1"
         offset="0" /><stop
         id="stop3274"
         style="stop-color:#c9c7c8;stop-opacity:1"
         offset="0.5" /><stop
         id="stop3276"
         style="stop-color:#8d8b8c;stop-opacity:1"
         offset="1" /></linearGradient><radialGradient
       r="55"
       fy="33.845501"
       fx="55"
       cy="33.845501"
       cx="55"
       gradientTransform="matrix(1,0,0,0.61537636,0,13.017779)"
       gradientUnits="userSpaceOnUse"
       id="radialGradient3285"
       xlink:href="#linearGradient3904-7"
       inkscape:collect="always" /><radialGradient
       inkscape:collect="always"
       xlink:href="#linearGradient3904-7"
       id="radialGradient4144"
       gradientUnits="userSpaceOnUse"
       gradientTransform="matrix(1,0,0,0.61537636,0,13.017779)"
       cx="55"
       cy="33.845501"
       fx="55"
       fy="33.845501"
       r="55" /><radialGradient
       inkscape:collect="always"
       xlink:href="#linearGradient3904-7"
       id="radialGradient4146"
       gradientUnits="userSpaceOnUse"
       gradientTransform="matrix(1,0,0,0.61537636,0,13.017779)"
       cx="55"
       cy="33.845501"
       fx="55"
       fy="33.845501"
       r="55" /><radialGradient
       inkscape:collect="always"
       xlink:href="#linearGradient3904-7"
       id="radialGradient3253"
       gradientUnits="userSpaceOnUse"
       gradientTransform="matrix(1,0,0,0.61537636,0,13.017779)"
       cx="55"
       cy="33.845501"
       fx="55"
       fy="33.845501"
       r="55" /><radialGradient
       inkscape:collect="always"
       xlink:href="#linearGradient3904-7"
       id="radialGradient3255"
       gradientUnits="userSpaceOnUse"
       gradientTransform="matrix(1,0,0,0.61537636,0,13.017779)"
       cx="55"
       cy="33.845501"
       fx="55"
       fy="33.845501"
       r="55" /><radialGradient
       inkscape:collect="always"
       xlink:href="#linearGradient3904-7"
       id="radialGradient3257"
       gradientUnits="userSpaceOnUse"
       gradientTransform="matrix(1,0,0,0.61537636,0,13.017779)"
       cx="55"
       cy="33.845501"
       fx="55"
       fy="33.845501"
       r="55" /><radialGradient
       inkscape:collect="always"
       xlink:href="#linearGradient3904-7"
       id="radialGradient3259"
       gradientUnits="userSpaceOnUse"
       gradientTransform="matrix(1,0,0,0.61537636,0,13.017779)"
       cx="55"
       cy="33.845501"
       fx="55"
       fy="33.845501"
       r="55" /><radialGradient
       inkscape:collect="always"
       xlink:href="#linearGradient3904-7"
       id="radialGradient3261"
       gradientUnits="userSpaceOnUse"
       gradientTransform="matrix(1,0,0,0.61537636,0,13.017779)"
       cx="55"
       cy="33.845501"
       fx="55"
       fy="33.845501"
       r="55" /><radialGradient
       inkscape:collect="always"
       xlink:href="#linearGradient3904-7"
       id="radialGradient3263"
       gradientUnits="userSpaceOnUse"
       gradientTransform="matrix(1,0,0,0.61537636,0,13.017779)"
       cx="55"
       cy="33.845501"
       fx="55"
       fy="33.845501"
       r="55" /><radialGradient
       inkscape:collect="always"
       xlink:href="#linearGradient3904-7"
       id="radialGradient3268"
       gradientUnits="userSpaceOnUse"
       gradientTransform="matrix(1,0,0,0.61537636,0,13.017779)"
       cx="55"
       cy="33.845501"
       fx="55"
       fy="33.845501"
       r="55" /><radialGradient
       inkscape:collect="always"
       xlink:href="#linearGradient3904-7"
       id="radialGradient3270"
       gradientUnits="userSpaceOnUse"
       gradientTransform="matrix(1,0,0,0.61537636,0,13.017779)"
       cx="55"
       cy="33.845501"
       fx="55"
       fy="33.845501"
       r="55" /><radialGradient
       inkscape:collect="always"
       xlink:href="#linearGradient3904-7"
       id="radialGradient3272"
       gradientUnits="userSpaceOnUse"
       gradientTransform="matrix(1,0,0,0.61537636,0,13.017779)"
       cx="55"
       cy="33.845501"
       fx="55"
       fy="33.845501"
       r="55" /><radialGradient
       inkscape:collect="always"
       xlink:href="#linearGradient3904-7"
       id="radialGradient3274"
       gradientUnits="userSpaceOnUse"
       gradientTransform="matrix(1,0,0,0.61537636,0,13.017779)"
       cx="55"
       cy="33.845501"
       fx="55"
       fy="33.845501"
       r="55" /><radialGradient
       inkscape:collect="always"
       xlink:href="#linearGradient3904-7"
       id="radialGradient3276"
       gradientUnits="userSpaceOnUse"
       gradientTransform="matrix(1,0,0,0.61537636,0,13.017779)"
       cx="55"
       cy="33.845501"
       fx="55"
       fy="33.845501"
       r="55" /><radialGradient
       inkscape:collect="always"
       xlink:href="#linearGradient3904-7"
       id="radialGradient3278"
       gradientUnits="userSpaceOnUse"
       gradientTransform="matrix(1,0,0,0.61537636,0,13.017779)"
       cx="55"
       cy="33.845501"
       fx="55"
       fy="33.845501"
       r="55" /><radialGradient
       inkscape:collect="always"
       xlink:href="#linearGradient4029"
       id="radialGradient3972"
       cx="150.00011"
       cy="153.42874"
       fx="150.00011"
       fy="153.42874"
       r="98.000168"
       gradientTransform="matrix(1,0,0,1.0688776,0,-10.567808)"
       gradientUnits="userSpaceOnUse" /><radialGradient
       inkscape:collect="always"
       xlink:href="#linearGradient4029"
       id="radialGradient3260"
       gradientUnits="userSpaceOnUse"
       gradientTransform="matrix(1,0,0,1.0688776,0,-10.567808)"
       cx="150.00011"
       cy="153.42874"
       fx="150.00011"
       fy="153.42874"
       r="98.000168" /><radialGradient
       inkscape:collect="always"
       xlink:href="#linearGradient3904-7"
       id="radialGradient3281"
       gradientUnits="userSpaceOnUse"
       gradientTransform="matrix(1,0,0,0.61537636,0,13.017779)"
       cx="55"
       cy="33.845501"
       fx="55"
       fy="33.845501"
       r="55" /><radialGradient
       inkscape:collect="always"
       xlink:href="#linearGradient3904-7"
       id="radialGradient3283"
       gradientUnits="userSpaceOnUse"
       gradientTransform="matrix(1,0,0,0.61537636,0,13.017779)"
       cx="55"
       cy="33.845501"
       fx="55"
       fy="33.845501"
       r="55" /><radialGradient
       inkscape:collect="always"
       xlink:href="#linearGradient3904-7"
       id="radialGradient3286"
       gradientUnits="userSpaceOnUse"
       gradientTransform="matrix(1,0,0,0.61537636,0,13.017779)"
       cx="55"
       cy="33.845501"
       fx="55"
       fy="33.845501"
       r="55" /><radialGradient
       inkscape:collect="always"
       xlink:href="#linearGradient3904-7"
       id="radialGradient3288"
       gradientUnits="userSpaceOnUse"
       gradientTransform="matrix(1,0,0,0.61537636,0,13.017779)"
       cx="55"
       cy="33.845501"
       fx="55"
       fy="33.845501"
       r="55" /><radialGradient
       inkscape:collect="always"
       xlink:href="#linearGradient3904-7"
       id="radialGradient3290"
       gradientUnits="userSpaceOnUse"
       gradientTransform="matrix(1,0,0,0.61537636,0,13.017779)"
       cx="55"
       cy="33.845501"
       fx="55"
       fy="33.845501"
       r="55" /><radialGradient
       inkscape:collect="always"
       xlink:href="#linearGradient3904-7"
       id="radialGradient3292"
       gradientUnits="userSpaceOnUse"
       gradientTransform="matrix(1,0,0,0.61537636,0,13.017779)"
       cx="55"
       cy="33.845501"
       fx="55"
       fy="33.845501"
       r="55" /></defs><g
     id="g3294"><path
       inkscape:connector-curvature="0"
       style="fill:#231f20;fill-opacity:1;fill-rule:nonzero;stroke:none"
       id="path30"
       d="M 297.50002,149.99802 C 297.50002,231.46274 231.46071,297.5 149.99927,297.5 68.537825,297.5 2.5000079,231.46274 2.5000079,149.99802 2.5000079,68.539256 68.537825,2.5000064 149.99927,2.5000064 c 81.46144,0 147.50075,66.0392496 147.50075,147.4980136" /><path
       inkscape:connector-curvature="0"
       style="fill:#bdbcbc;fill-opacity:1;fill-rule:nonzero;stroke:none"
       id="path32"
       d="m 292.32385,149.99802 c 0,78.60794 -63.71993,142.32733 -142.32458,142.32733 -78.604641,0 -142.3265476,-63.71939 -142.3265476,-142.32733 0,-78.601996 63.7219066,-142.3233639 142.3265476,-142.3233639 78.60465,0 142.32458,63.7213679 142.32458,142.3233639" /><path
       inkscape:connector-curvature="0"
       style="fill:#231f20;fill-opacity:1;fill-rule:nonzero;stroke:none"
       id="path34"
       d="m 35.53154,78.314527 c 0,0.117753 -15.79081,2.518787 -15.77547,2.593999 0.07707,0.39242 -0.817986,81.232624 13.602561,77.163974 9.495264,-4.4675 4.385901,-57.14184 4.385901,-50.05756 0,9.87573 0.95902,26.07266 4.747631,51.51093 4.270101,28.6548 2.470306,32.22514 4.461605,38.39542 -4.631832,-4.49818 -11.837908,-6.52212 -11.837908,-6.52212 l 10.217756,34.53708 7.525253,-0.077 c 0,0 0.108413,-2.32003 0.206844,-2.42988 0.202887,-0.002 7.43271,0.53542 12.400559,9.62631 28.744113,52.60703 104.420208,32.37805 84.610198,33.51818 l 31.18375,-3.75393 C 89.932368,278.4448 72.800009,236.33603 68.207265,227.92951 65.330223,223.7137 57.05946,219.29649 51.859753,221.81119 c 0,0 12.692451,0.50686 12.127893,-2.85876 3.966251,3.85241 -9.862452,-6.23412 -9.862452,-6.23412 l 0.696149,2.18632 c 2.144515,0.21715 1.178679,-2.09779 3.438452,-2.47628 L 55.4553,211.14472 c -0.359261,-0.44091 1.5583,-2.7296 -5.288515,-48.67892 -3.761877,-25.24725 -3.003764,-44.90221 -3.003764,-54.68293 0,-9.475882 -0.618565,-10.1464 -0.601246,-10.216179 L 40.996649,93.932519 39.92924,93.716273 c -1.534541,-0.311271 -3.053742,-0.80216 -3.712895,-1.167858 0.341955,-0.508207 0.538904,-1.18664 0.538904,-2.305996 0,-1.082235 -0.11591,-2.493552 -0.266729,-4.316084 C 36.289542,83.488709 36.388097,74.755087 36.051563,77.672231 18.318461,231.57262 42.865707,60.446995 39.85007,63.73527 l 1.724557,-1.954161 c 8.352655,-9.642154 37.53322,-32.159818 112.824823,-33.920498 79.62108,-1.865577 79.98233,27.216765 80.25449,27.641844 l 20.62553,10.216182 C 255.00731,65.281684 228.21786,20.818405 147.35916,22.711208 71.16346,24.495144 48.545158,50.596511 40.030192,60.423739 l -1.683983,1.9121 c -3.500606,3.817772 -7.517338,3.852409 -7.517338,9.477373 0,3.003738 -3.367487,7.005097 -3.162609,9.489246 9.828987,17.268047 6.43648,8.732452 7.86572,-2.988398 z m 217.73345,-7.403454 c -1.73694,0.746233 -1.47467,3.564405 -1.11342,7.461347 0.26722,2.905271 0.57402,6.198992 0,8.497563 l 1.98931,0.500795 c 0.65816,-2.638543 0.33155,-6.118334 0.0495,-9.189861 -0.17814,-1.952182 -0.45526,-4.905943 -0.0396,-5.429502 0.0495,0.06723 0.62352,21.993625 5.14155,27.220231 7.18528,8.317934 3.60254,3.531744 3.60254,18.027384 0,7.14466 5.34443,15.47199 5.13163,18.38863 -2.66231,-3.37091 -3.41944,-12.04267 -4.09739,-19.82072 -0.79177,-9.05625 -1.46971,-16.875382 -4.69122,-19.473351 3.96966,-3.481214 -9.82467,-21.72025 -8.88264,-9.36949 0.64827,4.320534 -1.46476,-9.699555 -4.53286,-14.472381 C 236.42516,58.626909 216.95759,41.538748 149.30752,39.190187 87.293864,37.037086 56.558956,62.4907 48.658598,70.255883 c 0.0098,-0.01647 1.026329,-1.770563 1.026329,-1.770563 l -10.076984,-5.194451 -2.851084,30.169473 4.312736,-6.806227 c 0,0 6.962521,-12.624992 7.090195,-12.920912 1.086694,-1.281666 30.472136,-34.933458 101.07599,-32.482459 75.26041,2.61181 89.00054,23.990833 94.86952,33.120317 2.82562,4.401695 3.5679,9.321 4.22606,13.660831 0.86104,5.715528 1.68249,11.112852 8.10076,10.250328 0.58888,-0.07707 1.07384,0.05445 1.52415,0.419634 2.54355,2.049176 3.24624,10.181056 3.93409,18.042736 0.90063,10.40323 1.76169,20.227 6.54198,22.63544 l 1.33115,0.67101 0.14352,-1.49444 c 0.17814,-1.90963 4.30027,-46.877162 -8.43232,-61.620228 -5.01289,-5.805096 -6.85869,-6.607243 -8.20964,-6.025299 z m 27.22193,37.274087 c -1.1629,-5.42602 -3.01861,-11.342946 -5.77,-17.362309 1.44498,3.332821 3.75595,9.274489 5.77,17.362309 z m -5.77,-17.362309 c -0.35135,-0.815508 -0.66805,-1.519188 -0.90064,-2.008097 0.33156,0.672496 0.59878,1.33758 0.90064,2.008097 z m -6.41331,-14.888057 c 16.82505,16.223659 13.80644,58.086986 13.80644,58.086986 l -8.1849,-9.50854 0,40.56238 -5.66608,11.40679 C 258.18384,230.35526 234.26259,277.89008 140.45601,275.35397 46.651909,272.81935 32.173948,222.7509 23.359114,175.21608 14.54476,127.68326 27.136331,75.7126 27.136331,75.7126 c -27.70244256,82.39058 5.037617,144.5022 5.037617,144.5022 0,0 15.73637,58.3072 112.691212,57.67528 96.9489,-0.63242 112.06175,-54.50528 112.06175,-54.50528 l 1.76168,13.597 c 0,0 22.52082,-20.60012 29.44384,-63.6986 3.50852,-21.81992 -10.05049,-87.921023 -19.82882,-97.348406 z m 5.51267,12.87996 c -0.3266,-0.684382 -0.52453,-1.061462 -0.52453,-1.061462 0.1831,0.355804 0.35134,0.709616 0.52453,1.061462"
       sodipodi:nodetypes="cccsccccccccccccccccssccccscccccccsccsccccccccccscccccsccccccccccccccccccccccccccccccsccsccccccc" /><g
       style="fill:url(#linearGradient3138);fill-opacity:1"
       id="g36"
       transform="matrix(0.49485438,0,0,-0.49485019,-261.4083,458.00565)"><g
         style="fill:url(#linearGradient3136);fill-opacity:1"
         id="g38"
         clip-path="url(#clipPath40)"><path
           inkscape:connector-curvature="0"
           style="fill:url(#linearGradient3134);fill-opacity:1;fill-rule:nonzero;stroke:none"
           id="path52"
           d="m 1094.29,667.164 c 0.2272,-0.33346 0,0 0,0 z M 607.449,803.75 c 0,0 25.906,23.891 44.403,41.492 0,0 -24.668,-13.828 -44.403,-41.492 z m -6.894,-317.059 c 14.668,-29.589 29.101,-48.843 29.101,-48.843 0,0 -13.754,20.746 -29.101,48.843 z m 480.495,284.368 -4.82,14.046 43.05,-15.304 -41.65,21.347 42.3,25.102 -46.49,-19.059 7.44,46.485 -15.09,-44.903 -10.94,3.09 c -22.94,34.106 -54.46,51.176 -94.12,70.2 -73.718,35.371 -171.976,25.992 -171.976,25.992 0,0 116,-1.477 204.73,-54.071 18.326,-10.863 33.606,-25.925 46.286,-42.949 l -19.15,-1.055 21.95,-2.8 c 2.07,-2.918 4.07,-5.883 5.99,-8.891 l -25.48,-14.719 27.49,11.539 c 2.83,-4.586 5.52,-9.254 8.05,-13.976 l -10.87,-34.028 12.85,30.286 c 19.04,-36.828 29.07,-75.95 33.69,-100.227 -5.33,50.816 -14.63,87.039 -27.77,114.211 l 0.96,2.254 c 0,0 48.1,-62.867 39.47,-165.977 -8.63,-103.109 -33.3,-139.574 -57.97,-164.722 l -1.23,12.578 c 0,0 -35.76,-106.887 -213.363,-104.367 -177.602,2.519 -191.168,60.351 -191.168,60.351 l -9.867,5.039 c 0,0 -41.93,32.684 -67.832,119.449 -25.903,86.762 -1.235,157.176 -1.235,157.176 0,0 -13.566,-57.84 -3.699,-116.937 5.113,-30.625 23.461,-69.324 39.969,-99.528 -12.117,24.43 -24.403,55.907 -28.867,89.469 -9.872,74.188 -7.403,124.485 4.929,162.203 12.332,37.719 19.735,54.071 19.735,54.071 0,0 -51.797,-60.36 -53.032,-188.614 -1.234,-128.257 107.297,-216.273 155.395,-235.136 48.101,-18.86 199.801,-44.004 291.066,20.117 91.269,64.129 85.099,80.472 114.699,139.578 29.61,59.098 17.27,178.551 -23.43,242.68 z m -21.6,23.519 c -0.1,0.164 -0.19,0.328 -0.29,0.485 l 0.92,-0.118 z m 4.24,-7.57 c -0.52,0.984 -1.04,1.988 -1.57,2.949 l 2.9,1.219 z m -434.034,5.426 c 7.395,12.574 45.629,35.207 45.629,35.207 0,0 -20.969,-12.578 -44.398,-40.239 -23.438,-27.66 8.633,2.516 51.801,31.438 43.164,28.918 103.597,26.402 103.597,26.402 0,0 -19.73,15.09 -94.965,-8.804 l 72.766,31.437 c 0,0 -110.996,-23.891 -143.066,-69.156 -32.071,-45.266 1.23,-18.86 8.636,-6.285 z m 371.254,3.976 c 13.61,-14.133 23.41,-26.609 23.41,-26.609 0,0 -4.01,12.711 -23.41,26.609 z M 579.086,611.363 c 13.566,-133.285 70.301,-189.871 70.301,-189.871 0,0 43.164,-42.75 177.597,-49.035 134.43,-6.285 177.606,46.523 181.306,55.324 3.7,8.801 -17.274,-5.027 -23.438,-2.511 -6.168,2.511 19.738,49.039 19.738,49.039 -13.57,-50.297 7.4,7.543 20.96,1.254 13.57,-6.282 -27.132,-22.633 -13.56,-35.208 13.56,-12.574 41.92,76.704 60.43,116.942 18.5,40.234 12.33,81.73 11.1,108.137 -1.23,26.406 -7.4,37.722 -7.4,37.722 l -3.7,-62.875 c 0,0 2.47,-8.797 -17.27,35.215 l -16.03,42.75 c -11.1,-196.16 -55.507,-270.351 -55.507,-270.351 0,0 -16.031,-49.032 -145.531,-50.293 -129.496,-1.25 -148,32.699 -148,32.699 -41.93,55.324 -66.598,173.519 -60.426,251.476 6.164,77.961 0,99.34 55.496,123.231 55.5,23.887 139.364,26.406 139.364,26.406 100.734,2.832 151.375,-17.074 176.394,-35.004 -3.121,3.238 -6.441,6.574 -9.894,9.852 -18.5,17.601 -189.934,54.07 -279.965,18.863 -90.031,-35.207 -96.199,-69.156 -90.031,-172.266 6.168,-103.109 38.234,-188.609 60.433,-221.304 22.199,-32.692 101.133,-42.754 101.133,-42.754 -107.301,2.519 -119.633,59.094 -125.801,69.164 -6.168,10.058 -24.668,30.18 -28.367,13.828 -3.699,-16.344 -36.859,83.609 -30.691,88.641 6.164,5.031 44.257,-50.922 44.257,-50.922 0,0 -13.566,27.668 -27.132,105.625 -13.567,77.957 7.398,116.937 -6.168,119.453 -13.567,2.515 16.871,-115.035 -21.985,-120.262 -11.07,-1.492 -1.883,103.965 3.055,125.34 4.93,21.379 10.301,27.617 10.301,27.617 0,0 -34.535,-22.637 -20.969,-155.922"
           sodipodi:nodetypes="ccccccccccccccccccccccccccccccccsccsccccsccscscccccccccccccccccccsccccccsscccccsccccccccccccsscccccccccccc" /></g></g><path
       inkscape:connector-curvature="0"
       style="fill:url(#radialGradient3260);fill-opacity:1;stroke:#6d0115;stroke-width:2;stroke-miterlimit:4;stroke-opacity:1;stroke-dasharray:none"
       id="path3438"
       d="m 159.06062,257.15684 c 0.10421,-0.005 15.29417,-0.75009 28.54548,-3.73578 11.51282,-2.5927 21.70232,-7.54655 21.80322,-7.59547 l 0.038,-0.0196 0.0413,-0.0179 c 0.0562,-0.0245 5.73325,-2.4753 9.22514,-5.81157 3.53986,-3.38519 5.14934,-7.81398 5.16588,-7.85801 0.0711,-0.19241 6.26919,-16.7107 10.95702,-34.35575 4.314,-16.23782 7.27325,-34.18781 7.30303,-34.36718 0.0463,-0.23644 3.62091,-18.37394 4.62332,-37.66756 0.84361,-16.21499 -0.83204,-34.624811 -0.85023,-34.809073 -0.01,-0.138603 -0.87339,-11.041 -5.24859,-18.170118 -3.93189,-6.405117 -11.52439,-9.550604 -11.60048,-9.583216 l -0.0662,-0.02609 -0.0645,-0.03424 c -0.0877,-0.04403 -8.90258,-4.459775 -25.62262,-8.097713 -13.33568,-2.900892 -31.87197,-4.971793 -47.22073,-5.271829 -17.54711,-0.344063 -36.38446,0.87891 -50.3851,3.272676 l 0,0 c -16.79117,2.86991 -27.70022,7.13401 -27.8094,7.176406 l -0.091,0.03424 -0.0943,0.02609 c -0.10917,0.02935 -10.98845,3.011775 -16.70847,10.274604 -5.81099,7.376974 -6.75219,19.495821 -6.76046,19.618118 l -0.007,0.07338 c -0.0165,0.122297 -1.23399,10.574635 -1.23399,23.384875 0,2.29593 0.038,4.66849 0.13233,7.07204 0.65504,17.06129 3.63746,35.97171 3.66723,36.16086 0.0347,0.1859 4.0758,22.38693 8.68423,41.09679 3.41415,13.87014 7.86048,26.14064 7.90514,26.26131 l 0.0298,0.0881 0.0232,0.0897 c 0.0165,0.062 1.53173,6.28771 3.9964,10.63334 2.14542,3.7798 5.30483,6.00235 5.33791,6.02192 l 0.0513,0.0359 0.0513,0.0424 c 0.0232,0.0163 2.17354,1.75293 5.47355,3.5613 3.79956,2.08068 8.891,4.31138 9.10769,4.4027 0.35895,0.14023 11.58394,4.43694 26.38188,6.39044 15.45297,2.03992 35.02144,1.70727 35.21829,1.70401 z"
       enable-background="new    " /><g
       transform="matrix(1.6541398,0,0,1.6306307,-18.699561,-13.275104)"
       id="g3442"
       style="fill:#6d0115;fill-opacity:1"><path
         style="fill:#6d0115;fill-opacity:1"
         inkscape:connector-curvature="0"
         id="path3444"
         d="m 66.921,158.554 c -0.405,-0.188 -0.626,-0.297 -0.626,-0.297 -0.023,-0.01 -0.138,-0.061 -0.325,-0.148 l -0.068,-0.408 C 64.3,148.74 61.855,132.368 61.055,112.404 60.066,88.927 60.104,60.154 60.198,46.217 l 0,-1.008 c 0.27,-0.092 0.55,-0.185 0.839,-0.279 l 0.004,1.01 c -0.095,13.818 -0.14,42.809 0.855,66.429 0.813,20.312 3.333,36.889 4.926,45.696 l 0.099,0.489 z" /><path
         style="fill:#6d0115;fill-opacity:1"
         inkscape:connector-curvature="0"
         id="path3446"
         d="m 69.566,159.703 c -0.324,-0.133 -0.629,-0.261 -0.912,-0.381 l -0.078,-0.629 C 67.409,150.254 65.344,133.05 64.363,111.042 63.321,87.646 63.509,58.238 63.672,44.869 l 0.002,-0.751 c 0.274,-0.08 0.554,-0.16 0.84,-0.24 l 0.002,0.829 c -0.163,13.277 -0.357,42.82 0.688,66.298 1.003,22.506 3.141,39.974 4.288,48.161 l 0.074,0.537 z" /><path
         style="fill:#6d0115;fill-opacity:1"
         inkscape:connector-curvature="0"
         id="path3448"
         d="m 89.348,40.495 c 0.212,25.916 0.823,100.676 1.001,122.333 l 0.016,1.829 c -0.273,-0.029 -0.553,-0.061 -0.836,-0.094 l -0.021,-1.738 C 89.33,141.184 88.72,66.618 88.508,40.608 L 88.487,39.85 c 0.283,-0.024 0.566,-0.048 0.849,-0.07 l 0.012,0.715 z" /><path
         style="fill:#6d0115;fill-opacity:1"
         inkscape:connector-curvature="0"
         id="path3450"
         d="m 100.301,40.158 c 0.073,22.71 0.317,97.882 0.399,123.286 l 0.006,1.729 c -0.295,0.004 -0.578,0.007 -0.848,0.008 v -1.962 C 99.774,137.489 99.53,62.174 99.458,39.878 l -0.004,-0.58 c 0.273,-0.004 0.547,-0.007 0.822,-0.01 l 0.025,0.87 z" /><path
         style="fill:#6d0115;fill-opacity:1"
         inkscape:connector-curvature="0"
         id="path3452"
         d="m 104.506,40.271 c -0.124,25.219 -0.494,100.904 -0.603,123.175 l -0.002,1.668 c -0.291,0.008 -0.574,0.015 -0.854,0.021 l 0.012,-1.354 c 0.106,-21.879 0.481,-98.496 0.605,-123.678 l -0.02,-0.813 c 0.293,0.003 0.585,0.006 0.877,0.011 l -0.015,0.97 z" /><path
         style="fill:#6d0115;fill-opacity:1"
         inkscape:connector-curvature="0"
         id="path3454"
         d="m 115.874,163.003 c 0.604,-10.136 1.744,-31.624 2.212,-55.938 0.478,-24.781 0.265,-52.982 0.118,-66.227 l -0.048,-0.852 c 0.341,0.03 0.679,0.061 1.016,0.093 l 0.046,1.092 c 0.146,13.391 0.352,41.332 -0.121,65.913 -0.465,24.112 -1.59,45.448 -2.197,55.704 l -0.088,1.465 c -0.354,0.043 -0.66,0.084 -1.02,0.123 l 0.082,-1.373 z" /><path
         style="fill:#6d0115;fill-opacity:1"
         inkscape:connector-curvature="0"
         id="path3456"
         d="m 144.603,152.957 c -0.45,0.622 -0.922,1.14 -1.324,1.535 l 0.404,-2.175 c 1.758,-9.238 4.031,-23.528 5.166,-40.308 1.348,-19.948 1.521,-47.224 1.492,-62.723 l 0.018,-1.485 c 0.328,0.184 0.66,0.379 0.992,0.589 l 0.002,1.979 c 0.019,15.677 -0.177,42.19 -1.496,61.709 -1.113,16.473 -3.322,30.559 -5.071,39.844 l -0.183,1.035 z" /><path
         style="fill:#6d0115;fill-opacity:1"
         inkscape:connector-curvature="0"
         id="path3458"
         d="m 154.321,119.493 c 0.728,-5.839 1.4,-12.392 1.863,-19.314 1.017,-15.213 1.043,-32.448 0.914,-43.416 l -0.023,-1.831 c 0.424,0.96 0.766,1.944 1.042,2.889 l 0.02,1.701 c 0.091,10.982 -0.007,26.708 -0.944,40.725 -0.196,2.951 -0.432,5.835 -0.693,8.626 l -0.309,3.083 c -0.648,3.296 -1.471,7.315 -2.375,11.394 l 0.505,-3.857 z" /><path
         style="fill:#6d0115;fill-opacity:1"
         inkscape:connector-curvature="0"
         id="path3460"
         d="m 141.024,156.292 c -0.32,0.221 -0.703,0.472 -1.135,0.737 l 0.307,-1.75 c 1.686,-9.41 4.309,-26.49 5.34,-46.338 1.131,-21.803 1.135,-47.72 1.04,-60.988 l -0.039,-1.879 c 0.288,0.103 0.628,0.23 1.005,0.383 l 0.047,1.75 c 0.093,13.357 0.082,39.103 -1.044,60.787 -1.002,19.301 -3.508,35.996 -5.2,45.598 l -0.321,1.7 z" /><path
         style="fill:#6d0115;fill-opacity:1"
         inkscape:connector-curvature="0"
         id="path3462"
         d="m 128.614,160.607 c 0.797,-8.768 2.258,-26.919 2.96,-48.816 0.788,-24.582 0.791,-53.712 0.733,-67.784 l -0.031,-2.001 c 0.352,0.073 0.699,0.147 1.039,0.222 l 0.004,1.937 c 0.057,14.141 0.051,43.156 -0.735,67.659 -0.697,21.753 -2.143,39.816 -2.944,48.675 l -0.103,1.076 c -0.335,0.1 -0.669,0.203 -1.04,0.308 l 0.117,-1.276 z" /><path
         style="fill:#6d0115;fill-opacity:1"
         inkscape:connector-curvature="0"
         id="path3464"
         d="m 125.124,161.435 c 0.875,-7.446 2.309,-21.879 2.9,-40.651 0.862,-27.313 0.756,-61.757 0.643,-77.696 l -0.019,-1.773 c 0.335,0.058 0.665,0.116 0.992,0.177 l 0.038,1.853 c 0.112,16.06 0.214,50.293 -0.645,77.473 -0.583,18.483 -1.98,32.772 -2.862,40.351 l -0.163,1.372 c -0.336,0.083 -0.695,0.175 -1.049,0.258 l 0.165,-1.364 z" /><path
         style="fill:#6d0115;fill-opacity:1"
         inkscape:connector-curvature="0"
         id="path3466"
         d="m 122.292,162.039 c 0.684,-7.873 1.865,-23.467 2.42,-42.438 0.775,-26.513 0.575,-60.086 0.389,-77.59 l -0.02,-1.251 c 0.344,0.047 0.684,0.096 1.02,0.146 l 0.018,1.673 c 0.184,17.666 0.371,50.813 -0.396,77.052 -0.546,18.678 -1.699,34.088 -2.388,42.098 l -0.126,1.453 c -0.348,0.073 -0.676,0.141 -1.035,0.211 l 0.118,-1.354 z" /><path
         style="fill:#6d0115;fill-opacity:1"
         inkscape:connector-curvature="0"
         id="path3468"
         d="m 119.007,162.708 c 0.58,-9.196 1.677,-28.41 2.156,-49.02 0.637,-27.397 0.668,-57.958 0.64,-72.264 l -0.029,-1.077 c 0.343,0.039 0.683,0.078 1.02,0.118 l 0.021,1.214 c 0.027,14.417 -0.007,44.788 -0.641,72.032 -0.474,20.364 -1.549,39.367 -2.135,48.706 l -0.088,1.378 c -0.361,0.061 -0.652,0.113 -1.023,0.17 l 0.079,-1.257 z" /><path
         style="fill:#6d0115;fill-opacity:1"
         inkscape:connector-curvature="0"
         id="path3470"
         d="m 115.532,40.945 c -0.043,14.641 -0.188,47.856 -0.656,76.188 -0.324,19.612 -0.939,36.755 -1.297,45.646 l -0.078,1.814 c -0.285,0.024 -0.572,0.049 -0.857,0.072 l 0.082,-1.612 c 0.355,-8.793 0.98,-26.1 1.309,-45.934 0.471,-28.471 0.615,-61.876 0.657,-76.398 l 0.006,-1.005 c 0.284,0.02 0.567,0.039 0.849,0.06 l -0.015,1.169 z" /><path
         style="fill:#6d0115;fill-opacity:1"
         inkscape:connector-curvature="0"
         id="path3472"
         d="m 111.372,40.271 c 0.117,12.921 0.291,38.208 0.136,62.037 -0.169,25.795 -0.72,50.424 -0.981,61.028 l -0.031,1.484 c -0.287,0.019 -0.572,0.036 -0.857,0.053 l 0.039,-1.259 c 0.259,-10.431 0.818,-35.277 0.988,-61.313 0.155,-23.689 -0.016,-48.823 -0.133,-61.806 l -0.01,-1.017 c 0.281,0.013 0.561,0.026 0.841,0.04 l 0.008,0.753 z" /><path
         style="fill:#6d0115;fill-opacity:1"
         inkscape:connector-curvature="0"
         id="path3474"
         d="m 108.068,40.215 c 0.173,14.819 0.413,41.343 0.296,66.358 -0.109,23.273 -0.6,45.563 -0.896,57.209 l -0.025,1.205 c -0.285,0.013 -0.567,0.025 -0.848,0.037 l 0.035,-1.411 c 0.296,-11.683 0.782,-33.876 0.892,-57.044 0.116,-24.89 -0.121,-51.273 -0.294,-66.13 l -0.019,-1.082 c 0.283,0.008 0.566,0.017 0.848,0.025 l 0.011,0.833 z" /><path
         style="fill:#6d0115;fill-opacity:1"
         inkscape:connector-curvature="0"
         id="path3476"
         d="m 78.317,162.636 c -0.293,-0.074 -0.584,-0.15 -0.873,-0.229 l -0.05,-0.554 C 76.687,154.115 75.265,136.714 74.677,116.288 73.926,90.231 74.176,57.664 74.36,42.329 l -0.007,-0.672 c 0.281,-0.049 0.563,-0.098 0.849,-0.146 l 0.002,0.68 c -0.184,15.265 -0.438,47.946 0.315,74.073 0.596,20.69 2.048,38.27 2.743,45.829 l 0.055,0.543 z" /><path
         style="fill:#6d0115;fill-opacity:1"
         inkscape:connector-curvature="0"
         id="path3478"
         d="m 72.612,160.877 c -0.304,-0.11 -0.601,-0.219 -0.89,-0.327 l -0.069,-0.64 C 70.366,149.018 67.877,125.49 67.088,100.529 66.42,79.411 66.997,55.841 67.386,43.987 l 0.015,-0.869 c 0.279,-0.069 0.562,-0.138 0.849,-0.206 l -0.011,0.749 c -0.388,11.722 -0.984,35.532 -0.31,56.842 0.8,25.313 3.351,49.151 4.618,59.797 l 0.065,0.577 z" /><g
         id="g3480"
         style="fill:#6d0115;fill-opacity:1"><g
           id="g3482"
           style="fill:#6d0115;fill-opacity:1"><path
             style="fill:#6d0115;fill-opacity:1"
             inkscape:connector-curvature="0"
             id="path3484"
             d="m 48.65,117.465 c -1.028,-5.078 -1.629,-8.787 -1.64,-8.852 l -0.144,-2.224 C 46.273,98.791 45.74,90.279 45.616,83.021 45.469,74.439 45.531,65.858 45.629,59.44 l -0.035,-0.818 c 0.247,-0.974 0.555,-1.995 0.938,-2.987 l -0.072,4.563 c -0.091,6.322 -0.143,14.564 -10e-4,22.81 0.157,9.182 0.97,20.38 1.731,29.18 l 0.46,5.277 z" /></g></g><g
         id="g3486"
         style="fill:#6d0115;fill-opacity:1"><g
           id="g3488"
           style="fill:#6d0115;fill-opacity:1"><path
             style="fill:#6d0115;fill-opacity:1"
             inkscape:connector-curvature="0"
             id="path3490"
             d="m 55.968,144.563 c -0.583,-1.735 -1.251,-3.782 -1.944,-6.018 l -0.513,-3.002 C 52.199,127.674 51.035,119.316 50.705,112.896 48.989,91.555 48.902,66.92 49.01,53.807 l 0.021,-2.413 c 0.267,-0.296 0.543,-0.575 0.824,-0.838 l 0.005,2.282 c -0.12,12.82 -0.073,38.141 1.685,60.002 0.384,7.485 1.908,17.617 3.474,26.525 l 0.949,5.198 z" /></g></g><g
         id="g3492"
         style="fill:#6d0115;fill-opacity:1"><g
           id="g3494"
           style="fill:#6d0115;fill-opacity:1"><path
             style="fill:#6d0115;fill-opacity:1"
             inkscape:connector-curvature="0"
             id="path3496"
             d="m 60.106,149.053 c -1.73,-8.651 -3.864,-21.41 -4.968,-35.999 C 53.424,90.416 53.483,63.777 53.652,50.598 l 0.02,-2.722 c -0.246,0.128 -0.539,0.289 -0.864,0.482 l 10e-4,2.269 c -0.168,13.209 -0.225,39.846 1.489,62.491 1.1,14.532 3.22,27.256 4.949,35.933 l 1.076,5.148 c 0.186,0.213 0.383,0.423 0.592,0.626 0.152,0.146 0.311,0.291 0.475,0.433 l -1.284,-6.205 z" /></g></g><path
         style="fill:#6d0115;fill-opacity:1"
         inkscape:connector-curvature="0"
         id="path3498"
         d="M 75.338,161.324 C 74.555,154.188 73.172,139.736 72.599,122.294 71.656,93.597 71.589,57.779 71.608,42.901 L 71.6,42.176 c -0.287,0.058 -0.571,0.116 -0.851,0.175 l 0.017,0.632 c -0.019,14.934 0.05,50.683 0.991,79.339 0.561,17.055 1.895,31.258 2.688,38.577 l 0.066,0.63 c 0.288,0.095 0.58,0.188 0.876,0.279 l -0.049,-0.484 z" /><path
         style="fill:#6d0115;fill-opacity:1"
         inkscape:connector-curvature="0"
         id="path3500"
         d="m 57.445,46.209 c -0.311,0.121 -0.597,0.235 -0.858,0.342 l -0.016,1.283 c -0.282,13.393 -0.652,40.171 0.397,57.767 1.488,24.952 4.571,42.639 6.095,50.236 l 0.142,0.748 c 0.323,0.206 0.691,0.426 0.994,0.6 L 64.01,156.267 C 62.541,149.065 59.336,131.144 57.809,105.551 56.753,87.838 57.138,60.79 57.42,47.524 l 0.025,-1.348" /><path
         style="fill:#6d0115;fill-opacity:1"
         inkscape:connector-curvature="0"
         id="path3502"
         d="m 78.826,40.946 c -0.285,0.041 -0.568,0.083 -0.851,0.124 l 0.014,0.717 c -0.146,13.95 -0.333,41.538 0.112,65.691 0.423,22.967 1.812,43.91 2.595,54.279 l 0.1,1.442 c 0.287,0.059 0.574,0.117 0.862,0.173 l -0.092,-1.273 C 80.79,151.89 79.371,130.714 78.942,107.462 78.496,83.281 78.685,55.655 78.831,41.731 l -0.005,-0.785 z" /><path
         style="fill:#6d0115;fill-opacity:1"
         inkscape:connector-curvature="0"
         id="path3504"
         d="m 82.401,40.476 c -0.288,0.035 -0.574,0.07 -0.86,0.106 l -0.002,0.699 c -0.218,11.374 -0.541,34.907 -0.069,58.338 0.51,26.646 1.885,51.803 2.549,62.854 l 0.076,1.337 c 0.29,0.047 0.577,0.094 0.864,0.138 l -0.095,-1.461 C 84.201,151.478 82.822,126.288 82.312,99.602 81.84,76.135 82.165,52.565 82.383,41.226 l 0.018,-0.75 z" /><path
         style="fill:#6d0115;fill-opacity:1"
         inkscape:connector-curvature="0"
         id="path3506"
         d="m 85.845,40.096 c -0.28,0.027 -0.561,0.057 -0.841,0.086 l -0.006,0.708 c -0.094,12.207 -0.224,37.87 0.065,62.769 0.281,24.145 0.999,48.016 1.359,58.948 l 0.051,1.567 c 0.285,0.04 0.568,0.079 0.847,0.116 l -0.056,-1.688 c -0.36,-10.919 -1.079,-34.8 -1.359,-58.954 C 85.614,78.635 85.747,52.85 85.841,40.719 l 0.004,-0.623 z" /><path
         style="fill:#6d0115;fill-opacity:1"
         inkscape:connector-curvature="0"
         id="path3508"
         d="m 93.149,39.519 c -0.293,0.017 -0.586,0.034 -0.879,0.052 l 0.021,0.477 c 0.146,22.377 0.645,98.671 0.806,123.397 l 0.014,1.48 c 0.298,0.026 0.581,0.05 0.847,0.071 L 93.94,163.501 C 93.778,138.821 93.279,62.322 93.133,39.99 l 0.016,-0.471 z" /><path
         style="fill:#6d0115;fill-opacity:1"
         inkscape:connector-curvature="0"
         id="path3510"
         d="m 96.694,39.359 c -0.285,0.009 -0.572,0.02 -0.859,0.03 l 0.021,0.825 c 0.043,23.682 0.179,99.978 0.22,122.892 l -0.013,2.038 c 0.219,0.014 0.378,0.022 0.469,0.027 0.048,0 0.179,0.003 0.385,0.005 l 0.002,-2.125 C 96.877,140.072 96.741,63.882 96.698,40.215 l -0.004,-0.856 z" /><path
         style="fill:#6d0115;fill-opacity:1"
         inkscape:connector-curvature="0"
         id="path3512"
         d="m 131.472,159.445 c 1.217,-10.387 3.426,-31.854 4.361,-57.596 0.697,-19.163 0.144,-44.87 -0.22,-57.725 l -0.065,-1.384 c 0.354,0.085 0.697,0.17 1.033,0.255 l 0.051,1.422 c 0.363,12.971 0.903,38.438 0.211,57.469 -0.934,25.709 -3.137,47.163 -4.358,57.6 l -0.146,1.19 c -0.301,0.104 -0.655,0.224 -1.062,0.355 l 0.195,-1.586 z" /><path
         style="fill:#6d0115;fill-opacity:1"
         inkscape:connector-curvature="0"
         id="path3514"
         d="m 135.694,157.961 c 0.984,-9.042 2.711,-26.914 3.752,-49.206 0.999,-21.405 0.947,-49.041 0.826,-63.693 l -0.021,-1.066 c -0.326,-0.096 -0.666,-0.193 -1.02,-0.293 l 0.029,1.264 c 0.122,14.613 0.176,42.309 -0.824,63.741 -1.053,22.562 -2.809,40.587 -3.785,49.495 l -0.188,1.615 c 0.303,-0.14 0.66,-0.307 1.049,-0.491 l 0.182,-1.366 z" /><path
         style="fill:#6d0115;fill-opacity:1"
         inkscape:connector-curvature="0"
         id="path3516"
         d="m 138.79,155.977 c 1.191,-8.092 2.813,-21.325 3.732,-38.227 1.368,-25.141 1.615,-57.214 1.654,-71.552 l -0.02,-0.952 c -0.285,-0.101 -0.619,-0.215 -1.001,-0.343 l 0.011,0.962 c -0.036,14.161 -0.276,46.516 -1.654,71.83 -0.957,17.59 -2.674,31.19 -3.872,39.139 l -0.233,1.563 c 0.373,-0.189 0.746,-0.384 1.105,-0.577 l 0.278,-1.843 z" /><path
         style="fill:#6d0115;fill-opacity:1"
         inkscape:connector-curvature="0"
         id="path3518"
         d="m 147.633,145.489 c 0,0 0.907,-2.535 2.026,-6.161 l 0.424,-2.818 c 1.378,-9.352 2.832,-21.017 3.797,-33.656 1.283,-16.825 1.003,-37.319 0.646,-49.656 l -0.078,-2.328 c -0.336,-0.35 -0.689,-0.681 -1.057,-0.991 l 0.082,1.895 c 0.373,12.105 0.73,33.542 -0.602,51.004 -1.12,14.677 -2.901,28.035 -4.455,37.972 l -0.783,4.739 z" /></g><g
       transform="matrix(0.96478299,0,0,1.0047898,5.8455075,0.26829411)"
       id="g3265"><g
         transform="matrix(1.4405443,0,0,1.6465884,74.270062,97.699074)"
         style="fill:#1a1a1a;fill-opacity:1;fill-rule:evenodd;stroke:none"
         id="Warstwa_x0020_1"><metadata
           id="CorelCorpID_0Corel-Layer" /><g
           id="_217956912"
           style="fill:#1a1a1a;fill-opacity:1;stroke:none"><polygon
             id="_217961256"
             class="fil0"
             points="21.5469,39.6206 21.5469,30.8704 12.6127,30.8704 12.646,8.8448 24.3103,8.8448 24.2474,0.0003 0,0.0003 2.1917,67.6912 12.8464,67.6912 12.6127,39.6206 "
             style="fill:#1a1a1a;fill-opacity:1;stroke:none" /><polygon
             id="_217958256"
             class="fil0"
             points="28.4587,0.0003 29.8066,67.6912 40.8086,67.6912 41.032,0.0003 "
             style="fill:#1a1a1a;fill-opacity:1;stroke:none" /><polygon
             id="_217960584"
             class="fil0"
             points="99.1204,67.6912 101.381,8.5285 110,8.5285 109.934,0.0003 80.0356,0.0003 80.0356,8.5383 88.7262,8.5383 88.4761,67.6912 "
             style="fill:#1a1a1a;fill-opacity:1;stroke:none" /><path
             inkscape:connector-curvature="0"
             id="_217960752"
             class="fil0"
             d="m 57.6233,31.329 0.1206,-22.9925 6.1426,0 c 2.785,5.1209 4.5745,11.8928 5.9774,22.9925 l -12.2406,0 z m -9.8151,36.3603 1.079,0 7.9406,0 1.1653,0 0.1136,-27.9908 12.204,0 c 0.9593,4.9406 1.1944,20.191 1.2517,27.9908 l 1.009,0 7.9711,0 0.9002,0 C 82.3748,33.1316 79.479,13.5982 71.4779,-2e-4 l -24.6018,0 0.9321,67.6895 z"
             style="fill:#1a1a1a;fill-opacity:1;stroke:none" /></g></g><g
         transform="matrix(1.4441632,0,0,1.64656,76.07,95.702378)"
         style="fill:url(#radialGradient3292);fill-opacity:1;fill-rule:evenodd;stroke:none"
         id="Warstwa_x0020_1-5"><metadata
           id="CorelCorpID_0Corel-Layer-5" /><g
           id="_217956912-1"
           style="fill:url(#radialGradient3290);fill-opacity:1;stroke:none"><polygon
             id="_217961256-7"
             class="fil0"
             points="21.5469,30.8704 12.6127,30.8704 12.646,8.8448 24.3103,8.8448 24.2474,0.0003 0,0.0003 2.1917,67.6912 12.8464,67.6912 12.6127,39.6206 21.5469,39.6206 "
             style="fill:url(#radialGradient3281);fill-opacity:1;stroke:none" /><polygon
             id="_217958256-1"
             class="fil0"
             points="41.032,0.0003 28.4587,0.0003 29.8066,67.6912 40.8086,67.6912 "
             style="fill:url(#radialGradient3283);fill-opacity:1;stroke:none" /><polygon
             id="_217960584-1"
             class="fil0"
             points="88.4761,67.6912 99.1204,67.6912 101.381,8.5285 110,8.5285 109.934,0.0003 80.0356,0.0003 80.0356,8.5383 88.7262,8.5383 "
             style="fill:url(#radialGradient3286);fill-opacity:1;stroke:none" /><path
             inkscape:connector-curvature="0"
             id="_217960752-5"
             class="fil0"
             d="m 57.6233,31.329 0.1206,-22.9925 6.1426,0 c 2.785,5.1209 4.5745,11.8928 5.9774,22.9925 l -12.2406,0 z m -9.8151,36.3603 1.079,0 7.9406,0 1.1653,0 0.1136,-27.9908 12.204,0 c 0.9593,4.9406 1.1944,20.191 1.2517,27.9908 l 1.009,0 7.9711,0 0.9002,0 C 82.3748,33.1316 79.479,13.5982 71.4779,-2e-4 l -24.6018,0 0.9321,67.6895 z"
             style="fill:url(#radialGradient3288);fill-opacity:1;stroke:none" /></g></g></g></g></svg>