<?xml version="1.0" encoding="utf-8"?>
<!-- Generator: Adobe Illustrator 17.0.0, SVG Export Plug-In . SVG Version: 6.00 Build 0)  -->
<svg version="1.2" baseProfile="tiny" id="Layer_1" xmlns="http://www.w3.org/2000/svg" xmlns:xlink="http://www.w3.org/1999/xlink"
	 x="0px" y="0px" width="250px" height="300px" viewBox="0 0 250 300" xml:space="preserve">
<g>
	<g>
		<path fill="#6D6E71" d="M125,6.055C61.277,6.055,9.435,57.898,9.435,121.621S61.277,237.186,125,237.186
			s115.565-51.842,115.565-115.565S188.723,6.055,125,6.055z M125,231.028c-60.328,0-109.407-49.08-109.407-109.407
			S64.672,12.213,125,12.213s109.407,49.08,109.407,109.407S185.328,231.028,125,231.028z"/>
		<path fill="#6D6E71" d="M125,41.659c-44.091,0-79.962,35.871-79.962,79.962S80.909,201.582,125,201.582
			c44.091,0,79.962-35.871,79.962-79.962S169.091,41.659,125,41.659z M49.299,121.621c0-41.741,33.959-75.701,75.701-75.701
			c27.791,0,52.119,15.06,65.285,37.441l-89.572,0.197c-3.692,0-8.522-0.221-12.427,5.965l-34.18,58.641
			C51.002,139.9,49.299,130.956,49.299,121.621z M67.191,170.51l41.737-71.389c3.213-5.255,4.598-6.533,10.296-6.533h75.684
			c0.516,1.238,0.999,2.493,1.45,3.763l-70.388,0.206c-3.692,0-8.522-0.221-12.427,5.965c0,0-42.244,72.4-42.222,72.422
			C69.544,173.155,68.075,171.529,67.191,170.51z M89.446,188.435l45.401-77.675c3.213-5.255,4.598-6.533,10.296-6.533h53.537
			c0.105,0.469,0.602,2.674,0.901,4.399l-47.383,0.213c-3.692,0-8.522-0.221-12.427,5.965l-44.643,76.37
			C93.191,190.338,91.296,189.424,89.446,188.435z M125,197.321c-2.404,0-4.78-0.118-7.127-0.338l43.202-73.943
			c3.213-5.255,4.598-6.533,10.296-6.533h29.153c0.113,1.69,0.176,3.394,0.176,5.113C200.702,163.362,166.742,197.321,125,197.321z"
			/>
	</g>
	<g>
		<path fill="#6D6E71" d="M27.281,284.149c0.748-2.688,1.675-5.57,2.781-8.648l5.893-16.327h8.776v34.134h-6.25v-17.296
			c0-2.534,0.102-5.477,0.306-8.827h-0.229c-0.29,0.97-0.629,2.058-1.021,3.266c-0.392,1.207-0.8,2.397-1.225,3.571l-7.066,19.286
			h-4.031l-7.066-19.286c-0.425-1.174-0.833-2.364-1.225-3.571c-0.392-1.208-0.731-2.296-1.021-3.266h-0.229
			c0.204,3.146,0.306,6.08,0.306,8.801v17.322h-6.25v-34.134h8.725l5.893,16.251c0.986,2.704,1.914,5.612,2.781,8.725H27.281z"/>
		<path fill="#6D6E71" d="M59.144,288.078H75.93v5.229H52.894v-34.134h22.118v5.23H59.144v8.826h13.623v5.229H59.144V288.078z"/>
		<path fill="#6D6E71" d="M107.818,269.429c0,2.381-0.659,4.4-1.977,6.059c-1.318,1.658-3.354,2.887-6.11,3.687v0.102l10.153,14.031
			h-7.5l-9.286-13.215h-4.286v13.215h-6.25v-34.134h10.383c1.717,0,3.316,0.099,4.796,0.294s2.746,0.489,3.801,0.88
			c2.006,0.766,3.554,1.9,4.643,3.405C107.274,265.258,107.818,267.15,107.818,269.429z M91.899,274.863
			c1.429,0,2.641-0.063,3.636-0.191c0.995-0.128,1.832-0.318,2.513-0.574c1.258-0.476,2.13-1.126,2.615-1.951
			s0.727-1.773,0.727-2.845c0-0.918-0.191-1.73-0.574-2.437c-0.383-0.705-1.033-1.263-1.952-1.671
			c-0.596-0.271-1.344-0.472-2.245-0.6c-0.902-0.127-2.015-0.19-3.342-0.19h-4.464v10.459H91.899z"/>
		<path fill="#6D6E71" d="M131.977,263.817c-1.701,0-3.27,0.28-4.707,0.842c-1.438,0.561-2.67,1.377-3.699,2.449
			c-1.029,1.071-1.833,2.394-2.411,3.967s-0.867,3.371-0.867,5.396c0,2.007,0.264,3.771,0.791,5.293
			c0.527,1.522,1.284,2.794,2.27,3.814s2.19,1.79,3.61,2.309s3.032,0.778,4.834,0.778c1.292,0,2.61-0.103,3.954-0.307
			c1.343-0.204,2.602-0.501,3.775-0.893v5.383c-1.19,0.34-2.474,0.607-3.852,0.804c-1.377,0.195-2.806,0.293-4.286,0.293
			c-2.892,0-5.434-0.412-7.628-1.237c-2.194-0.824-4.026-1.989-5.498-3.495c-1.471-1.505-2.577-3.308-3.316-5.408
			s-1.109-4.417-1.109-6.951c0-2.603,0.395-5.018,1.186-7.245c0.791-2.229,1.93-4.158,3.418-5.791
			c1.488-1.633,3.35-2.917,5.587-3.853c2.236-0.935,4.766-1.411,7.589-1.429c1.445,0,2.814,0.099,4.107,0.294
			c1.292,0.195,2.458,0.472,3.495,0.829v5.306c-1.361-0.425-2.628-0.723-3.801-0.893S133.099,263.817,131.977,263.817z"/>
		<path fill="#6D6E71" d="M160.04,293.945c-1.786,0-3.393-0.175-4.821-0.522c-1.429-0.349-2.688-0.851-3.776-1.506
			c-1.088-0.654-2.015-1.454-2.78-2.397c-0.766-0.944-1.378-2.012-1.837-3.202c-0.374-0.952-0.642-2.006-0.804-3.163
			c-0.161-1.156-0.242-2.449-0.242-3.878v-20.103h6.25v19.542c0,2.415,0.289,4.303,0.867,5.663c0.646,1.514,1.591,2.606,2.832,3.278
			s2.704,1.008,4.388,1.008s3.146-0.336,4.388-1.008s2.186-1.765,2.832-3.278c0.578-1.36,0.867-3.248,0.867-5.663v-19.542h6.25
			v20.103c0,1.429-0.08,2.722-0.242,3.878c-0.161,1.157-0.43,2.211-0.804,3.163c-0.459,1.19-1.075,2.258-1.85,3.202
			c-0.773,0.943-1.718,1.743-2.831,2.397c-1.114,0.655-2.395,1.157-3.84,1.506C163.441,293.77,161.826,293.945,160.04,293.945z"/>
		<path fill="#6D6E71" d="M207.745,269.429c0,2.381-0.66,4.4-1.978,6.059c-1.318,1.658-3.354,2.887-6.109,3.687v0.102l10.153,14.031
			h-7.501l-9.285-13.215h-4.286v13.215h-6.25v-34.134h10.383c1.718,0,3.316,0.099,4.796,0.294s2.746,0.489,3.801,0.88
			c2.007,0.766,3.555,1.9,4.644,3.405C207.2,265.258,207.745,267.15,207.745,269.429z M191.826,274.863
			c1.429,0,2.64-0.063,3.635-0.191s1.833-0.318,2.513-0.574c1.259-0.476,2.131-1.126,2.615-1.951s0.728-1.773,0.728-2.845
			c0-0.918-0.191-1.73-0.574-2.437c-0.383-0.705-1.033-1.263-1.952-1.671c-0.595-0.271-1.344-0.472-2.244-0.6
			c-0.902-0.127-2.016-0.19-3.343-0.19h-4.464v10.459H191.826z"/>
		<path fill="#6D6E71" d="M227.821,273.868l9.082-14.694h6.938l-12.934,20.384v13.75h-6.25v-13.75l-12.935-20.384h6.939
			l9.082,14.694H227.821z"/>
	</g>
</g>
</svg>
