<?xml version="1.0" encoding="UTF-8" standalone="no"?>
<!-- Created with Inkscape (http://www.inkscape.org/) -->
<svg
   xmlns:svg="http://www.w3.org/2000/svg"
   xmlns="http://www.w3.org/2000/svg"
   version="1.0"
   width="331"
   height="328"
   id="svg2256">
  <defs
     id="defs2259" />
  <g
     id="g7237">
    <path
       d="M 69.057369,237.34473 L 62.269539,230.50448 L 67.142369,228.33805 C 69.822419,227.14651 80.790189,222.80493 91.515189,218.69009 C 121.37681,207.23315 125.90559,205.41114 141.50481,198.57838 C 158.81304,190.99705 162.04459,188.96863 164.58353,184.09207 C 167.12904,179.20287 167.02281,175.35207 164.22786,171.20011 C 160.0325,164.96781 159.11042,164.81222 128.01519,165.08966 C 91.144479,165.41863 86.215669,164.22503 81.405239,153.80223 C 79.067619,148.73731 79.069239,144.86033 81.411059,139.80223 C 85.808579,130.30402 89.877049,128.41754 171.01519,98.25427 C 187.51519,92.120357 205.96519,85.161606 212.01519,82.790375 C 227.00823,76.91402 249.68441,68.548847 252.61429,67.813494 C 254.57913,67.320351 255.65206,67.991243 258.52043,71.506554 C 265.31781,79.837011 265.05528,79.139374 261.87388,80.418097 C 255.2821,83.067578 243.27881,87.730211 232.51519,91.822379 C 183.25713,110.54955 169.70358,117.16967 166.01414,124.30426 C 164.01526,128.16967 164.11433,134.7608 166.21959,137.97385 C 169.74354,143.35207 172.3596,143.758 204.51519,143.91607 C 222.40654,144.00403 235.60306,144.49445 238.0503,145.16234 C 246.47679,147.46207 252.19938,157.73753 249.69985,166.08021 C 249.04876,168.25338 247.64453,171.13938 246.57935,172.49354 C 244.05351,175.70461 235.13167,180.40868 222.31415,185.28743 C 216.64972,187.44349 202.79019,192.85662 191.51519,197.31663 C 180.24019,201.77663 162.46519,208.72488 152.01519,212.75719 C 109.51391,229.15702 88.678019,237.54765 82.430199,240.77912 L 75.845199,244.18498 L 69.057369,237.34473 z "
       style="fill:#000000;fill-opacity:1"
       id="path3325" />
    <path
       d="M 302.93262 159.53886 A 125.97408 125.97408 0 1 1  50.984459,159.53886 A 125.97408 125.97408 0 1 1  302.93262 159.53886 z"
       transform="translate(-12.746114,-5.0984456)"
       style="fill:none;fill-opacity:1;stroke:#000000;stroke-width:15;stroke-miterlimit:4;stroke-dasharray:none;stroke-opacity:1"
       id="path4327" />
  </g>
</svg>
