<?xml version="1.0" encoding="UTF-8" standalone="no"?>
<svg xmlns:dc="http://purl.org/dc/elements/1.1/" xmlns:cc="http://creativecommons.org/ns#" xmlns:rdf="http://www.w3.org/1999/02/22-rdf-syntax-ns#" xmlns:svg="http://www.w3.org/2000/svg" xmlns="http://www.w3.org/2000/svg" xmlns:sodipodi="http://sodipodi.sourceforge.net/DTD/sodipodi-0.dtd" xmlns:inkscape="http://www.inkscape.org/namespaces/inkscape" width="1000.0001" height="260" viewBox="0 0 800.00005 208" version="1.1" id="svg3077" inkscape:version="0.48.5 r10040" sodipodi:docname="LMC.svg">
  <metadata id="metadata3151">
    <rdf:RDF>
      <cc:Work rdf:about="">
        <dc:format>image/svg+xml</dc:format>
        <dc:type rdf:resource="http://purl.org/dc/dcmitype/StillImage" />
      </cc:Work>
    </rdf:RDF>
  </metadata>
  <defs id="defs3149" />
  <sodipodi:namedview pagecolor="#ffffff" bordercolor="#666666" borderopacity="1" objecttolerance="10" gridtolerance="10" guidetolerance="10" inkscape:pageopacity="0" inkscape:pageshadow="2" inkscape:window-width="1366" inkscape:window-height="706" id="namedview3147" showgrid="false" inkscape:zoom="0.57666665" inkscape:cx="540.53674" inkscape:cy="-74.812999" inkscape:window-x="-8" inkscape:window-y="-8" inkscape:window-maximized="1" inkscape:current-layer="svg3077" inkscape:object-paths="false" showguides="true" inkscape:guide-bbox="true" fit-margin-top="0" fit-margin-left="0" fit-margin-right="0" fit-margin-bottom="0" />
  <g id="text3073" style="font-size:25.04999924px;font-style:normal;font-weight:bold;text-align:start;text-anchor:start;fill:blue;font-family:Gotham Bold" transform="matrix(0.8,0,0,0.8,58.523633,67.735186)" />
  <g id="text3075" style="font-size:25.04999924px;font-style:normal;font-weight:bold;text-align:start;text-anchor:start;fill:blue;font-family:Gotham Bold" transform="matrix(0.8,0,0,0.8,58.523633,67.735186)" />
  <g id="text3077" style="font-size:25.04999924px;font-style:normal;font-weight:bold;text-align:start;text-anchor:start;fill:blue;font-family:Gotham Bold" transform="matrix(0.8,0,0,0.8,58.523633,67.735186)" />
  <g id="g3273" transform="matrix(3.1278158,0,0,3.1310071,-12.085953,-19.206256)" style="fill:black">
    <path inkscape:connector-curvature="0" id="rect3043" d="M 14.421585,6.1343513 C 12.384934,6.1405287 10.238444,6.3562334 8.1914919,6.8869801 7.1960765,7.145077 7.2122759,7.9072961 6.987286,8.9107151 2.2427777,30.070409 3.4391117,50.230534 7.0123734,70.157967 c 0.1814991,1.012189 0.8401223,1.70004 1.8564841,1.856483 2.9746635,0.457877 5.8501075,0.970842 11.3814175,0 1.01285,-0.17777 1.664263,-0.846277 1.856485,-1.856483 3.892532,-20.456806 3.841544,-40.915886 0,-61.3726897 C 21.916969,7.7746102 21.824811,7.0918012 21.278869,6.9455179 19.479318,6.4633305 17.040136,6.1263033 14.421585,6.1343513 z M 13.167203,6.95388 12.715627,35.729384 c -0.188181,1.609533 -0.942825,2.128439 -1.948473,2.157536 l -6.0461168,0.242513 0.7777164,-0.393039 c 1.0642365,-0.385469 1.1212775,-0.657953 1.1707558,-0.936605 -0.047137,-7.950668 0.6137311,-16.211415 2.726188,-25.087623 0.103111,-0.403328 0.06865,-0.800877 0.9031536,-1.204206 l 1.639059,-0.167251 c 0.28028,0.02051 0.419654,-0.127227 0.42649,-0.4348517 L 13.167203,6.95388 z m 2.951977,0 0.802805,2.9519773 c 0.0069,0.3076247 0.14621,0.4553607 0.426489,0.4348517 l 1.647421,0.167251 c 0.834501,0.403329 0.791682,0.800878 0.894792,1.204206 2.112457,8.876208 2.781687,17.136955 2.734551,25.087623 0.04948,0.278652 0.09816,0.551136 1.162394,0.936605 l 0.786078,0.393039 -6.05448,-0.242513 c -1.005647,-0.0291 -1.760291,-0.548003 -1.948472,-2.157536 L 16.11918,6.95388 z M 4.7210372,40.370594 10.767154,40.613108 c 1.005648,0.02909 1.760292,0.548003 1.948473,2.157535 L 13.167203,71.537786 12.3644,68.585809 c -0.0068,-0.307624 -0.14621,-0.446996 -0.42649,-0.426491 l -1.639059,-0.16725 C 9.4643524,67.588739 9.4988084,67.182829 9.3956974,66.7795 7.2832405,57.903292 6.6223734,49.650906 6.6695094,41.700237 6.6200309,41.421586 6.5629901,41.140739 5.4987536,40.755271 L 4.7210372,40.370594 z m 19.8526728,0 -0.786078,0.384677 c -1.064237,0.385468 -1.112916,0.666315 -1.162394,0.944966 0.04713,7.950669 -0.622094,16.203055 -2.734551,25.079263 -0.10311,0.403329 -0.06029,0.809239 -0.894792,1.212568 l -1.647421,0.16725 c -0.280279,-0.02051 -0.419653,0.118867 -0.426489,0.426491 l -0.802805,2.951977 0.451578,-28.767143 c 0.188181,-1.609532 0.942825,-2.128439 1.948472,-2.157535 l 6.05448,-0.242514 z" style="fill:black;fill-opacity:1;fill-rule:evenodd;stroke:none" />
    <path inkscape:connector-curvature="0" id="rect3062" d="m 43.676734,7.2976974 1.772661,0 0,64.8560856 -1.772661,0 z" style="fill:black;fill-opacity:1;fill-rule:evenodd;stroke:none" />
    <g id="g3244" style="fill:black">
      <g style="font-size:25.04999924px;font-style:normal;font-weight:bold;text-align:start;text-anchor:start;fill:black;font-family:Gotham Bold" id="g3186" transform="matrix(0.8,0,0,0.8,62.387656,15.191871)">
        <path inkscape:connector-curvature="0" id="path3096" style="font-size:25.04999924px;font-style:normal;font-weight:bold;text-align:start;text-anchor:start;fill:black;font-family:Gotham Bold" d="m 6.1875822,9.2886662 -5.33596785,0 0,-3.5570571 14.52942765,0 0,3.5570571 -5.335968,0 0,13.9782478 -3.8574918,0 z" />
        <path inkscape:connector-curvature="0" id="path3098" style="font-size:25.04999924px;font-style:normal;font-weight:bold;text-align:start;text-anchor:start;fill:black;font-family:Gotham Bold" d="m 18.769437,5.7316091 3.857492,0 0,6.9390519 7.114114,0 0,-6.9390519 3.857492,0 0,17.5353049 -3.857492,0 0,-7.039196 -7.114114,0 0,7.039196 -3.857492,0 z" />
        <path inkscape:connector-curvature="0" id="path3100" style="font-size:25.04999924px;font-style:normal;font-weight:bold;text-align:start;text-anchor:start;fill:black;font-family:Gotham Bold" d="m 38.75953,5.7316091 13.226014,0 0,3.4324493 -9.393749,0 0,3.5570566 8.266163,0 0,3.431685 -8.266163,0 0,3.68243 9.519122,0 0,3.431684 -13.351387,0 z" />
      </g>
      <g style="font-size:25.04999924px;font-style:normal;font-weight:bold;text-align:start;text-anchor:start;fill:black;font-family:Gotham Bold" id="g3191" transform="matrix(0.8,0,0,0.8,63.12465,15.191871)">
        <path inkscape:connector-curvature="0" id="path3102" style="font-size:25.04999924px;font-style:normal;font-weight:bold;text-align:start;text-anchor:start;fill:black;font-family:Gotham Bold" d="m 61.696172,5.7316091 3.857491,0 0,14.0279389 8.742426,0 0,3.507366 -12.599917,0 z" />
        <path inkscape:connector-curvature="0" id="path3104" style="font-size:25.04999924px;font-style:normal;font-weight:bold;text-align:start;text-anchor:start;fill:black;font-family:Gotham Bold" d="m 77.814228,5.7316091 3.857492,0 0,17.5353049 -3.857492,0 z" />
        <path inkscape:connector-curvature="0" id="path3106" style="font-size:25.04999924px;font-style:normal;font-weight:bold;text-align:start;text-anchor:start;fill:black;font-family:Gotham Bold" d="m 86.921455,5.7316091 3.557057,0 8.215709,10.7965439 0,-10.7965439 3.807799,0 0,17.5353049 -3.281083,0 -8.492445,-11.147433 0,11.147433 -3.807037,0 z" />
        <path inkscape:connector-curvature="0" id="path3108" style="font-size:25.04999924px;font-style:normal;font-weight:bold;text-align:start;text-anchor:start;fill:black;font-family:Gotham Bold" d="m 115.60766,23.567349 c -1.28584,0 -2.47981,-0.233799 -3.5819,-0.701397 -1.10211,-0.467597 -2.054,-1.106307 -2.85566,-1.916132 -0.80167,-0.80982 -1.4279,-1.765911 -1.87868,-2.868274 -0.45078,-1.102353 -0.67617,-2.279628 -0.67617,-3.53183 l 0,-0.05045 c 0,-1.252184 0.22539,-2.425255 0.67617,-3.519216 0.45078,-1.0939368 1.07701,-2.0542317 1.87868,-2.8808878 0.80166,-0.8266258 1.76196,-1.4779496 2.88088,-1.9539734 1.11892,-0.4759894 2.35468,-0.7139927 3.70728,-0.7140106 0.81848,1.79e-5 1.56587,0.066781 2.24218,0.20029 0.67628,0.1335441 1.29002,0.3172704 1.84121,0.5511794 0.55117,0.2339433 1.06055,0.5179419 1.52817,0.8519966 0.46758,0.3340873 0.90167,0.7014125 1.30226,1.1019768 l -2.45469,2.830815 c -0.68498,-0.618185 -1.3823,-1.1026004 -2.09196,-1.4532485 -0.70969,-0.3506207 -1.50716,-0.5259379 -2.3924,-0.5259522 -0.73491,1.43e-5 -1.41541,0.1419499 -2.0415,0.4258072 -0.62611,0.283885 -1.16467,0.6763105 -1.6157,1.1772765 -0.45104,0.500992 -0.8018,1.081348 -1.05229,1.74107 -0.25049,0.659744 -0.37574,1.365472 -0.37573,2.117186 l 0,0.04969 c -1e-5,0.751732 0.12524,1.461537 0.37573,2.129418 0.25049,0.667894 0.59704,1.252327 1.03968,1.753301 0.44261,0.500984 0.9771,0.897614 1.60346,1.18989 0.62635,0.292284 1.31513,0.438424 2.06635,0.438421 1.00195,3e-6 1.84949,-0.183723 2.54261,-0.551179 0.69311,-0.367449 1.38214,-0.868428 2.06712,-1.502939 l 2.4547,2.479925 c -0.45106,0.484164 -0.91865,0.91838 -1.4028,1.302649 -0.48417,0.384273 -1.01433,0.714139 -1.59047,0.989601 -0.57616,0.275462 -1.20659,0.484161 -1.89129,0.626097 -0.68471,0.141935 -1.45313,0.212903 -2.30524,0.212903 z" />
        <path inkscape:connector-curvature="0" id="path3110" style="font-size:25.04999924px;font-style:normal;font-weight:bold;text-align:start;text-anchor:start;fill:black;font-family:Gotham Bold" d="m 134.45249,20.010292 c 0.76802,3e-6 1.4777,-0.141932 2.12904,-0.425807 0.65131,-0.283868 1.20669,-0.676293 1.66615,-1.177277 0.45943,-0.500974 0.81847,-1.08133 1.07713,-1.741069 0.25863,-0.659727 0.38795,-1.3652 0.38797,-2.116423 l 0,-0.05045 c -2e-5,-0.751205 -0.12934,-1.460883 -0.38797,-2.129036 -0.25866,-0.668131 -0.62598,-1.252692 -1.10198,-1.753684 -0.47602,-0.500966 -1.03968,-0.8975957 -1.69099,-1.1898898 -0.65134,-0.2922665 -1.36102,-0.4384066 -2.12904,-0.4384209 -0.78486,1.43e-5 -1.49887,0.1419499 -2.14203,0.4258072 -0.64318,0.283885 -1.19436,0.6763105 -1.65354,1.1772765 -0.45919,0.500992 -0.81824,1.081348 -1.07713,1.74107 -0.2589,0.659744 -0.38835,1.365472 -0.38835,2.117186 l 0,0.04969 c 0,0.751732 0.12945,1.461537 0.38835,2.129418 0.25889,0.667894 0.62635,1.252327 1.10236,1.753301 0.476,0.500984 1.03546,0.897614 1.67838,1.18989 0.64291,0.292284 1.35679,0.438424 2.14165,0.438421 z m -0.0497,3.557057 c -1.35311,0 -2.5974,-0.238003 -3.73288,-0.71401 -1.13549,-0.476007 -2.11656,-1.118921 -2.94319,-1.928746 -0.82665,-0.809821 -1.46956,-1.761707 -1.92875,-2.85566 -0.45919,-1.093944 -0.68878,-2.267015 -0.68878,-3.519217 l 0,-0.05045 c 0,-1.252184 0.23379,-2.425255 0.70139,-3.519216 0.4676,-1.0939368 1.11472,-2.0542317 1.94136,-2.8808878 0.82664,-0.8266258 1.81191,-1.4779496 2.95581,-1.9539734 1.14389,-0.4759894 2.39213,-0.7139927 3.74473,-0.7140106 1.35258,1.79e-5 2.59675,0.2380212 3.7325,0.7140106 1.13573,0.4760238 2.11692,1.1189384 2.94358,1.928746 0.82662,0.809838 1.46954,1.7617238 1.92874,2.8556602 0.45917,1.093961 0.68877,2.267287 0.68879,3.51998 l 0,0.04969 c -2e-5,1.252711 -0.23382,2.425909 -0.7014,3.519598 -0.46762,1.093699 -1.11474,2.053867 -1.94136,2.880505 -0.82666,0.826644 -1.81193,1.477967 -2.95581,1.953974 -1.1439,0.476007 -2.39215,0.71401 -3.74473,0.71401 z" />
        <path inkscape:connector-curvature="0" id="path3112" style="font-size:25.04999924px;font-style:normal;font-weight:bold;text-align:start;text-anchor:start;fill:black;font-family:Gotham Bold" d="m 147.8189,5.7316091 3.85749,0 0,14.0279389 8.74243,0 0,3.507366 -12.59992,0 z" />
        <path inkscape:connector-curvature="0" id="path3114" style="font-size:25.04999924px;font-style:normal;font-weight:bold;text-align:start;text-anchor:start;fill:black;font-family:Gotham Bold" d="m 163.7077,5.7316091 3.55706,0 8.21571,10.7965439 0,-10.7965439 3.8078,0 0,17.5353049 -3.28108,0 -8.49245,-11.147433 0,11.147433 -3.80704,0 z" />
      </g>
      <g style="font-size:25.04999924px;font-style:normal;font-weight:bold;text-align:start;text-anchor:start;fill:black;font-family:Gotham Bold" id="g3179" transform="matrix(0.8,0,0,0.8,63.157225,18.711961)">
        <path inkscape:connector-curvature="0" id="path3118" style="font-size:25.04999924px;font-style:normal;font-weight:bold;text-align:start;text-anchor:start;fill:black;font-family:Gotham Bold" d="m 2.104573,33.351688 4.1579268,0 4.6089612,7.415314 4.609726,-7.415314 4.157927,0 0,17.535305 -3.832265,0 0,-11.447868 -4.935388,7.490232 -0.100145,0 -4.8849331,-7.415314 0,11.37295 -3.7818099,0 z" />
        <path inkscape:connector-curvature="0" id="path3120" style="font-size:25.04999924px;font-style:normal;font-weight:bold;text-align:start;text-anchor:start;fill:black;font-family:Gotham Bold" d="m 33.16059,47.630371 c 0.768021,3e-6 1.477699,-0.141932 2.129035,-0.425807 0.651311,-0.283867 1.206695,-0.676293 1.666153,-1.177277 0.459428,-0.500974 0.818472,-1.08133 1.077131,-1.741069 0.258629,-0.659727 0.38795,-1.3652 0.387966,-2.116423 l 0,-0.05045 c -1.6e-5,-0.751205 -0.129337,-1.460883 -0.387966,-2.129036 -0.258659,-0.668131 -0.625984,-1.252692 -1.101977,-1.753684 -0.476021,-0.500966 -1.039686,-0.897596 -1.690997,-1.18989 -0.651336,-0.292266 -1.361014,-0.438406 -2.129036,-0.438421 -0.784861,1.5e-5 -1.49887,0.14195 -2.142031,0.425808 -0.643178,0.283885 -1.194357,0.67631 -1.653539,1.177276 -0.459195,0.500992 -0.818239,1.081348 -1.077132,1.74107 -0.258904,0.659744 -0.388353,1.365472 -0.388348,2.117187 l 0,0.04969 c -5e-6,0.751732 0.129444,1.461537 0.388348,2.129418 0.258893,0.667894 0.626346,1.252327 1.102359,1.753301 0.476,0.500984 1.035461,0.897614 1.678384,1.18989 0.642906,0.292284 1.356789,0.438424 2.14165,0.438421 z m -0.04969,3.557057 c -1.353113,0 -2.597406,-0.238003 -3.732884,-0.71401 -1.135491,-0.476006 -2.116554,-1.118921 -2.943191,-1.928746 -0.826645,-0.809821 -1.46956,-1.761706 -1.928746,-2.85566 -0.459191,-1.093944 -0.688785,-2.267015 -0.688783,-3.519217 l 0,-0.05045 c -2e-6,-1.252184 0.233797,-2.425255 0.701397,-3.519216 0.467595,-1.093937 1.114714,-2.054232 1.941359,-2.880888 0.826637,-0.826626 1.811905,-1.477949 2.955805,-1.953973 1.143887,-0.47599 2.39213,-0.713993 3.744734,-0.714011 1.352582,1.8e-5 2.596748,0.238021 3.732501,0.714011 1.135726,0.476024 2.116916,1.118938 2.943574,1.928746 0.826624,0.809838 1.469538,1.761724 1.928746,2.85566 0.459169,1.093961 0.688763,2.267287 0.688783,3.519981 l 0,0.04969 c -2e-5,1.252711 -0.233818,2.425909 -0.701397,3.519598 -0.467616,1.093699 -1.114736,2.053867 -1.941359,2.880505 -0.826659,0.826644 -1.811926,1.477968 -2.955805,1.953974 -1.143908,0.476007 -2.392152,0.71401 -3.744734,0.71401 z" />
        <path inkscape:connector-curvature="0" id="path3122" style="font-size:25.04999924px;font-style:normal;font-weight:bold;text-align:start;text-anchor:start;fill:black;font-family:Gotham Bold" d="m 49.959715,36.908745 -5.335967,0 0,-3.557057 14.529427,0 0,3.557057 -5.335968,0 0,13.978248 -3.857492,0 z" />
        <path inkscape:connector-curvature="0" id="path3126" style="font-size:25.04999924px;font-style:normal;font-weight:bold;text-align:start;text-anchor:start;fill:black;font-family:Gotham Bold" d="m 70.610907,47.630371 c 0.768022,3e-6 1.4777,-0.141932 2.129036,-0.425807 0.651311,-0.283867 1.206695,-0.676293 1.666152,-1.177277 0.459429,-0.500974 0.818473,-1.08133 1.077132,-1.741069 0.258628,-0.659727 0.38795,-1.3652 0.387966,-2.116423 l 0,-0.05045 c -1.6e-5,-0.751205 -0.129338,-1.460883 -0.387966,-2.129036 -0.258659,-0.668131 -0.625985,-1.252692 -1.101977,-1.753684 -0.476021,-0.500966 -1.039686,-0.897596 -1.690997,-1.18989 -0.651337,-0.292266 -1.361015,-0.438406 -2.129036,-0.438421 -0.784861,1.5e-5 -1.498871,0.14195 -2.142032,0.425808 -0.643178,0.283885 -1.194357,0.67631 -1.653538,1.177276 -0.459195,0.500992 -0.818239,1.081348 -1.077132,1.74107 -0.258904,0.659744 -0.388354,1.365472 -0.388348,2.117187 l 0,0.04969 c -6e-6,0.751732 0.129444,1.461537 0.388348,2.129418 0.258893,0.667894 0.626346,1.252327 1.102359,1.753301 0.476,0.500984 1.03546,0.897614 1.678384,1.18989 0.642906,0.292284 1.356788,0.438424 2.141649,0.438421 z m -0.04969,3.557057 c -1.353113,0 -2.597406,-0.238003 -3.732884,-0.71401 -1.135492,-0.476006 -2.116554,-1.118921 -2.943192,-1.928746 -0.826644,-0.809821 -1.469559,-1.761706 -1.928746,-2.85566 -0.45919,-1.093944 -0.688784,-2.267015 -0.688783,-3.519217 l 0,-0.05045 c -10e-7,-1.252184 0.233798,-2.425255 0.701397,-3.519216 0.467596,-1.093937 1.114715,-2.054232 1.94136,-2.880888 0.826637,-0.826626 1.811904,-1.477949 2.955805,-1.953973 1.143887,-0.47599 2.39213,-0.713993 3.744733,-0.714011 1.352582,1.8e-5 2.596748,0.238021 3.732502,0.714011 1.135725,0.476024 2.116915,1.118938 2.943574,1.928746 0.826623,0.809838 1.469538,1.761724 1.928746,2.85566 0.459169,1.093961 0.688763,2.267287 0.688783,3.519981 l 0,0.04969 c -2e-5,1.252711 -0.233819,2.425909 -0.701397,3.519598 -0.467617,1.093699 -1.114736,2.053867 -1.94136,2.880505 -0.826658,0.826644 -1.811925,1.477968 -2.955805,1.953974 -1.143908,0.476007 -2.392151,0.71401 -3.744733,0.71401 z" />
        <path inkscape:connector-curvature="0" id="path3130" style="font-size:25.04999924px;font-style:normal;font-weight:bold;text-align:start;text-anchor:start;fill:black;font-family:Gotham Bold" d="m 91.952761,41.869361 c 0.951493,9e-6 1.681939,-0.225508 2.191339,-0.676552 0.509377,-0.451025 0.764071,-1.052403 0.764084,-1.804138 l 0,-0.04969 c -1.3e-5,-0.834783 -0.267194,-1.461007 -0.801542,-1.878673 -0.534373,-0.417639 -1.27756,-0.626465 -2.229563,-0.626479 l -3.832265,0 0,5.035533 z m -7.765439,-8.517673 8.015419,0 c 2.221014,1.8e-5 3.924496,0.592987 5.11045,1.778911 1.001943,1.001974 1.502922,2.338003 1.502939,4.008092 l 0,0.04969 c -1.7e-5,1.419877 -0.346574,2.576512 -1.039673,3.469908 -0.69313,0.893412 -1.59902,1.548813 -2.717674,1.966205 l 4.283299,6.262499 -4.508816,0 -3.757347,-5.611175 -0.05045,0 -2.98065,0 0,5.611175 -3.857492,0 z" />
      </g>
      <g style="font-size:25.04999924px;font-style:normal;font-weight:bold;text-align:start;text-anchor:start;fill:black;font-family:Gotham Bold" id="g3200" transform="matrix(0.8,0,0,0.8,63.157225,18.711961)">
        <g id="g3235" transform="translate(2.1676301,0)" style="fill:black">
          <path d="m 116.50739,51.187428 c -1.28584,0 -2.4798,-0.233799 -3.5819,-0.701397 -1.10211,-0.467597 -2.05399,-1.106307 -2.85566,-1.916132 -0.80167,-0.80982 -1.42789,-1.765911 -1.87867,-2.868274 -0.45078,-1.102352 -0.67617,-2.279628 -0.67617,-3.53183 l 0,-0.05045 c 0,-1.252184 0.22539,-2.425255 0.67617,-3.519216 0.45078,-1.093937 1.077,-2.054232 1.87867,-2.880888 0.80167,-0.826626 1.76196,-1.477949 2.88089,-1.953973 1.11891,-0.47599 2.35467,-0.713993 3.70727,-0.714011 0.81848,1.8e-5 1.56587,0.06678 2.24218,0.20029 0.67628,0.133544 1.29002,0.317271 1.84122,0.55118 0.55116,0.233943 1.06055,0.517942 1.52816,0.851996 0.46758,0.334088 0.90167,0.701413 1.30227,1.101977 l -2.4547,2.830815 c -0.68497,-0.618185 -1.38229,-1.1026 -2.09196,-1.453248 -0.70969,-0.350621 -1.50715,-0.525938 -2.39239,-0.525953 -0.73492,1.5e-5 -1.41542,0.14195 -2.04151,0.425808 -0.6261,0.283885 -1.16467,0.67631 -1.6157,1.177276 -0.45104,0.500992 -0.8018,1.081348 -1.05228,1.74107 -0.2505,0.659744 -0.37574,1.365472 -0.37574,2.117187 l 0,0.04969 c 0,0.751732 0.12524,1.461537 0.37574,2.129418 0.25048,0.667894 0.59704,1.252327 1.03967,1.753301 0.44262,0.500984 0.97711,0.897614 1.60347,1.18989 0.62634,0.292284 1.31512,0.438424 2.06635,0.438421 1.00194,3e-6 1.84948,-0.183723 2.54261,-0.551179 0.6931,-0.367449 1.38214,-0.868428 2.06711,-1.502939 l 2.4547,2.479925 c -0.45105,0.484164 -0.91865,0.91838 -1.40279,1.302649 -0.48418,0.384273 -1.01434,0.714139 -1.59047,0.989601 -0.57617,0.275462 -1.2066,0.484161 -1.89129,0.626097 -0.68472,0.141935 -1.45313,0.212903 -2.30525,0.212903 z" style="font-size:25.04999924px;font-style:normal;font-weight:bold;text-align:start;text-anchor:start;fill:black;font-family:Gotham Bold" id="path3132" inkscape:connector-curvature="0" />
          <path d="m 135.35223,47.630371 c 0.76802,3e-6 1.4777,-0.141932 2.12903,-0.425807 0.65132,-0.283867 1.2067,-0.676293 1.66616,-1.177277 0.45942,-0.500974 0.81847,-1.08133 1.07713,-1.741069 0.25863,-0.659727 0.38795,-1.3652 0.38796,-2.116423 l 0,-0.05045 c -10e-6,-0.751205 -0.12933,-1.460883 -0.38796,-2.129036 -0.25866,-0.668131 -0.62599,-1.252692 -1.10198,-1.753684 -0.47602,-0.500966 -1.03969,-0.897596 -1.691,-1.18989 -0.65133,-0.292266 -1.36101,-0.438406 -2.12903,-0.438421 -0.78486,1.5e-5 -1.49887,0.14195 -2.14203,0.425808 -0.64318,0.283885 -1.19436,0.67631 -1.65354,1.177276 -0.4592,0.500992 -0.81824,1.081348 -1.07713,1.74107 -0.25891,0.659744 -0.38836,1.365472 -0.38835,2.117187 l 0,0.04969 c -1e-5,0.751732 0.12944,1.461537 0.38835,2.129418 0.25889,0.667894 0.62634,1.252327 1.10236,1.753301 0.47599,0.500984 1.03546,0.897614 1.67838,1.18989 0.6429,0.292284 1.35679,0.438424 2.14165,0.438421 z m -0.0497,3.557057 c -1.35311,0 -2.59741,-0.238003 -3.73289,-0.71401 -1.13549,-0.476006 -2.11655,-1.118921 -2.94319,-1.928746 -0.82664,-0.809821 -1.46956,-1.761706 -1.92874,-2.85566 -0.45919,-1.093944 -0.68879,-2.267015 -0.68879,-3.519217 l 0,-0.05045 c 0,-1.252184 0.2338,-2.425255 0.7014,-3.519216 0.4676,-1.093937 1.11471,-2.054232 1.94136,-2.880888 0.82664,-0.826626 1.8119,-1.477949 2.9558,-1.953973 1.14389,-0.47599 2.39213,-0.713993 3.74474,-0.714011 1.35258,1.8e-5 2.59675,0.238021 3.7325,0.714011 1.13573,0.476024 2.11692,1.118938 2.94357,1.928746 0.82663,0.809838 1.46954,1.761724 1.92875,2.85566 0.45917,1.093961 0.68876,2.267287 0.68878,3.519981 l 0,0.04969 c -2e-5,1.252711 -0.23382,2.425909 -0.70139,3.519598 -0.46762,1.093699 -1.11474,2.053867 -1.94136,2.880505 -0.82666,0.826644 -1.81193,1.477968 -2.95581,1.953974 -1.14391,0.476007 -2.39215,0.71401 -3.74473,0.71401 z" style="font-size:25.04999924px;font-style:normal;font-weight:bold;text-align:start;text-anchor:start;fill:black;font-family:Gotham Bold" id="path3134" inkscape:connector-curvature="0" />
          <path d="m 148.68144,33.351688 4.15793,0 4.60896,7.415314 4.60972,-7.415314 4.15793,0 0,17.535305 -3.83226,0 0,-11.447868 -4.93539,7.490232 -0.10015,0 -4.88493,-7.415314 0,11.37295 -3.78181,0 z" style="font-size:25.04999924px;font-style:normal;font-weight:bold;text-align:start;text-anchor:start;fill:black;font-family:Gotham Bold" id="path3136" inkscape:connector-curvature="0" />
          <path d="m 178.2372,42.195023 c 0.96882,9e-6 1.72041,-0.254686 2.25479,-0.764083 0.53435,-0.509379 0.80153,-1.139935 0.80154,-1.89167 l 0,-0.04969 c -1e-5,-0.86842 -0.27968,-1.528153 -0.839,-1.979201 -0.55935,-0.45102 -1.32343,-0.676537 -2.29225,-0.676551 l -2.98065,0 0,5.361195 z m -6.91306,-8.843335 7.1638,0 c 1.0524,1.8e-5 1.99193,0.146158 2.81858,0.438421 0.82663,0.292297 1.52803,0.705618 2.1042,1.239963 0.57613,0.534376 1.01863,1.173214 1.32749,1.916514 0.30883,0.743329 0.46325,1.565765 0.46327,2.467312 l 0,0.05045 c -2e-5,1.018788 -0.18375,1.912192 -0.55118,2.680215 -0.36747,0.768041 -0.87266,1.410956 -1.51556,1.928746 -0.64293,0.517804 -1.39439,0.906152 -2.25441,1.165045 -0.86003,0.258905 -1.78261,0.388354 -2.76774,0.388349 l -2.93096,0 0,5.260285 -3.85749,0 z" style="font-size:25.04999924px;font-style:normal;font-weight:bold;text-align:start;text-anchor:start;fill:black;font-family:Gotham Bold" id="path3138" inkscape:connector-curvature="0" />
          <path d="m 197.13,43.547362 -2.32932,-5.686093 -2.33009,5.686093 z m -4.05778,-10.320282 3.55706,0 7.51469,17.659913 -4.03255,0 -1.60385,-3.933174 -7.41455,0 -1.60308,3.933174 -3.93318,0 z" style="font-size:25.04999924px;font-style:normal;font-weight:bold;text-align:start;text-anchor:start;fill:black;font-family:Gotham Bold" id="path3140" inkscape:connector-curvature="0" />
          <path d="m 207.59286,33.351688 3.55706,0 8.21571,10.796544 0,-10.796544 3.8078,0 0,17.535305 -3.28109,0 -8.49244,-11.147433 0,11.147433 -3.80704,0 z" style="font-size:25.04999924px;font-style:normal;font-weight:bold;text-align:start;text-anchor:start;fill:black;font-family:Gotham Bold" id="path3142" inkscape:connector-curvature="0" />
          <path d="m 232.83155,43.973169 -6.73876,-10.621481 4.50881,0 4.18392,7.039197 4.25807,-7.039197 4.38421,0 -6.73876,10.546564 0,6.988741 -3.85749,0 z" style="font-size:25.04999924px;font-style:normal;font-weight:bold;text-align:start;text-anchor:start;fill:black;font-family:Gotham Bold" id="path3144" inkscape:connector-curvature="0" />
        </g>
      </g>
    </g>
  </g>
  <g id="text3081" style="font-size:25.04999924px;font-style:normal;font-weight:bold;text-align:start;text-anchor:start;fill:blue;font-family:Gotham Bold" transform="matrix(0.8,0,0,0.8,58.523633,67.735186)" />
</svg>
