<?xml version="1.0" encoding="utf-8"?>
<!-- Generator: Adobe Illustrator 23.0.4, SVG Export Plug-In . SVG Version: 6.00 Build 0)  -->
<svg version="1.1" id="Ebene_1" xmlns="http://www.w3.org/2000/svg" xmlns:xlink="http://www.w3.org/1999/xlink" x="0px" y="0px"
	 viewBox="0 0 20.6 25" style="enable-background:new 0 0 20.6 25;" xml:space="preserve">
<style type="text/css">
	.st0{fill:#FFFFFF;}
</style>
<title>cart</title>
<desc>Created with Sketch.</desc>
<g>
	<path class="st0" d="M5.8,20c-1.4,0-2.5,1.1-2.5,2.5S4.4,25,5.8,25c1.4,0,2.5-1.1,2.5-2.5S7.1,20,5.8,20z M5.8,23.6
		c-0.6,0-1.1-0.5-1.1-1.1s0.5-1.1,1.1-1.1c0.6,0,1.1,0.5,1.1,1.1S6.4,23.6,5.8,23.6z"/>
	<path class="st0" d="M13,20c-1.4,0-2.5,1.1-2.5,2.5S11.7,25,13,25c1.4,0,2.5-1.1,2.5-2.5S14.4,20,13,20z M13,23.6
		c-0.6,0-1.1-0.5-1.1-1.1s0.5-1.1,1.1-1.1c0.6,0,1.1,0.5,1.1,1.1S13.7,23.6,13,23.6z"/>
	<path class="st0" d="M22.7,0h-2.4c-0.1,0-0.1,0-0.2,0C20,0,20,0.1,19.9,0.1c-0.1,0.1-0.1,0.1-0.2,0.2c0,0,0,0.1-0.1,0.1l-1.4,4.9
		H1.6c0,0,0,0,0,0c-0.5,0-1,0.2-1.3,0.7C0,6.5-0.1,7,0.1,7.5l3,9.1c0.2,0.6,0.8,1.1,1.5,1.1h10.5c0,0,0,0,0,0c0.7,0,1.3-0.5,1.5-1.2
		l2.8-10.2c0,0,0,0,0,0l1.4-4.9h1.9c0.4,0,0.7-0.3,0.7-0.7C23.3,0.3,23,0,22.7,0z M15.3,16.2c0,0.1-0.1,0.2-0.2,0.2c0,0,0,0,0,0H4.6
		c-0.1,0-0.2-0.1-0.2-0.2l-3-9.1c0-0.1,0-0.1,0-0.2c0-0.1,0.1-0.1,0.2-0.1h0h16.3L15.3,16.2z"/>
</g>
</svg>
