<?xml version="1.0" encoding="utf-8"?>
<svg version="1.1" xmlns="http://www.w3.org/2000/svg" xmlns:xlink="http://www.w3.org/1999/xlink" x="0px" y="0px" viewBox="0 0 1000 1000" enable-background="new 0 0 1000 1000" xml:space="preserve">
<style type="text/css">
	.st0{fill:#ffffff;}
</style>
<g><path class="st0" d="M500,10C229.4,10,10,229.4,10,500c0,112.7,38.1,216.6,102.1,299.4v7.5c1.6-0.5,3.1-1,4.7-1.6C206.6,917.9,344.9,990,500,990c157.6,0,297.8-74.4,387.4-189.9c0.2,0.1,0.3,0.1,0.5,0.2v-0.8C951.9,716.6,990,612.7,990,500C990,229.4,770.6,10,500,10z M948.7,479.6H703.8c-1.3-57.1-8.1-115.1-20.8-174.1c70.1-8.9,136.9-23,199.2-41.6C921.3,327,945.2,400.7,948.7,479.6z M336.9,479.6c1.4-56.9,8.4-113.9,21.2-171.6c49.3,5.4,100.1,8.3,152.1,8.3c45,0,89.1-2.2,132.1-6.3c12.5,57.1,19.4,113.4,20.8,169.6H336.9z M663.1,520.4c-1.5,62.8-10,125.7-25.4,189.6c-41.5-3.8-84.1-5.8-127.5-5.8c-50.3,0-99.6,2.7-147.4,7.8c-15.7-64.6-24.3-128.1-25.9-191.5H663.1z M858.3,229c-57.9,16.4-119.9,28.8-184.7,36.6C656.2,199,631.3,131,598.1,61.6C703.6,85.1,795.1,145.7,858.3,229z M500,50.8c17.6,0,35,1,52.1,3c35.2,74.2,62,145.8,80.5,216.1c-39.9,3.6-80.8,5.4-122.4,5.4c-48.6,0-96.2-2.5-142.3-7.4c18.5-69.7,45.1-140.7,80-214.2C465,51.9,482.4,50.8,500,50.8z M401.9,61.6c-32.8,68.6-57.5,135.7-74.7,201.5c-63.9-8.7-124.8-21.9-181.6-39C208.5,143.3,298.5,84.6,401.9,61.6z M121.1,258.7c61.3,19.4,127.2,34.4,196.5,44.2c-13.1,59.9-20,118.8-21.4,176.7H51.3C54.9,398.5,80.1,323,121.1,258.7z M132.5,758.2c-47.8-67.9-77.2-149.5-81.2-237.8h244.9c1.5,66.7,10.4,132.2,25.8,196.5C255.4,726.2,191.8,740.1,132.5,758.2z M159,792.3c54.5-15.6,112.6-27.7,173.4-35.8c17.5,61.5,40.8,122.1,69.4,181.8C305.6,917,221,864.6,159,792.3z M447.9,946.2c-31.6-66.5-56.4-131-74.5-194.3c44.4-4.5,90.2-6.8,136.9-6.8c39.8,0,78.8,1.7,117,5C609,813.9,584,879,552.1,946.2c-17.1,2-34.5,3-52.1,3C482.4,949.2,465,948.1,447.9,946.2z M598.1,938.4c29-60.5,52.6-121.9,70.1-184.3c61.8,7.2,121.1,18.6,176.7,33.6C782.6,862.4,696.4,916.5,598.1,938.4z M871,753.3c-60.4-17.4-124.9-30.6-192.4-38.9c15.1-63.6,23.8-128.2,25.2-194h244.9C944.8,606.6,916.7,686.4,871,753.3z"/></g>
</svg>