<?xml version="1.0" encoding="UTF-8"?>
<!-- Generator: Adobe Illustrator 25.3.1, SVG Export Plug-In . SVG Version: 6.00 Build 0)  -->
<svg xmlns="http://www.w3.org/2000/svg" xmlns:xlink="http://www.w3.org/1999/xlink" version="1.1" id="Capa_1" x="0px" y="0px" viewBox="0 0 512 512" style="enable-background:new 0 0 512 512;" xml:space="preserve" width="512" height="512">
<g>
	<g>
		<g>
			<g>
				<circle style="fill:#ABDCDD;" cx="256" cy="252.21" r="239.775"/>
			</g>
		</g>
	</g>
	<g>
		<g>
			<g>
				<path style="fill:#EB3780;" d="M225.821,496.46h-82.07c-21.744,0-40.979-14.097-47.528-34.832l-16.039-50.788      c-10.145-32.124,13.84-64.851,47.528-64.851h98.11c27.527,0,49.841,22.315,49.841,49.841v50.788      C275.662,474.146,253.347,496.46,225.821,496.46z"/>
			</g>
		</g>
	</g>
	<g>
		<g>
			<g>
				<g>
					<g>
						<g>
							<path style="fill:#FC8B9E;" d="M426.887,499.031c-2.337,0-4.711-0.515-6.954-1.601c-7.942-3.848-11.261-13.405-7.415-21.345         c8.816-18.302,12.509-38.187,9.685-42.44c-1.424-1.337-4.422-3.816-6.767-3.606c-3.032,0.237-6.72,3.81-7.939,5.403         c-5.163,7.157-15.09,8.693-22.247,3.525c-7.155-5.163-8.71-15.232-3.545-22.387c1.228-1.702,12.529-16.681,30.749-18.357         c7.864-0.723,19.788,0.85,31.943,12.453c22.408,21.389,3.277,66.135-3.119,79.34         C438.517,495.713,432.817,499.031,426.887,499.031z"/>
						</g>
					</g>
				</g>
			</g>
		</g>
		<g style="opacity:0.22;">
			<g>
				<g>
					<path style="fill:#EB3780;" d="M340.112,281.933c-0.611,0-136.431,0-136.431,0l136.431,16.948V281.933z"/>
				</g>
			</g>
		</g>
		<g>
			<g>
				<g>
					<g>
						<path style="fill:#FC8B9E;" d="M134.766,97.753l-4.439,4.037c-11.335,10.31-12.166,27.857-1.856,39.192l40.236,44.238        l32.071-29.17l-52.438-57.654C144.769,94.47,138.691,94.182,134.766,97.753z"/>
					</g>
				</g>
			</g>
		</g>
		<g>
			<g>
				<g>
					<g>
						<path style="fill:#EFC929;" d="M140.545,155.197V3.631c0-4.326,6.208-5.023,7.168-0.805l34.624,152.182L140.545,155.197z"/>
					</g>
				</g>
			</g>
			<g style="opacity:0.5;">
				<g>
					<g>
						<polygon style="fill:#FFFFFF;" points="161.441,63.165 140.545,55.712 140.545,118.721 176.748,130.445       "/>
					</g>
				</g>
			</g>
		</g>
		<g>
			<g>
				<g>
					<path style="fill:#F4B2B8;" d="M354.325,281.933c43.803,0,79.312-35.509,79.312-79.312v-25.832       c0-15.295-12.399-27.693-27.693-27.693H161.786c-16.322,0-29.553,13.231-29.553,29.553v103.285v107.846       c0,62.501,50.667,113.168,113.168,113.168h94.904v-0.005c44.487-0.105,80.52-36.197,80.52-80.708       c0-44.473-35.97-80.537-80.402-80.705l0.043-59.596H354.325z"/>
				</g>
			</g>
		</g>
		<g style="opacity:0.22;">
			<g>
				<g>
					<g>
						<path style="fill:#EB3780;" d="M228.39,235.081c-1.854,0-3.717-0.312-5.52-0.936c-0.833-0.29-1.275-1.201-0.985-2.035        c0.286-0.83,1.198-1.273,2.033-0.986c3.428,1.192,7.123,0.974,10.395-0.612c3.27-1.585,5.726-4.35,6.918-7.783        c0.287-0.83,1.195-1.27,2.031-0.986c0.835,0.29,1.276,1.201,0.986,2.035c-1.47,4.238-4.503,7.652-8.541,9.611        C233.388,234.513,230.896,235.081,228.39,235.081z"/>
					</g>
				</g>
			</g>
		</g>
		<g>
			<g style="opacity:0.22;">
				<g>
					<g>
						<path style="fill:#EB3780;" d="M233.482,175.569c3.906-0.896,5.727-5.465,3.441-8.757        c-4.688-6.754-13.165-10.345-21.673-8.411c-11.185,2.543-26.943,26.844-15.647,24.857        C200.942,183.022,222.345,178.124,233.482,175.569z"/>
					</g>
				</g>
			</g>
			<g>
				<g>
					<g>
						<path style="fill:#4948BE;" d="M233.482,173.102c3.906-0.896,5.727-5.464,3.441-8.757c-4.688-6.753-13.165-10.345-21.673-8.41        c-11.185,2.543-26.943,26.845-15.647,24.856C200.942,180.555,222.345,175.656,233.482,173.102z"/>
					</g>
				</g>
			</g>
		</g>
		<g>
			<g>
				<g>
					<path style="fill:#EB3780;" d="M242.224,252.655c-0.603-2.903-3.015-5.227-5.944-5.691c-3.952-0.627-7.405,1.928-8.263,5.493       c-0.77-3.201-3.634-5.588-7.071-5.588c-4.027,0-7.292,3.265-7.292,7.292c0,0.057,0.015,0.109,0.017,0.166h-0.017       c0,5.185,6.184,9.724,10.406,12.218c2.367,1.398,5.29,1.418,7.658,0.021c2.989-1.763,6.98-4.559,9.055-7.888       C242.048,257.077,242.703,254.962,242.224,252.655z"/>
				</g>
			</g>
		</g>
		<g>
			<g>
				<g>
					<g>
						<path style="fill:#EB3780;" d="M418.964,179.262c0,7.77-6.299,14.068-14.068,14.068c-0.971,0-1.919-0.098-2.835-0.286        l-8.752-13.782l8.734-13.779c0.922-0.19,1.876-0.29,2.854-0.29C412.665,165.194,418.964,171.492,418.964,179.262z"/>
					</g>
				</g>
			</g>
			<g>
				<g>
					<g>
						<ellipse cx="402.042" cy="179.262" rx="11.215" ry="13.778"/>
					</g>
				</g>
			</g>
		</g>
		<g>
			<g>
				<g>
					<g>
						<path style="fill:#EB3780;" d="M362.548,179.262c0,7.77-6.299,14.068-14.068,14.068c-0.971,0-1.919-0.098-2.835-0.286        c0,0-8.772-6.984-8.772-13.782c0-6.792,8.753-13.779,8.753-13.779c0.922-0.19,1.876-0.29,2.854-0.29        C356.249,165.194,362.548,171.492,362.548,179.262z"/>
					</g>
				</g>
			</g>
			<g>
				<g>
					<g>
						<ellipse cx="345.626" cy="179.262" rx="11.215" ry="13.778"/>
					</g>
				</g>
			</g>
		</g>
		<g>
			<g>
				<g>
					<path style="fill:#190D25;" d="M207.549,458.826l3.084-2.525c1.231-1.008,0.412-3-1.172-2.851l-4.12,0.387l-3.296-7.445       c-0.619-1.398-2.655-1.229-3.034,0.253l-2.042,7.979l-4.192,0.394c-1.526,0.143-2.009,2.136-0.717,2.962l3.481,2.227       l-1.518,5.933c-0.386,1.507,1.378,2.632,2.582,1.646l4.731-3.873l7.302,4.67c1.345,0.86,2.988-0.55,2.341-2.01L207.549,458.826       z"/>
				</g>
			</g>
		</g>
		<g>
			<g>
				<g>
					<path style="fill:#FFFFFF;" d="M205.508,414.229l-7.717,1.716l-2.07-3.279c-0.877-1.388-3.014-0.884-3.177,0.75l-0.378,3.78       l-5.638,1.254c-1.627,0.362-1.846,2.591-0.321,3.263l5.275,2.326l-0.824,8.246c-0.17,1.702,1.973,2.588,3.054,1.263       l5.118-6.269l3.303,1.457c1.559,0.687,3.065-1.06,2.156-2.501l-2.009-3.182l4.94-6.05       C208.256,415.736,207.107,413.873,205.508,414.229z"/>
				</g>
			</g>
		</g>
		<g>
			<g>
				<g>
					<path style="fill:#EB3780;" d="M183.873,434.493l-9.036,0.793l-5.052-11.844c-0.942-2.209-4.178-1.849-4.612,0.513       l-2.276,12.379l-5.867,0.514c-2.383,0.209-3.054,3.378-0.96,4.535l5.354,2.959l-2.188,11.9       c-0.416,2.262,2.258,3.776,3.984,2.257l9.189-8.087l5.455,3.014c2.018,1.115,4.305-0.951,3.401-3.072l-2.399-5.625l6.821-6.003       C187.442,437.18,186.204,434.288,183.873,434.493z"/>
				</g>
			</g>
		</g>
		<g>
			<g>
				<g>
					<g>
						<path style="fill:#190D25;" d="M242.383,216.444c-0.883,0-1.598-0.715-1.598-1.598c0-7.04-5.728-12.77-12.768-12.77        c-7.04,0-12.768,5.729-12.768,12.77c0,0.883-0.715,1.598-1.598,1.598c-0.883,0-1.598-0.715-1.598-1.598        c0-8.803,7.162-15.965,15.963-15.965c8.802,0,15.964,7.162,15.964,15.965C243.98,215.73,243.266,216.444,242.383,216.444z"/>
					</g>
				</g>
			</g>
		</g>
		<g>
			<g style="opacity:0.5;">
				<g>
					<g>
						<path style="fill:#FFFFFF;" d="M451.106,502.814c0.16-0.103,0.343-0.229,0.506-0.335c-0.33-0.301-0.506-0.472-0.506-0.472        V502.814z"/>
					</g>
				</g>
			</g>
			<g style="opacity:0.5;">
				<g>
					<g>
						<path style="fill:#FFFFFF;" d="M420.825,422.233c0-44.576-36.137-80.713-80.713-80.713c-0.014,0-0.029,0.001-0.043,0.001        l0.043-59.589h-74.79v45.871c0,12.749-9.619,15.574-19.238,16.49c-9.62,0.916-9.848,19.238,4.122,17.177        c0,0-15.197,13.227-5.955,21.758c2.382,2.198,5.241,2.019,7.813,1.012h0c51.673,0,62.155,41.889,62.155,93.563v25.144h25.732        v-0.004c0.054,0,0.107,0.004,0.16,0.004C384.689,502.947,420.825,466.81,420.825,422.233z"/>
					</g>
				</g>
			</g>
		</g>
		<g>
			<g>
				<g>
					<g>
						<g>
							<path style="fill:#F4B2B8;" d="M421.991,509.21c-3.724,0-3.422-0.844-6.449-3.483c-0.081-0.07-7.229-0.514-12.275-4.302         c-8.409-6.314-21.866-15.415-34.219-19.382c-10.201-3.273-34.919,8.299-48.844,17.914c-7.259,5.007-17.208,3.2-22.223-4.051         c-5.018-7.249-3.222-17.188,4.021-22.214c7.689-5.336,47.531-31.468,76.817-22.075c16.302,5.236,32.803,16.187,43.16,23.902         c6.214,4.629,7.591,10.237,8.01,10.603c6.653,5.796,7.991,11.536,2.193,18.187         C429.023,507.934,426.449,509.21,421.991,509.21z"/>
						</g>
					</g>
				</g>
			</g>
			<g>
				<g>
					<g>
						<path style="fill:#4948BE;" d="M422.013,475.544l-18.812,25.832c5.081,3.812,8.338,6.621,8.419,6.692        c3.027,2.639,6.765,3.932,10.49,3.932c4.458,0,8.894-1.855,12.052-5.481c5.798-6.652,5.104-16.745-1.549-22.542        C432.194,483.612,428.206,480.16,422.013,475.544z"/>
					</g>
				</g>
			</g>
		</g>
		<g>
			<g>
				<g>
					<g>
						<path d="M433.255,198.671c0,0,0-0.001,0-0.001c-1.121,2.66-2.942,4.984-5.335,6.996c-6.103,5.13-15.03,11.632-26.439,13.055        c-37.989,4.738-72.586-6.164-91.998-11.058c-17.637-4.446-33.338,9.628-36.352,26.902c-0.003,2.474,0.297,4.925,0.937,7.284        c5.292,9.27,15.522,15.031,31.461,16.946c7.023,0.844,48.657,4.157,76.467,5.553c5.543,0.278,10.536,0.294,14.598,0.404        c4.444,0.12,8.82-1.414,12.043-4.475c0.017-0.017,0.035-0.033,0.052-0.049c0.673-0.64,3.594-3.636,4.034-4.111        c0.859-0.944,1.695-1.909,2.507-2.894c0.014-0.017,0.026-0.034,0.04-0.051c0.798-0.969,1.575-1.956,2.327-2.962        c0.022-0.029,0.042-0.059,0.063-0.088c0.742-0.996,1.462-2.008,2.158-3.038c0.026-0.039,0.051-0.079,0.077-0.118        c0.689-1.024,1.356-2.064,1.997-3.12c0.023-0.038,0.045-0.077,0.068-0.116c0.64-1.059,1.257-2.132,1.848-3.221        c0.022-0.04,0.042-0.081,0.064-0.122c0.59-1.092,1.157-2.199,1.696-3.32c0.013-0.027,0.025-0.055,0.038-0.083        c0.544-1.136,1.064-2.285,1.555-3.449c0.007-0.015,0.012-0.031,0.019-0.046c0.495-1.177,0.964-2.367,1.404-3.57        c0.001-0.003,0.002-0.005,0.003-0.008C432.137,220.182,433.825,209.61,433.255,198.671z"/>
					</g>
				</g>
			</g>
			<g>
				<g>
					<g>
						<path style="fill:#FFFFFF;" d="M427.905,205.649c-6.103,5.134-15.908,8.242-27.32,9.665        c-37.989,4.738-75.493-7.145-94.906-12.039c-17.699-4.462-32.604,14.103-32.52,31.472c0.335,0.051,0.66,0.125,0.998,0.17        l91.888,12.234C394.518,250.941,420.805,232.734,427.905,205.649z"/>
					</g>
				</g>
			</g>
			<g>
				<g>
					<g>
						<path style="fill:#FFFFFF;" d="M367.944,252.293l-93.847-10.452c2.58,9.519,10.649,17.541,26.588,19.455        c7.053,0.847,52.397,2.234,81.312,3.051C380.268,258.019,374.861,253.063,367.944,252.293z"/>
					</g>
				</g>
			</g>
		</g>
		<g style="opacity:0.22;">
			<g>
				<g>
					<path style="fill:#EB3780;" d="M262.526,376.685c2.147-3.246,4.964-6.017,7.967-8.509c3.026-2.484,6.339-4.614,9.8-6.48       c3.491-1.805,7.125-3.358,10.875-4.582c1.859-0.67,3.784-1.1,5.681-1.662l5.79-1.257l0.463,3.162l-5.664,0.829       c-1.858,0.417-3.759,0.704-5.594,1.228c-3.708,0.935-7.331,2.196-10.851,3.72c-3.489,1.584-6.872,3.441-10.013,5.677       C267.859,371.057,264.888,373.598,262.526,376.685z"/>
				</g>
			</g>
		</g>
		<g>
			<g>
				<g>
					<g>
						<path style="fill:#4948BE;" d="M167.34,275.82c-41.758-1.563-34.388-82.49-34.388-82.49l-4.132-1.636        c0,0,3.546,69.285-17.503,65.543c-16.989-3.021-47.686,13.159-29.925,40.274c14.152,21.605,37.744,4.485,37.744,4.485        s2.411,54.665,42.305,38.177C201.335,323.684,196.397,276.907,167.34,275.82z"/>
					</g>
				</g>
			</g>
			<g>
				<g>
					<g>
						<path style="fill:#4948BE;" d="M340.521,110.424c-3.607-0.581-6.682-0.708-9.366-0.562        c-3.293-7.371-8.979-13.628-16.849-16.783c-29.807-11.953-36.55,9.776-54.907,26.638        c-18.356,16.861-43.65,23.932-79.471,24.706c-35.821,0.773-39.383,13.69-39.383,13.69s110.014-9.018,156.209-2.916        c9.7,1.281,17.389-0.211,23.248-3.442c5.516,3.15,14.826,6.847,23.531,2.605C363.043,144.852,360.306,113.606,340.521,110.424        z"/>
					</g>
				</g>
			</g>
		</g>
		<g>
			<g style="opacity:0.22;">
				<g>
					<g>
						<g>
							<path style="fill:#EB3780;" d="M170.306,496.746c-4.938,0.742-10.123-0.688-13.811-4.282         c-2.588-2.522-25.413-25.385-29.834-51.328c-8.197-48.09,34.767-88.099,36.6-89.779c6.367-5.833,16.467-5.81,22.56,0.054         c6.082,5.854,5.87,15.316-0.465,21.152c-0.449,0.417-32.713,30.835-27.183,63.281c2.435,14.28,16.369,30.57,21.531,35.641         c6.02,5.913,5.718,15.391-0.687,21.171C176.519,494.909,173.463,496.272,170.306,496.746z"/>
						</g>
					</g>
				</g>
			</g>
			<g>
				<g>
					<g>
						<g>
							<path style="fill:#F4B2B8;" d="M150.384,499.37c-4.993,0-7.879-0.752-10.992-5.135c-0.818-1.152-9.574-11.64-9.574-11.64         c-6.197-11.36-13.816-28.81-14.139-46.39c-0.958-52.112,47.475-87.562,49.538-89.046c7.163-5.152,17.148-3.523,22.301,3.64         c5.144,7.151,3.528,17.115-3.604,22.275c-0.506,0.37-36.932,27.385-36.286,62.545c0.213,11.566,6.611,25.337,11.647,34.136         c0,0,1.964,6.559,3.063,8.119c5.074,7.204,3.422,13.599-3.771,18.689C155.762,498.545,153.576,499.37,150.384,499.37z"/>
						</g>
					</g>
				</g>
			</g>
			<g>
				<g>
					<g>
						<path style="fill:#4948BE;" d="M159.276,469.753l-29.457,12.841c3.713,6.806,6.916,11.428,7.735,12.58        c3.113,4.383,8.028,6.717,13.021,6.717c3.192,0,6.417-0.955,9.223-2.938c7.193-5.09,8.9-15.055,3.826-22.259        C162.524,475.134,160.977,472.725,159.276,469.753z"/>
					</g>
				</g>
			</g>
		</g>
		<g>
			<g>
				<g>
					<g>
						<g>
							<path style="fill:#F4B2B8;" d="M85.371,138.196l-2.209,5.579c-5.641,14.246,1.335,30.368,15.581,36.009l55.599,22.015         l15.961-40.308L97.843,132.8C92.909,130.846,87.325,133.262,85.371,138.196z"/>
						</g>
					</g>
				</g>
			</g>
			<g style="opacity:0.22;">
				<g>
					<g>
						<path style="fill:#EB3780;" d="M101.98,173.655c-14.516-5.748-21.642-22.138-15.982-36.668        c-0.265,0.446-0.508,0.911-0.705,1.41l-1.9,4.798c-5.768,14.567,1.365,31.051,15.931,36.818l55.019,21.786l2.537-6.406        L101.98,173.655z"/>
					</g>
				</g>
			</g>
		</g>
		<g>
			<g>
				<g>
					<path d="M319.916,151.621c2.443-1.973,4.562-4.336,6.349-6.862c1.82-2.505,3.26-5.254,4.22-8.122       c1.018-2.871,1.23-5.871,1.5-8.819c0.399-2.988,0.139-5.989,0.238-9.281l0.307-0.09c1.605,2.837,2.637,6.11,2.649,9.47       c0.154,1.686-0.256,3.344-0.557,4.986c-0.55,1.59-1.009,3.193-1.76,4.676c-2.708,6.06-7.331,10.971-12.772,14.31       L319.916,151.621z"/>
				</g>
			</g>
		</g>
		<g>
			<g>
				<g>
					<path d="M118.978,301.971c0.542-5.25,1.835-10.515,4.561-15.297c1.372-2.334,2.906-4.877,5.486-6.34       c2.516-1.463,5.575-2.014,8.26-1.275l0.009,0.319c-2.56,1.047-4.619,2.114-6.462,3.592c-1.791,1.479-3.642,3.075-5.144,5.09       c-1.503,2.001-2.729,4.269-3.749,6.633c-1.07,2.346-1.986,4.803-2.645,7.328L118.978,301.971z"/>
				</g>
			</g>
		</g>
		<g>
			<g>
				<g>
					<path style="fill:#4948BE;" d="M167.373,471.743c0,0,5.964,19.625,24.304,28.417c45.287,21.712,106.001,13.353,97.091-35.031       c-3.844-20.871-27.227-6.825-27.227-6.825s2.857-11.619-10.786-13.872c-11.518-1.902-19.921,11.976-27.505,31.112       c-7.616,19.217-31.936,15.289-47.992,3.112"/>
				</g>
			</g>
		</g>
	</g>
	<g>
		<g>
			<g>
				<g>
					<path style="fill:#EFC929;" d="M328.731,315.052c0,0-22.374-19.852-35.237-20.524c-1.239-0.065-2.274,0.912-2.285,2.152       c-0.065,7.512,0.114,33.405,5.51,39.329L328.731,315.052z"/>
				</g>
			</g>
		</g>
		<g>
			<g>
				<g>
					<path style="fill:#EFC929;" d="M409.458,368.164c-1.78-11.18-10.262-18.578-15.747-22.285       c3.46-5.274,5.686-11.463,6.218-18.194c1.689-21.359-14.257-40.044-35.616-41.733c-17.899-1.415-33.878,9.574-39.593,25.735       c-7.02-5.69-21.712-16.662-31.225-17.159c-1.239-0.065-2.274,0.912-2.285,2.152c-0.064,7.449,0.118,32.947,5.382,39.15       c-0.044,0.327-0.122,0.645-0.148,0.977c-0.706,8.927,5.191,17.281,14.67,22.594v49.853c0,5.294,4.292,9.586,9.587,9.586       s9.586-4.292,9.586-9.586v-44.192c0.027,0.002,0.053,0.007,0.08,0.009c2.075,0.164,4.109,0.172,6.107,0.09v28.626       c0,5.294,4.292,9.586,9.586,9.586s9.587-4.292,9.587-9.586v-29.446c0-0.32-0.064-0.623-0.094-0.935       c1.501-0.073,2.459-0.12,2.644-0.105c8.682,0.687,16.897-1.577,23.733-5.897c0.073,0.037,0.133,0.09,0.208,0.125       c0.101,0.048,10.276,5.191,11.542,13.147c1.102,6.917-5.046,14.402-10.396,19.462c-6.692,6.33-15.523,15.965-14.963,26.525       c0.2,3.757,1.701,9.203,7.728,13.802c1.448,1.103,3.15,1.637,4.84,1.637c2.406,0,4.785-1.083,6.358-3.142       c2.676-3.509,2.002-8.521-1.506-11.198c-1.42-1.083-1.453-1.708-1.465-1.944c-0.056-1.033,0.503-5.101,9.986-14.071       C406.108,390.54,411.221,379.242,409.458,368.164z"/>
				</g>
			</g>
		</g>
		<g>
			<g style="opacity:0.22;">
				<g>
					<g>
						<path style="fill:#EB3780;" d="M372.58,287.522l-3.112-0.808c0,0-6.192,15.758,0,25.276        c6.192,9.518,6.814-23.137,6.814-23.137L372.58,287.522z"/>
					</g>
				</g>
			</g>
			<g>
				<g>
					<g>
						<path style="fill:#F4B2B8;" d="M385.474,316.787c-1.545,0-3.253-1.045-4.807-1.519c-8.44-2.574-10.986-9.316-8.41-17.757        c0.489-1.603-1.162-3.197-0.736-4.471c1.953-5.839,3.64-8.728,8.709-13.218c6.603-5.853,16.7-5.243,22.554,1.362        c5.765,6.505,5.26,16.4-1.069,22.289c-0.074,0.232-0.153,0.483-0.236,0.75c-0.232,0.742-2.154,1.502-2.41,2.342        C396.969,313.45,392.318,316.785,385.474,316.787z"/>
					</g>
				</g>
			</g>
			<g>
				<g>
					<g>
						<path style="fill:#4948BE;" d="M371.533,293.043c-0.431,1.286-0.87,2.666-1.365,4.288        c-2.576,8.441,2.178,17.371,10.618,19.945c1.554,0.474,3.125,0.701,4.67,0.701c6.843-0.002,13.175-4.433,15.275-11.318        c0.261-0.855,0.516-1.685,0.75-2.436L371.533,293.043z"/>
					</g>
				</g>
			</g>
		</g>
		<g>
			<g>
				<g>
					<path style="fill:#EB3780;" d="M314.306,316.819c0,0-13.543-15.623-17.551-14.791c0,0,0.665,17.117,3.19,24.546       C299.944,326.574,307.206,317.967,314.306,316.819z"/>
				</g>
			</g>
		</g>
		<g style="opacity:0.5;">
			<g>
				<g>
					<path style="fill:#FFFFFF;" d="M327.691,314.153c-4.536-3.872-22.979-19.039-34.197-19.624       c-1.13-0.059-2.051,0.763-2.219,1.847c10.165,0.697,26.004,12.983,32.264,18.161       C324.894,314.346,326.284,314.227,327.691,314.153z"/>
				</g>
			</g>
		</g>
		<g>
			<g>
				<g>
					<g>
						<path style="fill:#190D25;" d="M353.17,351.857c-0.231,0-0.465-0.009-0.699-0.028c-4.778-0.378-8.359-4.572-7.981-9.349        c0.07-0.883,0.816-1.529,1.719-1.467c0.88,0.069,1.535,0.836,1.467,1.716c-0.116,1.467,0.345,2.887,1.298,4.004        c0.953,1.117,2.284,1.794,3.749,1.913c1.462,0.09,2.886-0.346,4.002-1.301c1.119-0.952,1.798-2.284,1.913-3.748        c0.07-0.88,0.836-1.52,1.719-1.467c0.879,0.069,1.535,0.836,1.467,1.716c-0.184,2.315-1.258,4.422-3.024,5.929        C357.213,351.13,355.236,351.857,353.17,351.857z"/>
					</g>
				</g>
			</g>
		</g>
		<g>
			<g>
				<g>
					<g>
						<path style="fill:#190D25;" d="M309.966,348.867c-4.793,0-8.694-3.901-8.694-8.694c0-0.883,0.715-1.598,1.598-1.598        c0.883,0,1.598,0.715,1.598,1.598c0,3.033,2.467,5.499,5.499,5.499c3.033,0,5.5-2.465,5.5-5.499        c0-0.883,0.715-1.598,1.598-1.598c0.883,0,1.598,0.715,1.598,1.598C318.661,344.966,314.76,348.867,309.966,348.867z"/>
					</g>
				</g>
			</g>
		</g>
		<g style="opacity:0.5;">
			<g>
				<g>
					<path style="fill:#FFFFFF;" d="M334.387,314.225c-12.396-0.98-23.676,2.597-30.669,8.841       c7.034-5.069,17.229-7.847,28.324-6.969c19.845,1.569,35.033,14.224,33.923,28.264c-0.417,5.271-3.072,9.988-7.275,13.741       c5.548-3.999,9.131-9.421,9.62-15.612C369.42,328.449,354.233,315.795,334.387,314.225z"/>
				</g>
			</g>
		</g>
		<g>
			<g>
				<g>
					<g>
						<path style="fill:#4948BE;" d="M337.894,349.37c-0.163,2.056-6.318,3.305-8.159,3.633c-0.349,0.062-0.675,0.036-1.009-0.08        c-1.766-0.613-7.649-2.814-7.487-4.87c0.191-2.418,4.075-4.084,8.674-3.72S338.085,346.951,337.894,349.37z"/>
					</g>
				</g>
			</g>
			<g style="opacity:0.5;">
				<g>
					<g>
						<g>
							<path style="fill:#FFFFFF;" d="M334.866,349.856c-0.284,0-0.569-0.1-0.799-0.306c-1.766-1.576-4.423-1.482-4.445-1.482         c-0.677-0.006-1.219-0.487-1.25-1.145c-0.03-0.658,0.478-1.217,1.136-1.251c0.155,0.006,3.648-0.147,6.157,2.094         c0.493,0.44,0.535,1.198,0.095,1.691C335.523,349.722,335.196,349.856,334.866,349.856z"/>
						</g>
					</g>
				</g>
			</g>
			<g style="opacity:0.5;">
				<g>
					<g>
						<path style="fill:#FFFFFF;" d="M327.086,347.151c0,0.495-0.401,0.897-0.897,0.897s-0.897-0.401-0.897-0.897        c0-0.495,0.401-0.897,0.897-0.897S327.086,346.655,327.086,347.151z"/>
					</g>
				</g>
			</g>
		</g>
		<g style="opacity:0.22;">
			<g>
				<g>
					<path style="fill:#EB3780;" d="M346.013,363.797c-3.008,0.759-6.205,1.227-9.539,1.365v4.029       c7.744,0.359,14.584-0.804,19.173-1.933v-2.916c0-0.321-0.061-0.623-0.092-0.935       C353.33,363.514,349.891,363.68,346.013,363.797z"/>
				</g>
			</g>
		</g>
		<g style="opacity:0.22;">
			<g>
				<g>
					<path style="fill:#EB3780;" d="M311.114,359.401v5.406c3.818,1.088,11.016,2.915,19.173,3.87v-3.615       C323.09,364.482,316.523,362.434,311.114,359.401z"/>
				</g>
			</g>
		</g>
		<g style="opacity:0.5;">
			<g>
				<g>
					<g>
						<path style="fill:#FFFFFF;" d="M381.177,356.951c-0.179-0.12-0.344-0.227-0.51-0.334        C380.827,356.741,381.007,356.839,381.177,356.951z"/>
					</g>
				</g>
			</g>
			<g>
				<g>
					<g>
						<path style="fill:#FFFFFF;" d="M409.458,368.164c-2.315-14.544-15.967-22.693-19.605-24.626        c5.471,3.64,14.224,11.105,16.034,22.481c1.763,11.078-3.35,22.376-15.197,33.582c-9.484,8.97-10.042,13.038-9.986,14.071        c0.012,0.236,0.045,0.861,1.465,1.944c3.508,2.677,4.182,7.689,1.506,11.198c-1.573,2.06-3.952,3.143-6.358,3.143        c-0.762,0-1.523-0.125-2.266-0.345c0.333,0.284,0.631,0.574,0.997,0.853c1.448,1.103,3.15,1.637,4.84,1.637        c2.406,0,4.785-1.083,6.358-3.142c2.676-3.509,2.002-8.521-1.506-11.198c-1.42-1.083-1.453-1.709-1.465-1.944        c-0.056-1.033,0.502-5.101,9.986-14.071C406.108,390.54,411.221,379.242,409.458,368.164z"/>
					</g>
				</g>
			</g>
		</g>
		<g>
			<g>
				<g>
					<g>
						<path style="fill:#EFC929;" d="M368.06,337.867c4.858-7.273,5.673-30.997,5.806-38.142c0.023-1.24-0.985-2.245-2.225-2.214        c-10.125,0.253-26.405,12.168-32.921,17.263C354.264,317.35,366.125,326.784,368.06,337.867z"/>
					</g>
				</g>
			</g>
			<g>
				<g>
					<g>
						<path style="fill:#EB3780;" d="M363.988,328.736c2.581-7.631,3.66-23.857,3.66-23.857        c-3.415-0.807-14.137,10.256-17.138,13.441C356.201,320.906,360.854,324.519,363.988,328.736z"/>
					</g>
				</g>
			</g>
			<g style="opacity:0.22;">
				<g>
					<g>
						<path style="fill:#EB3780;" d="M371.641,297.511c-10.125,0.253-26.405,12.168-32.921,17.262        c1.37,0.227,2.706,0.514,4.015,0.844c7.538-5.672,21.465-15.171,30.487-15.396c0.224-0.006,0.427,0.057,0.63,0.114        c0.004-0.198,0.01-0.434,0.014-0.612C373.89,298.484,372.882,297.48,371.641,297.511z"/>
					</g>
				</g>
			</g>
		</g>
	</g>
</g>















</svg>
