<?xml version="1.0" encoding="UTF-8" standalone="no"?><!DOCTYPE svg PUBLIC "-//W3C//DTD SVG 1.1//EN" "http://www.w3.org/Graphics/SVG/1.1/DTD/svg11.dtd"><svg width="129px" height="70px" viewBox="0 0 129 70" version="1.1" xmlns="http://www.w3.org/2000/svg" xmlns:xlink="http://www.w3.org/1999/xlink" xml:space="preserve" xmlns:serif="http://www.serif.com/" style="fill-rule:evenodd;clip-rule:evenodd;stroke-linejoin:round;stroke-miterlimit:2;"><g id="logo"></g><path d="M45.473,68.238c1.548,0 2.916,-0.792 3.612,-2.016l-1.2,-0.684c-0.432,0.828 -1.356,1.356 -2.412,1.356c-1.812,0 -3.012,-1.284 -3.012,-3.012c0,-1.728 1.2,-3.012 3.012,-3.012c1.056,0 1.968,0.528 2.412,1.356l1.2,-0.696c-0.708,-1.224 -2.076,-2.004 -3.612,-2.004c-2.556,0 -4.392,1.92 -4.392,4.356c0,2.436 1.836,4.356 4.392,4.356Z" style="fill:#fff;fill-rule:nonzero;"/><path d="M51.785,66.762l0,-7.08l-1.38,0l0,8.4l4.8,0l0,-1.32l-3.42,0Z" style="fill:#fff;fill-rule:nonzero;"/><path d="M62.117,68.082l1.488,0l-3.036,-8.4l-1.656,0l-3.048,8.4l1.5,0l0.588,-1.692l3.576,0l0.588,1.692Zm-3.708,-2.988l1.332,-3.792l1.332,3.792l-2.664,0Z" style="fill:#fff;fill-rule:nonzero;"/><path d="M67.265,68.238c1.752,0 2.976,-0.936 2.976,-2.472c0,-1.668 -1.404,-2.1 -2.796,-2.544c-1.224,-0.384 -1.692,-0.66 -1.692,-1.308c0,-0.636 0.516,-1.044 1.32,-1.044c0.936,0 1.464,0.504 1.764,1.176l1.164,-0.672c-0.528,-1.116 -1.548,-1.848 -2.928,-1.848c-1.416,0 -2.7,0.876 -2.7,2.424c0,1.584 1.272,2.064 2.58,2.46c1.248,0.384 1.908,0.636 1.908,1.38c0,0.612 -0.468,1.104 -1.56,1.104c-1.14,0 -1.788,-0.564 -2.088,-1.416l-1.188,0.696c0.444,1.248 1.584,2.064 3.24,2.064Z" style="fill:#fff;fill-rule:nonzero;"/><path d="M74.141,68.238c1.752,0 2.976,-0.936 2.976,-2.472c0,-1.668 -1.404,-2.1 -2.796,-2.544c-1.224,-0.384 -1.692,-0.66 -1.692,-1.308c0,-0.636 0.516,-1.044 1.32,-1.044c0.936,0 1.464,0.504 1.764,1.176l1.164,-0.672c-0.528,-1.116 -1.548,-1.848 -2.928,-1.848c-1.416,0 -2.7,0.876 -2.7,2.424c0,1.584 1.272,2.064 2.58,2.46c1.248,0.384 1.908,0.636 1.908,1.38c0,0.612 -0.468,1.104 -1.56,1.104c-1.14,0 -1.788,-0.564 -2.088,-1.416l-1.188,0.696c0.444,1.248 1.584,2.064 3.24,2.064Z" style="fill:#fff;fill-rule:nonzero;"/><rect x="78.425" y="59.682" width="1.38" height="8.4" style="fill:#fff;fill-rule:nonzero;"/><path d="M85.637,68.238c1.548,0 2.916,-0.792 3.612,-2.016l-1.2,-0.684c-0.432,0.828 -1.356,1.356 -2.412,1.356c-1.812,0 -3.012,-1.284 -3.012,-3.012c0,-1.728 1.2,-3.012 3.012,-3.012c1.056,0 1.968,0.528 2.412,1.356l1.2,-0.696c-0.708,-1.224 -2.076,-2.004 -3.612,-2.004c-2.556,0 -4.392,1.92 -4.392,4.356c0,2.436 1.836,4.356 4.392,4.356Z" style="fill:#fff;fill-rule:nonzero;"/><path d="M97.781,68.238c1.548,0 2.916,-0.792 3.612,-2.016l-1.2,-0.684c-0.432,0.828 -1.356,1.356 -2.412,1.356c-1.812,0 -3.012,-1.284 -3.012,-3.012c0,-1.728 1.2,-3.012 3.012,-3.012c1.056,0 1.968,0.528 2.412,1.356l1.2,-0.696c-0.708,-1.224 -2.076,-2.004 -3.612,-2.004c-2.556,0 -4.392,1.92 -4.392,4.356c0,2.436 1.836,4.356 4.392,4.356Z" style="fill:#fff;fill-rule:nonzero;"/><path d="M108.125,68.082l1.488,0l-3.036,-8.4l-1.656,0l-3.048,8.4l1.5,0l0.588,-1.692l3.576,0l0.588,1.692Zm-3.708,-2.988l1.332,-3.792l1.332,3.792l-2.664,0Z" style="fill:#fff;fill-rule:nonzero;"/><path d="M115.481,68.082l1.512,0l-1.908,-3.264c0.984,-0.396 1.668,-1.356 1.668,-2.436c0,-1.5 -1.2,-2.7 -2.7,-2.7l-3.36,0l0,8.4l1.38,0l0,-3.06l1.632,0l1.776,3.06Zm-3.408,-7.104l1.98,0c0.732,0 1.32,0.612 1.32,1.404c0,0.78 -0.588,1.404 -1.32,1.404l-1.98,0l0,-2.808Z" style="fill:#fff;fill-rule:nonzero;"/><path d="M120.905,68.238c1.752,0 2.976,-0.936 2.976,-2.472c0,-1.668 -1.404,-2.1 -2.796,-2.544c-1.224,-0.384 -1.692,-0.66 -1.692,-1.308c0,-0.636 0.516,-1.044 1.32,-1.044c0.936,0 1.464,0.504 1.764,1.176l1.164,-0.672c-0.528,-1.116 -1.548,-1.848 -2.928,-1.848c-1.416,0 -2.7,0.876 -2.7,2.424c0,1.584 1.272,2.064 2.58,2.46c1.248,0.384 1.908,0.636 1.908,1.38c0,0.612 -0.468,1.104 -1.56,1.104c-1.14,0 -1.788,-0.564 -2.088,-1.416l-1.188,0.696c0.444,1.248 1.584,2.064 3.24,2.064Z" style="fill:#fff;fill-rule:nonzero;"/><g><g id="LOGO_8_"><path d="M124.131,42.385l0,-0.544l-7.07,0c-0.906,0 -1.631,0.725 -1.631,1.632l0,7.613c0,0.907 0.725,1.632 1.631,1.632l5.439,0c0.906,0 1.631,-0.725 1.631,-1.632l0,-0.543l-6.236,0c-0.145,0 -0.29,-0.145 -0.29,-0.29l0,-1.886l4.895,0c0.906,0 1.631,-0.725 1.631,-1.631l0,-0.544l-6.526,0l0,-1.885c0,-0.145 0.145,-0.29 0.29,-0.29l4.605,0c0.906,0 1.631,-0.725 1.631,-1.632Z" style="fill:#fff;fill-rule:nonzero;"/><path d="M113.255,45.612c-0.037,-2.103 -1.813,-3.771 -3.916,-3.771l-5.33,0c-0.906,0 -1.631,0.725 -1.631,1.632l0,9.245l0.544,0c0.906,0 1.631,-0.725 1.631,-1.632l0,-1.631l4.315,0l1.559,2.719c0.181,0.326 0.543,0.544 0.942,0.544l1.886,0l-2.103,-3.662c1.269,-0.616 2.139,-1.958 2.103,-3.444Zm-8.375,-1.595l4.531,0c0.871,0 1.596,0.689 1.668,1.559c0.036,0.942 -0.689,1.704 -1.631,1.704l-4.895,0l0,-2.937c0,-0.181 0.145,-0.326 0.327,-0.326Z" style="fill:#fff;fill-rule:nonzero;"/><path d="M69.313,42.276l-3.698,3.698c-0.145,0.145 -0.326,0.145 -0.471,0l-3.662,-3.698c-0.29,-0.29 -0.689,-0.435 -1.088,-0.435c-0.834,0 -1.523,0.689 -1.523,1.523l0,9.354l0.544,0c0.907,0 1.632,-0.725 1.632,-1.632l0,-5.837c0,-0.145 0.145,-0.181 0.254,-0.108l2.936,2.936c0.653,0.653 1.668,0.653 2.321,0l2.936,-2.936c0.109,-0.109 0.254,-0.037 0.254,0.108l0,7.469l0.544,0c0.906,0 1.631,-0.725 1.631,-1.632l0,-7.722c0,-0.834 -0.688,-1.523 -1.522,-1.523l-0.037,0c-0.398,0 -0.761,0.145 -1.051,0.435Z" style="fill:#fff;fill-rule:nonzero;"/><path d="M55.065,52.718l-0.544,0l0,-9.245c0,-0.907 0.725,-1.632 1.631,-1.632l0.544,0l0,9.245c0,0.907 -0.725,1.632 -1.631,1.632Z" style="fill:#fff;fill-rule:nonzero;"/><path d="M48.43,41.841l-5.33,0c-0.906,0 -1.631,0.725 -1.631,1.632l0,9.245l0.544,0c0.906,0 1.631,-0.725 1.631,-1.632l0,-1.631l4.895,0c2.066,0 3.77,-1.668 3.806,-3.734c0.037,-2.139 -1.776,-3.88 -3.915,-3.88Zm0.072,5.439l-4.858,0l0,-2.937c0,-0.181 0.145,-0.326 0.326,-0.326l4.569,0c0.942,0 1.667,0.761 1.631,1.704c-0.036,0.87 -0.797,1.559 -1.668,1.559Z" style="fill:#fff;fill-rule:nonzero;"/></g><path d="M94.764,41.841c-1.885,0 -3.553,0.979 -4.532,2.429l-3.988,6.019c-0.979,1.45 -2.646,2.429 -4.532,2.429c-3.009,0 -5.438,-2.429 -5.438,-5.438c0,-3.01 2.429,-5.439 5.438,-5.439c1.886,0 3.517,0.943 4.496,2.393l0.725,1.088l1.305,-1.958l-0.181,-0.29c-1.378,-2.067 -3.698,-3.408 -6.345,-3.408c-4.205,0 -7.613,3.408 -7.613,7.614c0,4.205 3.408,7.613 7.613,7.613c2.647,0 5.004,-1.341 6.345,-3.408l1.486,-2.248l0.689,1.052c0.979,1.45 2.647,2.429 4.532,2.429c3.009,0 5.439,-2.429 5.439,-5.438c0,-3.01 -2.43,-5.439 -5.439,-5.439Zm0,8.702c-1.124,0 -2.139,-0.58 -2.719,-1.487l-1.196,-1.776l1.196,-1.813c0.58,-0.87 1.595,-1.45 2.719,-1.45c1.813,0 3.263,1.45 3.263,3.263c0,1.812 -1.45,3.263 -3.263,3.263Z" style="fill:#fff;fill-rule:nonzero;"/><path d="M127.902,42.748c0,-0.182 -0.182,-0.363 -0.363,-0.363l-0.507,0c-0.073,0 -0.145,0.073 -0.145,0.145l0,0.907l0.108,0c0.073,0 0.109,-0.037 0.109,-0.109l0,-0.181l0.399,0l0.181,0.29l0.036,0.036l0.218,0l-0.218,-0.363c0.109,-0.072 0.182,-0.217 0.182,-0.362Zm-0.798,-0.145l0.435,0c0.073,0 0.145,0.072 0.145,0.145c0,0.108 -0.072,0.181 -0.145,0.181l-0.471,0l0,-0.29l0.036,-0.036Z" style="fill:#fff;fill-rule:nonzero;"/><path d="M127.394,42.059c0.471,0 0.87,0.399 0.87,0.87c0,0.471 -0.399,0.87 -0.87,0.87c-0.471,0 -0.87,-0.399 -0.87,-0.87c0,-0.471 0.399,-0.87 0.87,-0.87m0,-0.218c-0.616,0 -1.088,0.472 -1.088,1.088c0,0.616 0.472,1.088 1.088,1.088c0.616,0 1.088,-0.472 1.088,-1.088c0,-0.616 -0.472,-1.088 -1.088,-1.088Z" style="fill:#fff;fill-rule:nonzero;"/></g><path d="M35,70c-19.317,0 -35,-15.683 -35,-35c0,-19.317 15.683,-35 35,-35c19.317,0 35,15.683 35,35l-3.15,0c0,-17.578 -14.272,-31.85 -31.85,-31.85c-17.578,0 -31.85,14.272 -31.85,31.85c0,17.578 14.272,31.85 31.85,31.85l0,3.15Z" style="fill:#fff;"/><path d="M35.029,37l0,23c-6.395,0 -12.229,-2.401 -16.65,-6.35l16.65,-16.65Zm-0.836,-26.986c0.277,-0.009 0.556,-0.014 0.836,-0.014c6.872,0 13.096,2.773 17.615,7.261l-35.355,35.355c-4.488,-4.519 -7.26,-10.744 -7.26,-17.616c0,-0.28 0.004,-0.558 0.014,-0.836l24.15,-24.15Zm-17.719,24.802l-2.333,2.333l5.94,5.94l2.333,-2.333c1.638,-1.638 1.527,-4.158 -0.127,-5.813c-1.663,-1.663 -4.175,-1.765 -5.813,-0.127Zm5.007,5.006l-1.358,1.358l-4.073,-4.073l1.358,-1.358c1.128,-1.128 2.757,-1.043 3.937,0.136c1.171,1.171 1.264,2.809 0.136,3.937Zm4.836,-4.836l-1.604,-1.604l2.376,-2.376l-0.925,-0.925l-2.375,2.376l-1.545,-1.544l2.588,-2.588l-0.933,-0.934l-3.564,3.564l5.94,5.94l3.606,-3.606l-0.933,-0.934l-2.631,2.631Zm27.361,-16.635c3.95,4.42 6.351,10.254 6.351,16.649l-23,0l16.649,-16.649Zm-23.033,2.295l-1.044,1.043l1.171,4.769l-4.76,-1.18l-1.052,1.053l5.939,5.939l0.976,-0.975l-4.243,-4.243l4.803,1.188l0.119,-0.119l-1.18,-4.794l4.235,4.234l0.975,-0.976l-5.939,-5.939Zm1.241,-10.45l-21.661,21.662c1.418,-11.288 10.374,-20.244 21.661,-21.662Zm8.907,12.401c1.723,-1.722 1.723,-4.438 0,-6.16c-1.722,-1.723 -4.438,-1.723 -6.16,0c-1.714,1.714 -1.723,4.438 0,6.16c1.722,1.723 4.446,1.714 6.16,0Zm-0.95,-0.95c-1.188,1.188 -3.013,1.196 -4.234,-0.026c-1.222,-1.222 -1.214,-3.046 -0.026,-4.234c1.188,-1.188 3.012,-1.196 4.234,0.026c1.222,1.222 1.214,3.046 0.026,4.234Z" style="fill:#fff;"/></svg>